<?xml version="1.0" encoding="utf-8" ?><svg xmlns="http://www.w3.org/2000/svg" xmlns:xlink="http://www.w3.org/1999/xlink" width="1536" height="1024" viewBox="0 0 1536 1024"><path fill="#FEFEFE" d="M403.086 418.148C455.073 416.792 512.575 418.021 564.997 418.029C563.494 429.408 560.159 440.702 551.787 448.997C546.834 453.873 540.602 457.246 533.812 458.726C525.403 460.605 507.711 459.95 498.271 459.945L436.047 459.718C422.131 459.627 423.767 469.998 423.711 480.291C423.673 487.261 423.76 494.292 423.781 501.265C456.311 501.575 488.925 500.977 521.503 501.46C523.117 503.309 525.037 506.122 526.524 508.165L536.53 521.699L520.96 543.544C489.739 544.164 455.114 543.791 423.802 543.485L423.828 612.258L376.856 612.286C375.991 575.974 376.584 536.829 376.558 500.329L376.54 463.236C376.505 439.124 373.028 420.617 403.086 418.148Z"/><defs><linearGradient id="gradient_0" gradientUnits="userSpaceOnUse" x1="1130.5125" y1="577.96985" x2="1015.4532" y2="384.18369"><stop offset="0" stop-color="#499BFF"/><stop offset="1" stop-color="#5FB9FF"/></linearGradient></defs><path fill="url(#gradient_0)" d="M954.728 418.365L1157.22 418.39L1157.18 459.172L1076.96 459.214L1076.94 551.01L1077.01 612.277C1061.47 612.206 1045.93 612.214 1030.38 612.301L1030.33 473.602C1038.52 466.496 1041.89 464.163 1051.38 459.168C1019.38 458.832 986.823 459.141 954.779 459.134L954.728 418.365Z"/><path fill="#FEFEFE" d="M822.588 418.115L872.432 418.068L872.128 418.476C863.011 430.642 851.147 444.552 841.428 456.692L774.867 539.618L743.479 578.698C719.514 608.769 718.332 615.415 676.99 612.183C672.739 611.851 658.463 613.355 656.003 611.49L657.226 609.511C673.008 589.699 688.687 569.806 704.264 549.833C712.164 539.808 721.086 528.013 729.469 518.616L686.189 467.595C705.137 466.818 728.979 467.366 748.128 467.472C753.06 472.377 756.007 475.782 760.41 481.182L792.205 440.411C801.472 428.656 807.114 419.949 822.588 418.115Z"/><path fill="#FEFEFE" d="M579.72 418.009L627.789 417.959L627.854 612.203L579.671 612.319L579.72 418.009Z"/><defs><linearGradient id="gradient_1" gradientUnits="userSpaceOnUse" x1="972.54205" y1="570.19025" x2="854.81" y2="459.43686"><stop offset="0" stop-color="#489DFF"/><stop offset="1" stop-color="#6BCBFF"/></linearGradient></defs><path fill="url(#gradient_1)" d="M891.56 418.295L936.678 418.307C935.336 480.907 936.347 547.229 936.413 610.086L936.376 611.531C933.895 612.858 897.357 612.25 891.555 612.232C891.129 592.743 891.592 571.394 891.608 551.788L891.56 418.295Z"/><path fill="#FEFEFE" d="M803.229 530.56C805.209 530.224 805.324 530.266 807.356 530.41C811.773 534.509 825.251 551.349 829.758 556.75L875.885 612.096C867.252 612.325 858.055 612.209 849.375 612.253C838.832 612.346 819.763 613.844 811.464 607.843C804.77 603.003 783.907 578.394 780.019 572.17C778.33 569.475 777.139 566.498 776.501 563.382C773.003 545.992 787.366 533.56 803.229 530.56Z"/><path fill="#FEFEFE" d="M645.784 418.036C663.641 417.854 684.149 417.554 701.761 418.625C710.058 419.13 735.071 449.124 739.825 456.723L739.342 457.896C721.752 458.693 697.347 458.036 679.452 458.082C673.278 451.969 650.775 425.153 645.784 418.036Z"/></svg>