<?xml version="1.0" encoding="utf-8" ?><svg xmlns="http://www.w3.org/2000/svg" xmlns:xlink="http://www.w3.org/1999/xlink" width="1024" height="1536" viewBox="0 0 1024 1536"><path fill="#DACDFE" d="M651.193 505.012C697.944 503.862 749.627 504.969 796.779 504.925L846.974 504.865C857.008 504.857 870.347 504.178 879.938 505.771C901.715 509.588 920.501 527.47 923.882 549.57C926.098 564.057 925.251 580.893 925.25 595.661L925.226 674.934L925.188 783.175C925.179 802.197 925.453 822.129 924.615 841.1C924.289 848.475 920.268 859.637 915.839 865.635C905.199 880.045 894.836 885.621 877.917 888.708C865.078 889.796 846.177 889.267 833.029 889.26L756.6 889.243L691.005 889.23C678.475 889.224 660.188 889.701 648.127 888.156C640.445 887.111 633.125 884.24 626.78 879.785C614.866 871.511 605.622 857.066 604.632 842.527C603.513 826.111 603.933 809.144 603.938 792.671L603.951 693.62L603.913 598.109C603.909 576.428 600.588 547.881 612.014 529.105C620.936 514.444 634.684 507.681 651.193 505.012Z"/><path fill="#FBF9FE" d="M652.099 511.022C666.21 510.568 683.081 510.988 697.46 510.991L789.933 511.066L844.499 510.908C862.714 510.859 880.757 508.54 896.814 518.306C924.617 535.217 919.8 565.53 919.808 593.247L919.813 676.713L919.808 783.201C919.802 801.323 920.244 819.691 919.407 837.774C918.218 863.444 900.18 878.671 876.381 883.389L875.5 883.475C862.948 884.663 842.35 884.104 829.31 884.105L750.073 884.089L690.385 884.131C674.47 884.165 656.319 885.566 641.254 880.488C623.13 874.42 610.58 857.375 609.742 838.309C608.95 820.293 609.331 801.81 609.352 783.722L609.368 683.142L609.351 597.609C609.353 583.211 608.881 567.728 609.832 553.427C611.284 531.563 630.117 512.63 652.099 511.022Z"/><path fill="#DACDFE" d="M753.668 543.495C786.312 537.281 817.791 558.773 823.88 591.433C829.97 624.093 808.35 655.481 775.658 661.442C743.146 667.371 711.959 645.9 705.903 613.419C699.847 580.937 721.202 549.675 753.668 543.495Z"/><path fill="#6D3DD2" d="M761.964 569.394C768.917 568.976 778.296 570.553 783.374 575.738C802.854 595.633 783.239 627.014 768.358 643.553C763.317 645.061 760.4 640.051 757.442 636.39C741.651 616.849 726.002 578.266 761.964 569.394Z"/><path fill="#FBF9FE" d="M765.361 583.431C771.9 583.158 777.47 588.137 777.926 594.665C778.383 601.192 773.56 606.898 767.046 607.536C762.667 607.966 758.401 605.983 755.907 602.359C753.412 598.735 753.084 594.043 755.05 590.108C757.016 586.172 760.965 583.615 765.361 583.431Z"/><path fill="#6D3DD2" d="M760.088 774.736C779.954 771.03 799.077 784.087 802.853 803.936C806.629 823.785 793.635 842.948 773.795 846.792C753.856 850.656 734.573 837.587 730.778 817.64C726.984 797.693 740.122 778.46 760.088 774.736Z"/><path fill="#FBF9FE" d="M780.3 796.223C782.897 796.354 782.877 796.554 784.254 798.434C784.933 804.341 769.046 823.137 763.925 825.566C760.585 824.433 754.969 818.605 752.16 816.015C750.203 814.371 748.592 813.491 748.105 811.108C748.93 808.538 748.309 809.234 750.245 807.838C754.613 807.797 760.356 814.029 763.753 817.119C768.725 810.587 774.837 802.102 780.3 796.223Z"/><path fill="#DACDFE" d="M677.618 708.105C689.492 707.642 703.839 707.974 715.901 707.961L791.966 708.019C806.081 708.043 820.207 707.779 834.313 707.802C840.734 707.813 853.915 706.142 857.129 712.336C856.642 715.494 857.103 714.273 854.917 717.021C798.437 718.181 741.512 716.19 684.993 717.283C681.059 717.359 675.584 716.949 674.306 712.792C674.893 710.21 675.517 709.977 677.618 708.105Z"/><path fill="#DACDFE" d="M720.981 733.108C750.234 733.448 779.541 732.869 808.797 733.139C813.66 733.183 827.395 732.126 829.366 737.067C828.048 742.628 820.76 741.858 816.574 741.712L745.792 741.704C733.899 741.698 721.957 741.838 710.077 741.446C707.656 741.366 705.156 740.564 704.679 738.019C707.111 732.248 715.843 733.053 720.981 733.108Z"/><path fill="#6D3DD2" d="M224.023 411.776C231.816 396.112 250.453 382.43 266.717 377.1C279.66 372.858 287.023 373.151 300.013 372.61C304.744 371.891 309.826 369.057 314.651 369.249C320.484 369.48 326.636 370.637 331.903 373.359C355.02 385.307 357.821 411.619 359.6 434.389C368.984 451.626 374.381 469.949 368.851 489.711C371.618 492.952 374.961 496.593 377.073 500.225C377.064 501.911 379.815 505.124 380.911 509.46C386.527 524.076 390.575 532.101 390.056 548.242L393.384 548.165L394.586 548.355C402.498 547.97 408.602 547.821 416.568 546.989C437.147 545.941 461.536 540.916 481.713 536.462C483.931 535.833 487.851 532.025 489.75 530.328C500.654 516.951 514.711 502.814 526.316 489.134C532.087 483.158 541.429 470.52 547.945 466.35C557.113 472.791 566.524 478.878 576.157 484.6C575.017 487.97 573.93 490.786 572.578 494.079C558.293 524.404 538.518 566.53 511.27 587.475C503.156 593.711 491.448 598.086 481.774 601.598C456.487 609.968 430.824 617.155 404.867 623.133C406.429 628.841 407.865 634.093 409.097 639.89C409.094 645.884 409.485 655.019 408.156 660.611C404.638 675.411 390.505 723.725 395.292 737.262C396.35 745.746 394.981 748.979 387.409 753.527C388.7 757.4 390.517 763.45 392.112 767.024C366.403 775.893 337.18 776.227 310.268 774.909C305.274 774.665 294.684 774.048 290.303 773.221C285.634 773.141 270.733 771.673 267.295 768.902L266.334 768.697L266.356 765.803C263.389 766.305 255.306 772.594 251.671 774.787L234.743 780.044C233.777 780.349 232.804 780.634 231.826 780.9C204.946 788.208 172.513 788.03 164.248 755.632C165.155 739.577 163.859 739.316 169.095 722.024C159.873 713.974 156.823 712.088 153.532 700.251C150.473 698.86 148.538 697.9 145.643 696.207C133.987 690.213 128.859 673.593 130.128 661.355C131.623 646.927 138.578 636.5 149.417 627.354C144.897 613.064 144.679 600.173 149.34 585.884C150.985 580.841 150.773 574.692 153.08 569.671C165.62 542.207 196.63 530.027 205.84 499.709C214.347 471.707 205.622 437.13 224.023 411.776ZM205.925 509.359C201.311 514.993 197.166 524.025 192.497 529.24C177.67 545.801 154.606 557.717 152.566 582.601C155.482 576.787 163.488 568.43 168.387 563.98C184.406 549.43 201.449 531.456 205.925 509.359Z"/><path fill="#2A1D63" d="M224.023 411.776C231.816 396.112 250.453 382.43 266.717 377.1C279.66 372.858 287.023 373.151 300.013 372.61C304.744 371.891 309.826 369.057 314.651 369.249C320.484 369.48 326.636 370.637 331.903 373.359C355.02 385.307 357.821 411.619 359.6 434.389C368.984 451.626 374.381 469.949 368.851 489.711C371.618 492.952 374.961 496.593 377.073 500.225C377.064 501.911 379.815 505.124 380.911 509.46C386.527 524.076 390.575 532.101 390.056 548.242C377.515 548.34 359.975 549.096 347.416 551.038C336.867 548.283 333.252 544.025 332.039 533.115C319.484 529.346 308.254 524.669 298.486 515.455C295.566 512.701 292.608 509.527 288.572 508.62L287.808 509.73C287.837 512.514 288.153 518.641 286.097 520.7C283.144 526.963 287.797 539.612 284.05 546.698C280.602 553.218 273.932 557.02 267.59 560.236C238.383 572.44 216.478 578.276 203.707 610.502C198.005 624.892 193.826 638.99 189.264 653.753C182.117 676.383 175.393 699.144 169.095 722.024C159.873 713.974 156.823 712.088 153.532 700.251C150.473 698.86 148.538 697.9 145.643 696.207C133.987 690.213 128.859 673.593 130.128 661.355C131.623 646.927 138.578 636.5 149.417 627.354C144.897 613.064 144.679 600.173 149.34 585.884C150.985 580.841 150.773 574.692 153.08 569.671C165.62 542.207 196.63 530.027 205.84 499.709C214.347 471.707 205.622 437.13 224.023 411.776ZM205.925 509.359C201.311 514.993 197.166 524.025 192.497 529.24C177.67 545.801 154.606 557.717 152.566 582.601C155.482 576.787 163.488 568.43 168.387 563.98C184.406 549.43 201.449 531.456 205.925 509.359Z"/><path fill="#FEB78A" d="M317.047 385.53C333.343 393.278 345.201 404.9 352.393 421.589C354.671 425.412 357.277 431.377 359.6 434.389C368.984 451.626 374.381 469.949 368.851 489.711C371.618 492.952 374.961 496.593 377.073 500.225C377.064 501.911 379.815 505.124 380.911 509.46C386.527 524.076 390.575 532.101 390.056 548.242C377.515 548.34 359.975 549.096 347.416 551.038C336.867 548.283 333.252 544.025 332.039 533.115C319.484 529.346 308.254 524.669 298.486 515.455C295.566 512.701 292.608 509.527 288.572 508.62L287.808 509.73C286.968 507.887 284.855 504.438 283.761 502.54C280.495 501.888 278.452 501.641 275.141 501.335L272.864 502.82C264.491 501.752 259.147 498.931 255.468 490.858C253.782 487.16 253.419 482.147 255.101 478.373C256.286 475.649 258.595 473.573 261.43 472.683C267.726 470.701 272.15 473.343 277.604 476.045C286.41 467.431 287.087 461.134 288.11 449.494C308.677 425.313 312.677 417.02 317.047 385.53Z"/><path fill="#2A1D63" d="M368.851 489.711C371.618 492.952 374.961 496.593 377.073 500.225C377.064 501.911 379.815 505.124 380.911 509.46C386.527 524.076 390.575 532.101 390.056 548.242C377.515 548.34 359.975 549.096 347.416 551.038C336.867 548.283 333.252 544.025 332.039 533.115C331.399 527.851 331.489 522.233 331.619 516.939C354.123 516.332 361.788 509.93 368.851 489.711Z"/><path fill="#FA946C" d="M285.248 497.565C303.698 511.813 304.548 516.681 331.619 516.939C331.489 522.233 331.399 527.851 332.039 533.115C319.484 529.346 308.254 524.669 298.486 515.455C295.566 512.701 292.608 509.527 288.572 508.62L287.808 509.73C286.968 507.887 284.855 504.438 283.761 502.54C283.015 501.881 281.681 501.131 280.792 500.579C282.325 500.227 283.953 498.632 285.248 497.565Z"/><path fill="#D86A58" d="M275.141 501.335C272.412 495.967 278.159 489.904 273.208 484.468C269.359 480.243 267.745 482.579 263.995 481.093L264.498 480.31C273.077 478.452 275.947 485.15 277.648 491.816C276.758 494.202 275.717 495.903 276.482 498.176C277.969 499.774 278.653 499.82 280.792 500.579C281.681 501.131 283.015 501.881 283.761 502.54C280.495 501.888 278.452 501.641 275.141 501.335Z"/><path fill="#2A1D63" d="M339.549 426.008C340.761 418.042 346.342 416.759 352.393 421.589C350.541 422.627 348.841 421.434 346.992 421.614C343.288 421.974 343.688 425.407 339.549 426.008Z"/><path fill="#2A1D63" d="M320.253 444.385C329.14 446.19 329.746 455.196 322.981 460.683C314.566 457.451 313.539 450.196 320.253 444.385Z"/><path fill="#2A1D63" d="M350.84 434.91C360.634 434.789 359.981 441.76 356.34 448.58C348.607 448.149 347.757 440.769 350.84 434.91Z"/><path fill="#2A1D63" d="M314.174 429.084C318.867 428.707 319.773 428.792 324.427 429.593L325.154 430.669C319.039 432.405 316.461 430.902 310.768 434.666L310.142 435.085C308.277 437.482 307.76 439.841 306.016 442.544L305.218 442.07C303.518 435.857 309.236 431.495 314.174 429.084Z"/><path fill="#D86A58" d="M345.585 448.185C348.468 449.471 351.012 451.41 353.016 453.849C357.845 459.613 355.779 464.257 350.39 468.072L349.925 467.621C351.805 464.191 353.075 464.901 354.234 460.532C353.696 455.412 349.242 451.936 345.585 448.185Z"/><path fill="#D86A58" d="M354.086 478.588C353.197 485.206 341.433 485.546 336.407 484.451L336.335 483.887C337.361 482.593 339.58 483.769 342.04 483.688C347.154 483.52 350.253 481.541 354.086 478.588Z"/><path fill="#0F0931" d="M224.023 411.776L223.822 412.429C222.66 416.142 220.884 420.43 219.324 424.022C210.766 443.721 211.796 464.831 210.22 485.684C210.007 488.501 206.758 507.003 205.925 509.359C201.311 514.993 197.166 524.025 192.497 529.24C177.67 545.801 154.606 557.717 152.566 582.601C146.243 602.227 143.94 606.036 150.92 627.443C140.116 637.84 131.625 648.116 131.177 664.078C130.789 674.423 134.661 684.474 141.889 691.886C143.162 693.213 144.867 694.633 145.643 696.207C133.987 690.213 128.859 673.593 130.128 661.355C131.623 646.927 138.578 636.5 149.417 627.354C144.897 613.064 144.679 600.173 149.34 585.884C150.985 580.841 150.773 574.692 153.08 569.671C165.62 542.207 196.63 530.027 205.84 499.709C214.347 471.707 205.622 437.13 224.023 411.776Z"/><path fill="#845FE4" d="M275.141 501.335C278.452 501.641 280.495 501.888 283.761 502.54C284.855 504.438 286.968 507.887 287.808 509.73C287.837 512.514 288.153 518.641 286.097 520.7C283.288 522.915 281.101 524.497 277.251 524.258C274.105 524.065 271.183 522.564 269.194 520.119C264.062 513.77 267.251 507.268 272.864 502.82L275.141 501.335Z"/><path fill="#3D288B" d="M248.453 493.321C253.139 504.611 253.752 525.778 251.002 537.677L250.595 537.645C250.101 536.754 247.742 496.182 248.453 493.321Z"/><path fill="#FEB78A" d="M272.098 723.062C278.327 719.489 284.397 711.942 289.509 706.834C293.055 703.291 308.11 692.216 312.377 692.278L314.461 694.477C311.738 701.087 310.39 703.223 305.385 708.317C310.049 708.754 310.991 708.777 315.435 708.442C323.303 707.849 342.567 699.885 348.663 704.364C349.148 706.882 348.924 707.867 346.874 709.747L347.7 710.225L349.473 709.84C351.931 712.145 351.118 715.09 349.479 717.715L348.599 720.766C344.396 734.213 337.515 740.875 324.822 746.059C311.608 750.732 284.458 753.694 278.088 756.555L274.421 758.55C272.31 759.539 268.589 761.995 266.447 763.334C266.188 762.996 265.936 762.652 265.69 762.304C257.91 751.24 254.289 733.621 267.154 724.758C268.09 724.604 271.038 723.448 272.098 723.062Z"/><path fill="#FA946C" d="M348.599 720.766C345.061 719.894 332.958 729.283 320.914 728.988L321.152 728.257C337.14 724.119 334.004 724.908 349.479 717.715L348.599 720.766Z"/><path fill="#D86A58" d="M347.7 710.225C342.193 714.124 325.992 717.583 318.94 718.957C320.617 717.387 342.346 711.411 346.874 709.747L347.7 710.225Z"/><path fill="#FEB78A" d="M287.808 509.73L288.572 508.62C292.608 509.527 295.566 512.701 298.486 515.455C308.254 524.669 319.484 529.346 332.039 533.115C333.252 544.025 336.867 548.283 347.416 551.038C349.098 553.212 349.238 555.904 348.917 558.561C348.207 564.421 343.225 569.977 338.608 573.259C317.035 588.597 283.984 578.454 267.59 560.236C273.932 557.02 280.602 553.218 284.05 546.698C287.797 539.612 283.144 526.963 286.097 520.7C288.153 518.641 287.837 512.514 287.808 509.73Z"/><path fill="#2A1D63" d="M314.461 694.477C319.458 676.867 319.549 664.403 342.666 668.179C349.456 669.288 365.791 666.62 370.693 671.989C372.204 682.259 352.859 731.847 347.29 743.422C345.198 747.769 329.673 746.357 324.822 746.059C337.515 740.875 344.396 734.213 348.599 720.766L349.479 717.715C351.118 715.09 351.931 712.145 349.473 709.84L347.7 710.225L346.874 709.747C348.924 707.867 349.148 706.882 348.663 704.364C342.567 699.885 323.303 707.849 315.435 708.442C310.991 708.777 310.049 708.754 305.385 708.317C310.39 703.223 311.738 701.087 314.461 694.477Z"/><path fill="#582CBC" d="M243.164 690.96C246.601 676.92 251.739 653.028 256.061 640.319C257.652 659.879 266.575 702.989 272.098 723.062C271.038 723.448 268.09 724.604 267.154 724.758L266.569 724.576C260.662 722.675 252.488 725.632 244.308 723.834L239.278 723.856C237.977 723.525 236.81 723.027 235.551 722.55C238.216 712.051 240.754 701.521 243.164 690.96Z"/><path fill="#2A1D63" d="M243.164 690.96C244.377 692.235 246.848 694.855 247.515 696.378C249.667 701.286 254.944 719.315 250.85 723.473C248.52 723.679 246.647 723.796 244.308 723.834L239.278 723.856C237.977 723.525 236.81 723.027 235.551 722.55C238.216 712.051 240.754 701.521 243.164 690.96Z"/><path fill="#DACDFE" d="M304.278 757.315C329.718 759.05 363.153 761.275 387.409 753.527C388.7 757.4 390.517 763.45 392.112 767.024C366.403 775.893 337.18 776.227 310.268 774.909C305.274 774.665 294.684 774.048 290.303 773.221C294.694 769.954 302.599 765.461 305.474 761.48C305.834 758.833 306.005 759.912 304.278 757.315Z"/><path fill="#A388F3" d="M278.088 756.555C283.045 756.389 299.874 756.299 304.278 757.315C306.005 759.912 305.834 758.833 305.474 761.48C302.599 765.461 294.694 769.954 290.303 773.221C285.634 773.141 270.733 771.673 267.295 768.902C269.88 764.116 273.247 761.03 274.421 758.55L278.088 756.555Z"/><path fill="#582CBC" d="M211.426 721.433C216.765 720.434 222.662 720.483 228.07 720.91L228.448 719.885C222.646 708.66 212.911 712.922 204.57 707.416L204.125 706.418C206.568 704.48 213.882 703.875 216.954 704.214C221.637 704.777 225.886 707.232 228.713 711.007C231.417 714.661 232.797 720.019 234.447 722.067C227.601 721.384 218.387 721.453 211.426 721.433Z"/><path fill="#3D288B" d="M187.114 730.878C193.747 723.916 201.97 722.304 211.426 721.433C218.387 721.453 227.601 721.384 234.447 722.067L235.551 722.55C236.81 723.027 237.977 723.525 239.278 723.856L238.562 723.83C222.882 723.33 202.078 726.198 187.114 730.878Z"/><path fill="#582CBC" d="M481.713 536.462C483.931 535.833 487.851 532.025 489.75 530.328C487.878 533.303 487.203 533.87 487.988 537.179C489.67 544.271 495.103 550.969 498.996 557.285C493.901 553.734 490.995 552.209 487.089 547.417C483.125 542.553 483.913 540.042 481.713 536.462Z"/><path fill="#DACDFE" d="M251.671 774.787C255.306 772.594 263.389 766.305 266.356 765.803L266.334 768.697L267.295 768.902C270.733 771.673 285.634 773.141 290.303 773.221C294.684 774.048 305.274 774.665 310.268 774.909C337.18 776.227 366.403 775.893 392.112 767.024L392.34 767.671C418.562 824.382 420.834 887.368 418.762 948.703C416.242 1023.29 407.185 1097.76 395.624 1171.44C393.23 1186.77 390.435 1202.12 387.636 1217.37C385.925 1226.7 384.546 1237.57 382.147 1246.61C375.527 1254.7 339.907 1251.98 329.665 1250.76C323.528 1249.95 314.101 1248.81 308.49 1246.13C306.684 1245.27 306.894 1244.63 306.344 1242.75C305.837 1237.94 306.035 1228.09 306.03 1222.95C306.221 1200.2 307.308 1177.46 309.29 1154.8C313.359 1102.28 318.758 1049.91 318.131 997.187C317.952 982.134 318.774 964.982 317.283 950.192C310.346 981.815 302.18 1019.23 292.472 1050.01C279.843 1090.05 263.685 1131.94 249.037 1171.49C240.186 1195.39 229.875 1226.46 220.005 1249.39C201.268 1246.67 185.917 1242.18 168.128 1236.53C162.356 1234.31 145.269 1226.76 142.839 1221.73C144.236 1211.75 148.812 1196.62 151.687 1186.72C159.246 1161.4 167.325 1136.23 175.92 1111.25C180.341 1098.28 187.5 1080.82 190.227 1067.94C211.223 968.795 204.294 867.081 251.671 774.787Z"/><path fill="#B9A6FA" d="M251.671 774.787C255.306 772.594 263.389 766.305 266.356 765.803L266.334 768.697C265.945 770.928 265.368 771.931 266.156 773.736C271.64 770.743 281.815 773.414 287.955 774.622C286.321 783.275 248.509 816.395 244.699 828.915C222.852 900.714 217.611 976.614 206.866 1050.58C206.301 1054.47 202.454 1058.18 201.591 1062.1C200.69 1067.1 200.639 1074.47 199.716 1079.29C199.142 1082.29 196.158 1084.15 194.588 1089.62C186.195 1119.02 176.362 1147.98 169.354 1177.78C165.849 1192.69 165.62 1212.37 169.161 1227.25C170.064 1231.04 172.543 1233.82 168.128 1236.53C162.356 1234.31 145.269 1226.76 142.839 1221.73C144.236 1211.75 148.812 1196.62 151.687 1186.72C159.246 1161.4 167.325 1136.23 175.92 1111.25C180.341 1098.28 187.5 1080.82 190.227 1067.94C211.223 968.795 204.294 867.081 251.671 774.787Z"/><path fill="#B9A6FA" d="M333.172 884.4C342.448 876.704 346.283 871.629 354.258 863.295C340.046 899.398 340.54 910.645 339.458 949.804C338.972 969.727 338.136 989.641 336.951 1009.53C331.827 1092.07 316.285 1166.56 329.665 1250.76C323.528 1249.95 314.101 1248.81 308.49 1246.13C306.684 1245.27 306.894 1244.63 306.344 1242.75C305.837 1237.94 306.035 1228.09 306.03 1222.95C306.221 1200.2 307.308 1177.46 309.29 1154.8C313.359 1102.28 318.758 1049.91 318.131 997.187C317.952 982.134 318.774 964.982 317.283 950.192C317.037 944.516 323.74 922.157 325.443 916.425L326.7 910.403C328.372 903.494 331.072 890.742 333.172 884.4Z"/><path fill="#845FE4" d="M326.7 910.403C327.627 918.549 328.764 928.592 328.746 936.677L328.37 936.903C326.489 928.743 326.752 923.601 325.443 916.425L326.7 910.403Z"/><path fill="#845FE4" d="M392.112 767.024L392.34 767.671C379.121 773.093 364.381 775.172 350.204 776.49C351.066 801.745 350.62 816.831 347.349 841.875C346.489 831.842 348.433 823.88 348.85 814.216C349.358 802.461 349.147 788.063 348.007 776.302C329.31 778.034 306.613 776.906 287.955 774.622C281.815 773.414 271.64 770.743 266.156 773.736C265.368 771.931 265.945 770.928 266.334 768.697L267.295 768.902C270.733 771.673 285.634 773.141 290.303 773.221C294.684 774.048 305.274 774.665 310.268 774.909C337.18 776.227 366.403 775.893 392.112 767.024Z"/><path fill="#DACDFE" d="M678.997 1101.33C720.005 1100.5 761.244 1101.63 802.276 1101.14C806.147 1101.1 817.281 1100.49 819.591 1103.28C841.856 1130.23 862.307 1158.85 883.851 1186.41C885.702 1188.77 887.518 1192.47 888.638 1195.27C887.487 1201.67 878.28 1200.27 873.26 1200.15L873.07 1216.21C873.405 1229.47 872.706 1244.33 873.361 1257.13L874.008 1257.06L874.459 1257.2C881.406 1259.36 887.836 1258.83 891.981 1266.31C895.563 1272.78 894.246 1278.74 894.168 1285.68C894.165 1285.89 895.244 1286.32 895.189 1286.31C902.24 1286.86 905.163 1285.68 910 1291.65C916.309 1299.44 915.361 1309.95 903.612 1310.69C896.1 1311.15 888.556 1310.77 881.026 1310.83C876.763 1310.87 872.452 1310.82 868.187 1310.82L793.155 1310.83C780.145 1310.79 760.854 1310.18 748.175 1311.07C746.679 1310.76 744.056 1310.96 742.447 1311.01C733.407 1310.42 720.814 1310.78 711.515 1310.76L709.034 1310.96L666.331 1311.01L660.967 1310.94C646.463 1310.66 631.956 1310.57 617.45 1310.68C616.799 1286.12 617.671 1261.17 617.301 1236.56C617.119 1224.51 617.154 1212.05 617.412 1200L616.921 1199.93C612.089 1200.48 608.893 1201.39 604.812 1198.69C603.549 1196.86 603.26 1196.7 603.317 1194.6C607.115 1187.4 616.05 1177.3 621.524 1170.69L649.665 1136.72C655.159 1130 674.212 1105.56 678.997 1101.33Z"/><path fill="#582CBC" d="M678.997 1101.33C720.005 1100.5 761.244 1101.63 802.276 1101.14C806.147 1101.1 817.281 1100.49 819.591 1103.28C841.856 1130.23 862.307 1158.85 883.851 1186.41C885.702 1188.77 887.518 1192.47 888.638 1195.27C887.487 1201.67 878.28 1200.27 873.26 1200.15C869.34 1200.52 847.357 1200.78 844.638 1200.4C832.023 1198.66 764.962 1203.16 756.591 1198.96C752.391 1193.1 740.67 1180.55 735.399 1174.42L689.493 1121.04C688.373 1123.97 676.89 1135.89 674.153 1138.95C664.447 1149.87 654.852 1160.89 645.37 1172.01C641.763 1176.28 623.11 1199.69 619.982 1201.7L617.412 1200L616.921 1199.93C612.089 1200.48 608.893 1201.39 604.812 1198.69C603.549 1196.86 603.26 1196.7 603.317 1194.6C607.115 1187.4 616.05 1177.3 621.524 1170.69L649.665 1136.72C655.159 1130 674.212 1105.56 678.997 1101.33Z"/><path fill="#B9A6FA" d="M683.976 1114.72L689.493 1121.04C688.373 1123.97 676.89 1135.89 674.153 1138.95C664.447 1149.87 654.852 1160.89 645.37 1172.01C641.763 1176.28 623.11 1199.69 619.982 1201.7L617.412 1200L616.921 1199.93L616.716 1198.6L615.131 1198.09C615.742 1195.83 677.308 1122.71 683.976 1114.72Z"/><path fill="#6D3DD2" d="M706.508 1112.95L811.343 1112.93C812.824 1114.24 818.096 1119.08 818.918 1120.3C825.329 1129.82 867.769 1178.24 868.319 1184.06L766.644 1183.83C751.541 1167.07 737.245 1148.75 722.051 1131.99C716.986 1126.41 710.519 1119.24 706.508 1112.95Z"/><path fill="#B9A6FA" d="M756.591 1198.96C764.962 1203.16 832.023 1198.66 844.638 1200.4C847.357 1200.78 869.34 1200.52 873.26 1200.15L873.07 1216.21C873.405 1229.47 872.706 1244.33 873.361 1257.13L874.008 1257.06L874.459 1257.2C881.406 1259.36 887.836 1258.83 891.981 1266.31C895.563 1272.78 894.246 1278.74 894.168 1285.68C894.165 1285.89 895.244 1286.32 895.189 1286.31C902.24 1286.86 905.163 1285.68 910 1291.65C916.309 1299.44 915.361 1309.95 903.612 1310.69C896.1 1311.15 888.556 1310.77 881.026 1310.83C876.763 1310.87 872.452 1310.82 868.187 1310.82L793.155 1310.83C780.145 1310.79 760.854 1310.18 748.175 1311.07C746.679 1310.76 744.056 1310.96 742.447 1311.01C733.407 1310.42 720.814 1310.78 711.515 1310.76C715.848 1309.8 749.698 1310.19 756.625 1310.16C754.924 1305.06 756.041 1221.55 756.038 1208.89C756.033 1204.99 756.013 1202.8 756.591 1198.96Z"/><path fill="#845FE4" d="M873.361 1257.13L874.008 1257.06L874.459 1257.2C881.406 1259.36 887.836 1258.83 891.981 1266.31C895.563 1272.78 894.246 1278.74 894.168 1285.68C894.165 1285.89 895.244 1286.32 895.189 1286.31C902.24 1286.86 905.163 1285.68 910 1291.65C916.309 1299.44 915.361 1309.95 903.612 1310.69C896.1 1311.15 888.556 1310.77 881.026 1310.83C876.763 1310.87 872.452 1310.82 868.187 1310.82L793.155 1310.83C780.145 1310.79 760.854 1310.18 748.175 1311.07C746.679 1310.76 744.056 1310.96 742.447 1311.01C733.407 1310.42 720.814 1310.78 711.515 1310.76C715.848 1309.8 749.698 1310.19 756.625 1310.16L807.646 1310.17C802.145 1293.09 810.265 1289.71 825.319 1290.13C828.744 1287.92 828.684 1264.63 853.491 1280.04C855.265 1264.34 858.733 1261.57 873.361 1257.13Z"/><path fill="#A388F3" d="M756.591 1198.96C764.962 1203.16 832.023 1198.66 844.638 1200.4C847.357 1200.78 869.34 1200.52 873.26 1200.15L873.07 1216.21C872.598 1214.55 872.152 1211.93 871.789 1210.16C871.581 1209.95 871.372 1209.74 871.163 1209.54C839.106 1209.58 786.052 1210.53 756.038 1208.89C756.033 1204.99 756.013 1202.8 756.591 1198.96Z"/><path fill="#845FE4" d="M794.633 1224.8L840.062 1224.78C840.198 1239.25 840.185 1253.73 840.022 1268.2C825.301 1268.54 809.415 1268.23 794.601 1268.23C794.495 1253.75 794.506 1239.27 794.633 1224.8Z"/><path fill="#582CBC" d="M660.967 1310.94C663.106 1306.77 660.645 1289.26 661.668 1284.09C662.987 1277.42 657.99 1226.19 665.263 1225.42C676.206 1224.25 694.677 1224.35 706.125 1225.68C708.987 1225.97 709.112 1232.99 709.104 1235.71C709.03 1260.78 708.917 1285.87 709.034 1310.96L666.331 1311.01L660.967 1310.94Z"/><path fill="#3D288B" d="M697.432 1264.16C698.361 1263.5 699.573 1263.4 700.599 1263.9C701.625 1264.39 702.303 1265.4 702.369 1266.54C702.435 1267.67 701.88 1268.75 700.919 1269.36C699.484 1270.27 697.585 1269.87 696.639 1268.46C695.693 1267.05 696.045 1265.14 697.432 1264.16Z"/><path fill="#6D3DD2" d="M610.551 189.515C607.074 164.171 609.108 143.013 625.049 121.756C649.734 88.8359 697.429 81.9945 729.864 107.433C755.865 127.826 765.11 158.089 758.955 189.818C758.363 192.868 757.555 195.894 756.947 198.947C756.106 201.446 755.232 203.934 754.327 206.41C750.9 215.675 746.83 224.69 742.148 233.389C735.927 244.8 694.632 310.714 685.696 314.842C684.665 314.759 683.97 314.614 683.077 314.054C672.675 307.517 630.737 239.341 623.454 224.411C617.909 213.043 613.825 201.721 610.551 189.515ZM688.931 205.025C708.526 202.645 722.49 184.847 720.134 165.253C717.777 145.66 699.992 131.678 680.391 134.009C660.755 136.344 646.739 154.163 649.1 173.791C651.46 193.419 669.301 207.409 688.931 205.025Z"/><path fill="#582CBC" d="M321.715 1277.83C333.431 1279.47 348.839 1280.31 360.587 1279.12C360.357 1283.44 360.193 1286.78 360.374 1291.08C360.565 1294.45 360.386 1297.89 362.111 1300.7C362.813 1300.9 363.76 1301.21 364.482 1301.33C371.143 1302.56 374.326 1309.4 377.428 1314.77L380.977 1317.54C386.49 1324.64 392.624 1326.36 395.907 1331.08L397.165 1332.6C399.509 1333.88 402.481 1335.37 404.575 1336.95C412.203 1342.89 425.124 1345.1 434.223 1350.96C435.749 1353.12 436.242 1354.56 435.793 1357.07C426.274 1366.58 321.028 1355.31 307.999 1347.83C308.078 1343.82 308.719 1339.27 309.185 1335.24C311.11 1326.6 311.185 1313.32 315.468 1305.53C316.489 1303.67 318.401 1303.31 320.376 1302.93L321.965 1301.72C322.546 1297.93 322.001 1292.22 321.773 1288.25C321.888 1284.07 321.942 1282.3 321.303 1278.21L321.715 1277.83Z"/><path fill="#FEB78A" d="M321.715 1277.83C333.431 1279.47 348.839 1280.31 360.587 1279.12C360.357 1283.44 360.193 1286.78 360.374 1291.08C360.565 1294.45 360.386 1297.89 362.111 1300.7C362.813 1300.9 363.76 1301.21 364.482 1301.33C354.526 1302.74 351.7 1303.24 345.278 1311.64C343.416 1314.07 341.459 1317.7 338.22 1317.87C335.37 1318.02 330.894 1315.83 328.662 1314.22C325.414 1310.95 322.633 1308.27 319.835 1304.57L320.376 1302.93L321.965 1301.72C322.546 1297.93 322.001 1292.22 321.773 1288.25C321.888 1284.07 321.942 1282.3 321.303 1278.21L321.715 1277.83Z"/><path fill="#FA946C" d="M321.715 1277.83C333.431 1279.47 348.839 1280.31 360.587 1279.12C360.357 1283.44 360.193 1286.78 360.374 1291.08C350.244 1289.44 340.356 1290.79 329.881 1289.94C329.947 1296.37 330.062 1307.92 328.662 1314.22C325.414 1310.95 322.633 1308.27 319.835 1304.57L320.376 1302.93L321.965 1301.72C322.546 1297.93 322.001 1292.22 321.773 1288.25C321.888 1284.07 321.942 1282.3 321.303 1278.21L321.715 1277.83Z"/><path fill="#DACDFE" d="M377.428 1314.77L380.977 1317.54C386.49 1324.64 392.624 1326.36 395.907 1331.08C395.327 1331.01 394.983 1331.06 394.591 1330.76C391.623 1328.49 382.169 1329.21 379.662 1331.82C376.583 1335.03 372.891 1339.83 367.757 1340.69C366.165 1339.64 366.722 1340.36 366.264 1338.29C368.14 1329.32 381.55 1327.31 384.064 1324.74C383.988 1322.09 384.33 1323.1 382.953 1320.81C375.991 1316.86 362.893 1329.24 358.312 1329.33L357.788 1328.29C359.675 1319.72 370.019 1316.82 377.428 1314.77Z"/><path fill="#DACDFE" d="M397.165 1332.6C399.509 1333.88 402.481 1335.37 404.575 1336.95C396.595 1337.18 383.035 1345.96 379.864 1344.35L379.856 1342.89C383.111 1337.76 391.503 1334.21 397.165 1332.6Z"/><path fill="#582CBC" d="M151.678 1259.84C160.02 1263.17 166.104 1265.31 174.837 1267.5C176.998 1268.04 188.828 1270.84 190.363 1271.47C188.617 1277.4 184.814 1289.9 183.964 1295.57L183.358 1298.04C184.054 1300.36 184.898 1301.41 186.369 1303.32C188.437 1314 183.589 1328.12 187.4 1345.7C188.191 1348.82 191.743 1360.37 187.9 1362.21C175.003 1368.41 156.188 1365.27 142.266 1363.73C137.217 1363.17 127.602 1360.57 124.327 1356.04C120.412 1349.06 125.215 1329.4 127.263 1322.03C129.71 1312.46 134.315 1302.7 138.54 1293.82C140.655 1291.97 141.822 1291.69 144.393 1290.74C148.019 1284.74 150.553 1267.09 151.043 1259.97L151.678 1259.84Z"/><defs><linearGradient id="gradient_0" gradientUnits="userSpaceOnUse" x1="167.95308" y1="1262.2891" x2="165.72383" y2="1306.5288"><stop offset="0" stop-color="#FC8F6A"/><stop offset="1" stop-color="#FFCB9D"/></linearGradient></defs><path fill="url(#gradient_0)" d="M151.678 1259.84C160.02 1263.17 166.104 1265.31 174.837 1267.5C176.998 1268.04 188.828 1270.84 190.363 1271.47C188.617 1277.4 184.814 1289.9 183.964 1295.57L183.358 1298.04C182.386 1300.87 181.792 1306.96 179.7 1308.79C177.09 1296.16 173.618 1291.36 159.041 1294.62C152.268 1296.13 149.277 1299.94 145.993 1305.87C145.291 1300.97 144.874 1295.69 144.393 1290.74C148.019 1284.74 150.553 1267.09 151.043 1259.97L151.678 1259.84Z"/><path fill="#DACDFE" d="M151.171 1322.47C157.821 1322.06 172.214 1322.45 174.916 1330.1L173.694 1331.22C171.011 1331.54 168.571 1329.97 165.983 1328.77C159.035 1326.73 143.742 1329.67 140.552 1326.73L141.19 1325.52C144.351 1323.09 147.204 1323.04 151.171 1322.47Z"/><path fill="#DACDFE" d="M150.424 1334.46C157.682 1333.94 170.076 1332.86 175.23 1339.23L174.83 1340.51C172.26 1341.51 169.382 1340.32 166.512 1339.59C156.837 1338.26 151.958 1340.1 142.655 1340.37C140.833 1340.43 140.47 1340.17 139.571 1339.15C142.506 1334.99 145.661 1335.19 150.424 1334.46Z"/><path fill="#DACDFE" d="M150.62 1310.47C157.026 1309.95 170.831 1308.91 175.373 1316.5C175.954 1317.47 175.476 1317.7 174.971 1318.77C172.233 1319.3 172.428 1318.8 169.538 1317.44C162.767 1315.2 144.803 1316.82 142.875 1314.35C144.576 1310.77 147.04 1310.93 150.62 1310.47Z"/><path fill="#A388F3" d="M550.215 1251.8C542.157 1229.68 538.344 1210.95 548.704 1188.5C551.343 1182.79 563.523 1162.55 570.107 1163.01C576.306 1169.72 578.288 1190.2 577.881 1199.62C576.705 1226.85 565.758 1233.99 553.768 1252.52C548.141 1282.2 579.799 1300.85 580.727 1308.98C578.96 1309.19 578.04 1308.4 576.452 1307.51C568.62 1299.26 552.192 1274.03 541.758 1273.12C527.687 1271.95 516.458 1269.73 503.639 1263.85C489.172 1255.39 480.546 1246.55 472.907 1231.75C471.055 1228.16 469.1 1224.84 470.347 1220.85C477.637 1213.04 506.596 1226.06 514.573 1230.4C531.182 1243.39 536.306 1253.07 547.517 1270.41C550.318 1272.63 553.099 1276.14 555.469 1278.91C551.668 1266.53 547.021 1261.88 541.07 1250.64C535.928 1240.93 532.776 1230.75 529.742 1220.25L531.043 1217.94C534.043 1226.96 536.994 1236.03 540.856 1244.72C544.18 1252.2 548.248 1259.35 551.597 1266.8C550.978 1261.58 550.455 1257.07 550.215 1251.8Z"/><path fill="#A388F3" d="M503.639 1263.85C489.172 1255.39 480.546 1246.55 472.907 1231.75C471.055 1228.16 469.1 1224.84 470.347 1220.85C477.637 1213.04 506.596 1226.06 514.573 1230.4C531.182 1243.39 536.306 1253.07 547.517 1270.41L546.988 1271.56C543.346 1271.42 514.054 1243.88 510.521 1244.71C513.383 1247.69 518.088 1250.59 521.573 1253.39C528.994 1259.42 536.302 1265.58 543.492 1271.88L543.33 1272.68L541.758 1273.12C527.687 1271.95 516.458 1269.73 503.639 1263.85Z"/><path fill="#3D288B" d="M550.215 1251.8L551.744 1251.98C553.458 1245.73 558.198 1203.3 560.507 1200.5C560.715 1205.52 558.051 1212.7 558.107 1218.62C558.165 1224.68 551.549 1247.87 553.768 1252.52C548.141 1282.2 579.799 1300.85 580.727 1308.98C578.96 1309.19 578.04 1308.4 576.452 1307.51C568.62 1299.26 552.192 1274.03 541.758 1273.12L543.33 1272.68L543.492 1271.88C536.302 1265.58 528.994 1259.42 521.573 1253.39C518.088 1250.59 513.383 1247.69 510.521 1244.71C514.054 1243.88 543.346 1271.42 546.988 1271.56L547.517 1270.41C550.318 1272.63 553.099 1276.14 555.469 1278.91C551.668 1266.53 547.021 1261.88 541.07 1250.64C535.928 1240.93 532.776 1230.75 529.742 1220.25L531.043 1217.94C534.043 1226.96 536.994 1236.03 540.856 1244.72C544.18 1252.2 548.248 1259.35 551.597 1266.8C550.978 1261.58 550.455 1257.07 550.215 1251.8Z"/><path fill="#FEB78A" d="M649.406 392.808C653.075 398.219 656.847 396.688 658.394 398.942C658.909 402.947 657.496 406.064 654.899 409.107C642.396 423.757 627.384 435.912 610.559 445.25C605.131 448.262 593.554 454.234 589.564 458.056C585.247 462.192 577.424 478.705 576.157 484.6C566.524 478.878 557.113 472.791 547.945 466.35C564.388 451.78 569.941 426.084 586.008 411.226C589.223 408.252 599.981 396.379 603.497 395.181C614.047 398.226 601.956 413.481 598.721 417.66C614.355 411.385 637.432 396.49 649.406 392.808Z"/><path fill="#FA946C" d="M596.932 427.447C600.087 427.385 600.991 427.353 604.211 428.012C602.838 428.85 599.072 428.732 597.247 428.8C595.044 429.886 593.223 431.19 590.94 430.82C592.174 428.95 594.696 428.335 596.932 427.447Z"/><path fill="#A388F3" d="M492.26 1110.52C520.86 1122.78 538.668 1172.2 532.572 1200.56C531.763 1204.33 530.928 1214.15 531.043 1217.94L529.742 1220.25L529.248 1219.19L527.754 1217.25C525.08 1215.1 522.186 1213.17 519.364 1211.21C516.55 1208.84 513.753 1206.43 510.957 1204.04C485.492 1182.21 478.307 1140.61 492.26 1110.52Z"/><path fill="#3D288B" d="M527.754 1217.25C523.101 1203.22 514.316 1182.29 511.072 1168.64C514.541 1175.72 528.717 1212.36 529.248 1219.19L527.754 1217.25Z"/><path fill="#DACDFE" d="M142.839 1221.73C145.269 1226.76 162.356 1234.31 168.128 1236.53C185.917 1242.18 201.268 1246.67 220.005 1249.39L220.038 1250.16C223.303 1255.44 218.34 1270.62 213.112 1274.44C207.787 1276.03 195.814 1273.04 190.363 1271.47C188.828 1270.84 176.998 1268.04 174.837 1267.5C166.104 1265.31 160.02 1263.17 151.678 1259.84L151.043 1259.97C134.268 1252.49 130.805 1249.3 138.714 1230.89C139.994 1227.92 142.005 1224.74 142.839 1221.73Z"/><defs><linearGradient id="gradient_1" gradientUnits="userSpaceOnUse" x1="204.60011" y1="1224.0502" x2="142.32314" y2="1258.5839"><stop offset="0" stop-color="#8666EF"/><stop offset="1" stop-color="#C5B1FC"/></linearGradient></defs><path fill="url(#gradient_1)" d="M142.839 1221.73C145.269 1226.76 162.356 1234.31 168.128 1236.53C185.917 1242.18 201.268 1246.67 220.005 1249.39L220.038 1250.16C202.777 1250.11 174.481 1241.38 158.455 1235.19C156.236 1241.51 152.645 1253.35 151.678 1259.84L151.043 1259.97C134.268 1252.49 130.805 1249.3 138.714 1230.89C139.994 1227.92 142.005 1224.74 142.839 1221.73Z"/><path fill="#DACDFE" d="M306.344 1242.75C306.894 1244.63 306.684 1245.27 308.49 1246.13C314.101 1248.81 323.528 1249.95 329.665 1250.76C339.907 1251.98 375.527 1254.7 382.147 1246.61L383.008 1248.1C385.91 1264.86 386.985 1275.66 367.259 1278.28C365.036 1278.57 362.812 1278.85 360.587 1279.12C348.839 1280.31 333.431 1279.47 321.715 1277.83L321.303 1278.21C313.19 1276.9 306.946 1276.07 299.984 1271.58C299.842 1266.75 300.926 1248.77 304.871 1246.52C305.767 1245 305.869 1244.4 306.344 1242.75Z"/><path fill="#B9A6FA" d="M299.984 1271.58C299.842 1266.75 300.926 1248.77 304.871 1246.52C310.621 1248.86 316.626 1250.5 322.763 1251.43C321.914 1257.83 321 1271.47 321.715 1277.83L321.303 1278.21C313.19 1276.9 306.946 1276.07 299.984 1271.58Z"/><path fill="#A388F3" d="M306.344 1242.75C306.894 1244.63 306.684 1245.27 308.49 1246.13C314.101 1248.81 323.528 1249.95 329.665 1250.76C339.907 1251.98 375.527 1254.7 382.147 1246.61L383.008 1248.1C372.367 1255.57 339.972 1254.67 327.089 1252.42C325.631 1252.16 324.188 1251.83 322.763 1251.43C316.626 1250.5 310.621 1248.86 304.871 1246.52C305.767 1245 305.869 1244.4 306.344 1242.75Z"/><path fill="#A388F3" d="M592.092 1235.16C593.189 1235.29 594.209 1235.13 594.973 1236C596.672 1237.92 596.565 1242.95 596.683 1245.42C598.178 1276.78 573.581 1285.2 573.35 1296.6L572.817 1296.58C572.51 1295.92 572.228 1295.26 571.97 1294.58C562.952 1271.4 566.124 1244.66 592.092 1235.16Z"/><path fill="#845FE4" d="M577.548 1269.5L578.308 1270.54C575.824 1277.03 576.227 1279.51 574.933 1285.85L573.802 1284.65C573.903 1277.53 574.615 1276.21 577.548 1269.5Z"/><path fill="#6D3DD2" d="M683.078 326.757C687.851 325.867 692.733 327.622 695.845 331.347C698.958 335.072 699.816 340.188 698.09 344.724C696.363 349.261 692.321 352.512 687.519 353.228C680.28 354.305 673.512 349.388 672.301 342.172C671.09 334.956 675.884 328.1 683.078 326.757Z"/><path fill="#03020D" fill-opacity="0.96862745" d="M377.073 500.225C388.258 511.415 400.877 531.949 394.586 548.355L393.384 548.165C395.142 532.664 392.261 520.766 380.911 509.46C379.815 505.124 377.064 501.911 377.073 500.225Z"/><path fill="#845FE4" d="M601.447 693.059C606.576 698.86 591.173 703.576 587.632 704.519C583.806 698.553 597.443 694.471 601.447 693.059Z"/><path fill="#845FE4" d="M653.266 940.364C657.865 940.263 666.916 940.773 669.786 944.628L669.253 947.233C663.882 947.27 652.614 947.603 653.266 940.364Z"/><path fill="#845FE4" d="M753.941 317.113C759.371 317.1 769.96 317.228 770.914 323.645C766.669 324.291 758.556 323.966 754.945 321.29C753.645 320.326 754.003 318.656 753.941 317.113Z"/><path fill="#845FE4" d="M847.937 352.846C855.122 353.798 860.856 359.877 861.535 367.108C856.322 365.356 847.292 359.095 847.937 352.846Z"/><path fill="#6D3DD2" d="M704.443 312.196C708.106 312.239 715.657 311.73 718.08 314.462C717.843 316.749 718.067 315.931 716.023 317.916C713.755 317.991 711.486 318.044 709.217 318.075C706.019 318.108 704.365 318.325 702.161 316.158C702.524 313.686 702.471 314.408 704.443 312.196Z"/><path fill="#845FE4" d="M858.767 459.265C860.492 459.949 859.762 459.441 860.988 460.914C861.085 466.29 854.701 471.862 850.835 475.017C849.723 474.324 849.701 474.106 848.794 473.075C848.628 469.333 856.024 462.262 858.767 459.265Z"/><path fill="#845FE4" d="M780.493 322.364C783.963 322.355 792.46 323.858 795.196 326.189C796.99 327.717 796.537 327.605 796.856 329.988C792.576 330.338 784.282 329.299 780.957 326.279C779.764 325.195 780.33 323.857 780.493 322.364Z"/><path fill="#845FE4" d="M728.476 313.706C733.164 313.975 740.319 313.808 743.844 316.667C744.157 318.925 744.289 318.007 742.948 320.196C738.744 319.86 728.984 320.075 727.234 316.257L728.476 313.706Z"/><path fill="#845FE4" d="M678.979 944.71C682.476 944.726 691.871 945.822 694.247 948.532C695.348 949.787 694.964 950.158 695.063 952.197C690.965 952.253 683.136 951.672 679.921 948.786C678.57 947.573 678.996 946.706 678.979 944.71Z"/><path fill="#845FE4" d="M602.887 932.219C607.883 932.038 618.892 932.809 620.89 938.219C617.045 939.642 610.986 939.183 607.284 937.436C603.784 935.785 604.002 935.288 602.887 932.219Z"/><path fill="#845FE4" d="M806.033 328.907C809.955 330.155 817.353 331.985 819.929 334.973C821.421 336.704 820.925 337.003 820.734 339.393C817.106 338.245 807.701 336.017 805.563 332.602C805.007 331.715 805.701 330.224 806.033 328.907Z"/><path fill="#845FE4" d="M827.746 339.705C832.128 339.722 836.999 341.804 840.376 344.622C842.844 346.683 842.395 347.743 842.508 350.67C837.652 349.754 828.347 345.317 827.746 339.705Z"/><path fill="#845FE4" d="M629.551 935.848C634.469 936.887 642.047 936.54 644.92 940.495L644.454 942.632C639.819 942.803 634.226 943.04 630.273 940.683C628.732 938.117 629.034 939.329 629.551 935.848Z"/><path fill="#845FE4" d="M577.293 706.412C578.259 706.325 579.295 706.497 580.281 706.596L581.03 707.705C580.077 711.625 573.58 715.06 570.049 717.286L567.65 716.789L567.002 715.527C567.953 711.7 573.901 708.566 577.293 706.412Z"/><path fill="#845FE4" d="M746.708 967.094C751.584 968.297 761.913 971.73 760.137 977.983C757.164 977.664 750.575 974.856 748.386 972.553C746.148 970.198 746.724 970.325 746.708 967.094Z"/><path fill="#845FE4" d="M725.223 957.955C730.755 958.918 739.679 960.976 739.336 967.56C734.316 967.472 724.445 964.38 725.223 957.955Z"/><path fill="#845FE4" d="M819.881 494.197C821.083 494.183 820.992 494.303 822.196 494.694L822.288 496.229C820.01 500.103 813.707 502.642 809.669 504.434L807.615 503.186L807.322 501.816C809.248 498.388 816.134 495.852 819.881 494.197Z"/><path fill="#845FE4" d="M537.342 909.469C540.612 910.147 546.927 913.117 549.452 915.508C551.8 917.731 551.301 917.638 551.425 920.595C547.767 920.548 541.705 917.354 539.064 914.724C536.816 912.485 537.271 912.208 537.342 909.469Z"/><path fill="#845FE4" d="M580.207 927.201C586.413 928.232 594.554 927.296 595.032 934.624C591.391 934.373 583.538 933.952 580.926 931.258C579.627 929.919 580.097 929.171 580.207 927.201Z"/><path fill="#845FE4" d="M839.933 480.522C840.856 480.634 841.772 480.898 842.682 481.119L843.209 482.552C841.469 486.487 835.927 489.495 832.312 491.78C830.805 491.409 830.838 491.369 829.5 490.554L829.654 488.79C831.777 485.795 836.767 482.729 839.933 480.522Z"/><path fill="#845FE4" d="M519.369 895.284C523.978 896.754 531.992 902.618 531.509 908.137C526.216 906.731 517.346 901.766 519.369 895.284Z"/><path fill="#845FE4" d="M702.207 951.05C707.841 950.126 716.33 951.836 718.339 957.904C712.898 959.613 704.657 956.589 702.207 951.05Z"/><path fill="#845FE4" d="M863.399 370.089C869.545 370.994 874.644 379.477 873.372 385.249C868.919 384.249 863.167 374.527 863.399 370.089Z"/><path fill="#845FE4" d="M765.596 980.699C771.757 981.744 777.658 987.204 778.729 993.487C772.356 992.839 766.704 986.934 765.596 980.699Z"/><path fill="#845FE4" d="M779.981 998.626C787.241 1000.32 790.286 1006.84 789.982 1013.83C788.51 1012.97 787.165 1011.91 785.986 1010.68C783.174 1007.7 779.835 1002.88 779.981 998.626Z"/><path fill="#845FE4" d="M558.466 719.046C558.909 719.414 559.725 720.345 560.158 720.808L559.951 722.636C557.533 726.385 553.272 728.994 549.458 731.217L547.927 729.677L548.057 727.839C550.731 723.593 554.2 721.544 558.466 719.046Z"/><path fill="#845FE4" d="M557.281 920.328C562.857 919.657 571.572 921.405 572.438 927.917C567.38 928.763 559.163 925.597 557.281 920.328Z"/><path fill="#845FE4" d="M870.491 437.429L872.848 438.451L873.334 440.146C872.589 445.129 869.913 448.582 866.997 452.635C865.439 452.671 866.029 452.697 864.477 451.984C863.625 448.182 868.393 441.208 870.491 437.429Z"/><path fill="#845FE4" d="M783.99 1085.65C786.225 1086.67 785.954 1087.4 786.096 1089.34C784.303 1094.02 781.182 1096.34 777.138 1099.05L775.646 1098.66L775.257 1097.34C776.859 1092.78 780.645 1089.04 783.99 1085.65Z"/><path fill="#845FE4" d="M877.361 414.273C882.92 417.251 878.997 426.366 877.199 430.85C875.494 429.889 875.562 429.95 874.327 428.434C873.511 423.2 875.533 419.192 877.361 414.273Z"/><path fill="#845FE4" d="M540.705 733.937L542.65 734.431L543.347 735.735C542.768 739.253 536.861 743.984 534.034 746.515C528.799 741.413 536.427 737.367 540.705 733.937Z"/><path fill="#845FE4" d="M494.825 855.332C499.623 857.539 502.229 865.926 500.299 870.65C495.496 868.186 492.226 860.27 494.825 855.332Z"/><path fill="#845FE4" d="M873.617 391.663C879.714 393.483 880.168 401.734 879.772 407.056C877.366 407.185 878.45 407.486 876.439 406.034C873.813 401.182 873.923 397.181 873.617 391.663Z"/><path fill="#845FE4" d="M502.567 876.263C509.185 877.977 511.272 883.232 513.806 889.087C506.541 889.26 503.807 882.507 502.567 876.263Z"/><path fill="#845FE4" d="M794.626 1042.71C800.274 1045.52 797.77 1053.26 796.267 1058.06C793.735 1057.64 794.734 1058.22 793.108 1056.37C792.048 1051.73 792.782 1047.05 794.626 1042.71Z"/><path fill="#845FE4" d="M526.116 749.682L528.123 750.497L528.503 752.172C527.093 755.487 523.109 759.478 520.593 762.295C518.334 760.927 518.961 761.736 518.087 759.402C519.126 755.067 522.732 752.297 526.116 749.682Z"/><path fill="#845FE4" d="M792.554 1065.27C797.685 1069.14 793.543 1076.43 790.457 1080.44C788.275 1079.05 788.999 1079.97 788.045 1077.74C788.33 1072.74 790.094 1069.58 792.554 1065.27Z"/><path fill="#845FE4" d="M501.677 787.051L503.017 787.833C504.603 791.88 500.322 798.747 498.047 802.07C497.54 801.828 496.729 801.176 496.238 800.816C495.038 795.798 498.377 790.597 501.677 787.051Z"/><path fill="#845FE4" d="M491.139 831.675C492.922 832.029 493.584 832.018 495.051 833.133C496.526 836.374 496.257 841.823 496.426 845.653C494.354 845.614 493.793 846.036 492.66 844.919C490.311 842.603 491.067 835.241 491.139 831.675Z"/><path fill="#845FE4" d="M493.838 808.614C499.826 810.478 496.879 818.388 495.541 822.852L492.954 822.656C490.03 819.448 492.685 812.29 493.838 808.614Z"/><path fill="#845FE4" d="M512.034 766.906C513.737 768.172 513.119 767.37 513.842 769.473C512.731 774.509 510.16 777.408 507.084 781.534C502.563 776.21 508.258 770.902 512.034 766.906Z"/><path fill="#845FE4" d="M790.556 1019.8C792.089 1020.7 793.386 1021.95 794.339 1023.46C796.553 1026.88 796.888 1031.61 796.069 1035.54C790.967 1033.8 789.51 1024.18 790.556 1019.8Z"/><path fill="#3D288B" fill-opacity="0.2" d="M143.824 1379.57C149.714 1378.3 165.431 1379.09 171.413 1380.39C161.785 1380.72 153.353 1381.13 143.824 1379.57Z"/></svg>