<svg xmlns="http://www.w3.org/2000/svg" width="1024" height="1536" viewBox="0 0 1024 1536"><path fill="#b4a5fb" d="M884.042 602.535c4.02.918 72.727 1.187 75.282.05 19.163-1.044 45.036-.283 64.676-.287v645.412l-2.83.07c-61.395.99-125.269.05-186.934.05l-55.071.02c-10.03 0-21.128.87-31.018-.75-1.884-.31-3.436-.4-4.503-2.23-2.293-3.91-.998-93.72-1-108.83l-.058-377.403-.001-102.204c.003-11.534-.711-42.166 1.16-52.487 7.289-3.12 125.105-2.347 140.297-1.411"/><defs><linearGradient id="a" x1="896.169" x2="887.767" y1="815.273" y2="616.477" gradientUnits="userSpaceOnUse"><stop offset="0" stop-color="#7d66dc"/><stop offset="1" stop-color="#9283e7"/></linearGradient></defs><path fill="url(#a)" d="M1024 620.599v191.546c-36.741-.38-74.352-.011-111.127.11-42.171.676-84.877-.037-127.082-.131-3.185-.008-4.471-.933-6.649-3.179-4.608 4.909-10.679 3.393-17.124 3.171l-.016-191.762c86.418 1.187 175.387.184 261.998.245"/><path fill="#35296b" d="M908.962 714.168c12.207 2.829 8.394 21.066 8.532 31.118l-2.24 2.409c-3.099 10.659 2.413 57.738-2.381 64.56-42.171.676-84.877-.037-127.082-.131-3.185-.008-4.471-.933-6.649-3.179-.62-20.172.425-41.189-.5-61.27-1.265-4.938-.74-13.051-.58-18.346.004-7.449-.464-12.831 7.84-15.156 4.708 1.849 119.433 1.42 123.06-.005"/><path fill="#6b48ce" d="M834.686 737.684c3.919-3.999 18.881-3.698 23.473-1.104 1.505 1.752 1.474 1.635 2.079 3.845.092 6.475.861 16.768-1.492 22.585-4.934-.48-16.393-.709-21.087.304-1.493-1.844-1.945-3.413-2.817-5.607.411-4.623.199-15.366-.156-20.023"/><path fill="#271d55" d="M778.062 729.329c1.16 5.74 1.013 9.016.991 14.783 10.678-.125 45.101.608 53.794-.483 2.022-2.137.483-4.214 1.839-5.945.355 4.657.567 15.4.156 20.023l-.447.074c-.967-1.587-.565-7.495-.559-9.85l-55.194-.256c-1.265-4.938-.74-13.051-.58-18.346"/><path fill="#271d55" d="M837.659 763.314c4.694-1.013 16.153-.784 21.087-.304-1.032 2.214-18.498 1.65-21.087.304"/><path fill="#271d55" d="M820.173 713.927c-.456-20.054 1.371-22.643 22.707-22.015 8.749.257 23.189-1.533 30.977 3.481 3.489 2.929 3.026 13.865 3.049 18.522 9.947-.038 22.31-.407 32.056.253-3.627 1.425-118.352 1.854-123.06.005 10.75-.635 23.376-.29 34.271-.246"/><path fill="#907bea" d="M833.638 702.797c8.311-.157 18.907-1.546 26.937.278 2.593.589 4.141 1.131 5.627 3.388.294 2.435.855 4.741-.178 7.052l-1.625.39c-9.691-.179-23.417 2.352-32.39-1.132-.975-1.024-1.612-1.401-1.67-2.905-.101-2.613 1.677-5.187 3.299-7.071"/><path fill="#7c5fdb" d="M1024 1028.45v201.76h-15.88c-.9-66.65-.01-135.1.12-201.88z"/><path fill="#907bea" d="m1008.18 830.744 15.82.117v180.299l-15.79.12c-.73-59.484-.26-120.981-.03-180.536"/><path fill="#b4a5fb" d="M1024 831.846v6.598c-4.52.137-5.05.624-7.93-1.838-.59-2.458-.75-1.308.6-3.548 3.05-1.758 3.31-1.15 7.33-1.212"/><defs><linearGradient id="b" x1="851.942" x2="904.987" y1="1248.245" y2="1009.255" gradientUnits="userSpaceOnUse"><stop offset="0" stop-color="#6943d2"/><stop offset="1" stop-color="#8264e5"/></linearGradient></defs><path fill="url(#b)" d="m761.232 1028.26 235.552.08c-.695 67.19.032 134.46-.063 201.66-27.187.54-54.475.14-81.672.14l-154.029-.01-.158-110.76c-.011-30.36-.337-60.77.37-91.11"/><path fill="#613dbd" d="M872.622 1087.87c12.923-1.15 26.813-.87 39.706.54.389 3.26 1.214 6.81.101 9.99-1.521 2.19-3.173 2.55-5.585 3.34-7.517.94-14.87 1.19-22.418.45-4.981-.49-9.386-2.03-14.471-1.42-.723-3.4-2.117-7.6-1.236-11.02 1.39-1.74 1.783-1.52 3.903-1.88"/><path fill="#7c5fdb" d="M761.856 830.717c27.547.556 55.204.075 82.761.067l151.994.057c.023 15.914 1.217 176.929-.573 180.319-78.036.69-156.076.8-234.113.31-1.029-22.147-.15-44.733-.143-66.915z"/><path fill="#6b48ce" d="M790.699 914.932c9.853-.954 22.267-.62 32.381-.609l49.584.065 51.066-.021c9.34-.003 22.047-.281 31.155.462.05 5.803.461 22.8-.335 27.727-1.153.874-2.784 2.034-3.794 2.987q.087 32.652-.177 65.297l-134.337.17c-4.367-.01-16.73 1.09-19.811-.99l-.351-1.94c.466-2.66.297-5.4.307-8.094.073-18.986-.534-37.98.023-56.963-2.121-.238-4.082-.135-5.547-1.582-.901-5.49-.287-20.345-.164-26.509"/><path fill="#35296b" d="M790.699 914.932c9.853-.954 22.267-.62 32.381-.609l49.584.065 51.066-.021c9.34-.003 22.047-.281 31.155.462.05 5.803.461 22.8-.335 27.727-1.153.874-2.784 2.034-3.794 2.987-6.912.928-37.342.435-45.944.351-28.815-.283-58.978.574-87.654-.128-1.011-.814-1.288-1.708-1.847-2.887a469 469 0 0 0-18.901.144c-2.121-.238-4.082-.135-5.547-1.582-.901-5.49-.287-20.345-.164-26.509"/><path fill="#613dbd" d="M815.311 942.879q48.118-.363 96.237-.161c10.912.004 32.76.699 43.002-.162-1.153.874-2.784 2.034-3.794 2.987-6.912.928-37.342.435-45.944.351-28.815-.283-58.978.574-87.654-.128-1.011-.814-1.288-1.708-1.847-2.887"/><path fill="#4f3994" d="M796.41 943.023a469 469 0 0 1 18.901-.144c.559 1.179.836 2.073 1.847 2.887l-1.119.215.101 42.106c-.001 6.386-.35 16.773.102 22.923-4.367-.01-16.73 1.09-19.811-.99l-.351-1.94c.466-2.66.297-5.4.307-8.094.073-18.986-.534-37.98.023-56.963"/><path fill="#613dbd" d="M796.08 1008.08c4.544-.35 13.827-.42 17.648-1.48 3.817-5.98-.486-54.484 2.311-60.619l.101 42.106c-.001 6.386-.35 16.773.102 22.923-4.367-.01-16.73 1.09-19.811-.99z"/><path fill="#613dbd" d="M860.563 952.846c9.807-.239 34.339-1.672 42.64 1.188.554.697 1.291 1.317 1.386 2.212.455 4.272.062 5.587-2.518 8.761-7.561 2.751-27.631 3.438-35.237 1.032-2.611-.827-5.158-2.12-6.325-4.754-1.108-2.504-.958-5.958.054-8.439"/><path fill="#35296b" d="M462.169 285.042c13.026-3.369 33.34-2.953 45.013 3.827 3.096 1.426 5.685 2.46 8.398 4.544 27.248 15.101 34.795 42.183 24.979 71.282-1.568 4.648-3.947 9.451-5.904 13.99-.811 3.102-.879 5.448-1.1 8.631l-1.201 4.867c-9.175 21.917-16.888 7.725-18.742 40.739l.446 2.634c-.248 2.491-.666 4.089.273 6.378l.629.532c7.735 6.641 10.251 13.056 15.733 20.153 4.376 3.157 10.387 4.356 15.437 6.473 6.285 2.636 15.448 7.231 21.087 11.16 47.091 16.65 47.297 82.363 57.935 123.25 2.94 11.297 3.796 21.129 8.03 32.412 1.307 4.751-1.206 9.43-.405 15.476 4.318 1.81 7.095 3.172 8.67 8.031 2.84 8.754 3.75 17.163 6.429 26.282.397 3.228.415 3.721-.184 6.91-2.353 1.696-5.7 3.322-6.047 6.261 3.816 23.2 5.12 55.464 6.441 79.096-11.511-1.014-21.995-.91-33.095 3.074l-2.658.949-2.953-.534c-6.199-16.357-11.355-33.744-17.201-50.258-2.689-7.595-5.708-18.396-9.34-25.265-3.001 11.962 1.514 23.981.779 36.441l.016.63c-4.588.416-30.684 2.482-33.764 3.374-1.887 1.529-6.123 1.339-9.227 1.997-4.448 1.868-7.674 1.417-9.332 2.088l-11.93.382a1404 1404 0 0 0-14.512-.209l-.338-.953c-8.468.363-17.561.236-26.085.261l-1.619.544-.874 4.161c-.585 2.651-.724 3.431-.762 6.137-1.296 6.784-3.16 14.985-3.246 21.743l-.013.563-2.821 4.539c-9.002 4.59-12.02 4.576-22.228 5.37-2.019.557-8.923-.552-11.353-.878l-4.425-.444a339 339 0 0 1-8.605-2.069c-3.148-.892-10.625-1.989-14.15-2.614l-3.903-.545c-2.83-1.851-1.942-1.85-4.854-1.907-1.123 1.073-1.54 1.281-2.118 2.721-4.165.348-12.44-1.558-16.805-2.436l-5.76-1.38 1.373-1.34c.829-3.619 1.799-7.867-2.269-9.464l1.015-.456c1.792-2.422 4.009-24.291 4.583-28.989-2.243-6.74 2.197-25.141 2.212-34.159-5.568-9.746-2.043-24.318-3.265-33.829-1.245-9.681-4.882-20.175-6.083-30.401l-.621-1.413c-1.998 3.154-6.186 16.566-7.755 21.05-2.785 5.843-5.032 5.377-2.05 11.47 1.861 3.23-3.555 22.128-4.669 26.545l-.404 1.961c-2.902 3.556-3.51 3.622-8.04 3.658l-.115-5.042c-6.297-.325-9.957-3.566-15.902-5.365-13.869-4.199-26.253-2.324-40.082-.661-.14.792-.434 2.827-.697 3.46-7.712-3.456-8.945-6.101-7.093-14.307 2.051-9.476 1.464-16.4 2.452-25.777.204-1.939 2.675-3.376 4.298-4.266 2.792-3.539 2.327-5.156 2.99-9.93.141-4.226 4.823-22.123 6.265-27.263 10.457-37.266 20.35-80.372 38.628-114.313 7.885-14.642 26.62-26.782 42.559-30.672 7.193-8.843 27.423-10.684 38.159-12.509l1.391-1.488 2.96-2.575c6.204-6.547 6.851-15.218 16.966-20.961l-.692-2.041-.814-.409c-18.676-20.642-18.032-40.155-18.347-65.956l-.035-7.13c-2.877-4.369-4.053-7.4-5.172-12.432-11.711-3.843-29.155-12.963-11.258-24.225 6.68-3.177 10.749-3.504 17.981-4.534 7.325-4.048 11.004-30.124 38.79-34.647"/><path fill="#613dbd" d="M382.24 473.949c4.424.021 8.779-.328 11.87 3.254 8.675 10.05 18.257 34.482 20.983 47.007l-.629.795c-3.133 3.994-1.724 3.387-1.562 8.083.294 8.526 5.474 17.414 5.159 25.077 4.903 10.797-1.432 51.148-3.415 64.604-2.644 17.944-12.578 38.468-22.573 53.393-.173 6.265.438 13.126 2.211 19.144 2.384 8.095-.937 9.836 1.039 17.754-3.857-.791-9.594-2.786-13.499-4.016-5.568-9.746-2.043-24.318-3.265-33.829-1.245-9.681-4.882-20.175-6.083-30.401l-.621-1.413c-1.998 3.154-6.186 16.566-7.755 21.05-2.785 5.843-5.032 5.377-2.05 11.47 1.861 3.23-3.555 22.128-4.669 26.545l-.404 1.961c-2.902 3.556-3.51 3.622-8.04 3.658l-.115-5.042c-6.297-.325-9.957-3.566-15.902-5.365-13.869-4.199-26.253-2.324-40.082-.661-.14.792-.434 2.827-.697 3.46-7.712-3.456-8.945-6.101-7.093-14.307 2.051-9.476 1.464-16.4 2.452-25.777.204-1.939 2.675-3.376 4.298-4.266 2.792-3.539 2.327-5.156 2.99-9.93.141-4.226 4.823-22.123 6.265-27.263 10.457-37.266 20.35-80.372 38.628-114.313 7.885-14.642 26.62-26.782 42.559-30.672"/><path fill="#613dbd" d="M291.798 656.127c20.63-3.595 38.549-5.323 57.122 7.35 7.719 5.268 7.416 6.625 13.13 12.444 1.861 3.23-3.555 22.128-4.669 26.545l-.404 1.961c-2.902 3.556-3.51 3.622-8.04 3.658l-.115-5.042c-6.297-.325-9.957-3.566-15.902-5.365-13.869-4.199-26.253-2.324-40.082-.661-.14.792-.434 2.827-.697 3.46-7.712-3.456-8.945-6.101-7.093-14.307 2.051-9.476 1.464-16.4 2.452-25.777.204-1.939 2.675-3.376 4.298-4.266"/><path fill="#f79578" d="M292.838 697.017c.652-2.213.487-3.184 2.76-4.597 10.444-6.494 48.86-1.707 53.224 10.623-6.297-.325-9.957-3.566-15.902-5.365-13.869-4.199-26.253-2.324-40.082-.661"/><path fill="#412c84" d="M285.048 686.17c.081 2.444-.192 4.742 1.201 6.574 3.94-.368 7.842-3.433 12.96-4.173 17.673-2.556 36.993.786 52.283 10.2 3.441 2.119-1.559 8.466 5.485 5.656-2.902 3.556-3.51 3.622-8.04 3.658l-.115-5.042c-4.364-12.33-42.78-17.117-53.224-10.623-2.273 1.413-2.108 2.384-2.76 4.597-.14.792-.434 2.827-.697 3.46-7.712-3.456-8.945-6.101-7.093-14.307"/><path fill="#271d55" d="M418.061 558.165c4.903 10.797-1.432 51.148-3.415 64.604-2.644 17.944-12.578 38.468-22.573 53.393-.173 6.265.438 13.126 2.211 19.144 2.384 8.095-.937 9.836 1.039 17.754-3.857-.791-9.594-2.786-13.499-4.016-5.568-9.746-2.043-24.318-3.265-33.829-1.245-9.681-4.882-20.175-6.083-30.401 3.871 7.186 6.656 29.062 8.538 38.211l.962-.292c4.535-6.601 11.652-14.296 15.315-20.696 18.308-31.989 14.937-70.392 20.77-103.872"/><path fill="#412c84" d="M325.123 639.539c9.298 1.677 13.782 2.526 21.502 8.841 4.978 4.072 11.619 14.844 17.475 16.071-2.785 5.843-5.032 5.377-2.05 11.47-5.714-5.819-5.411-7.176-13.13-12.444-18.573-12.673-36.492-10.945-57.122-7.35 2.792-3.539 2.327-5.156 2.99-9.93.073 1.834-.084 6.265.73 7.438 21.593-2.571 32.295-2.333 53.505 5.143-9.01-10.319-11.952-12.256-23.9-19.239"/><path fill="#fec19b" d="M462.169 285.042c13.026-3.369 33.34-2.953 45.013 3.827 3.096 1.426 5.685 2.46 8.398 4.544 27.248 15.101 34.795 42.183 24.979 71.282-1.568 4.648-3.947 9.451-5.904 13.99-.811 3.102-.879 5.448-1.1 8.631l-1.201 4.867c-9.175 21.917-16.888 7.725-18.742 40.739-.747 11.566.209 25.715.281 35.611.053 7.284-12.257 35.232-16.33 41.996-8.736-18.65-14.245-21.182-29.089-35.139-5.249-4.935-13.738-14.362-18.916-20.003a30 30 0 0 1-1.961-1.98c-2.341-2.616-3.971-5.229-5.723-8.167-3.39-5.686-.411-3.784-.158-8.824l-.692-2.041-.814-.409c-18.676-20.642-18.032-40.155-18.347-65.956l-.035-7.13c-2.877-4.369-4.053-7.4-5.172-12.432-11.711-3.843-29.155-12.963-11.258-24.225 6.68-3.177 10.749-3.504 17.981-4.534 7.325-4.048 11.004-30.124 38.79-34.647"/><path fill="#6b48ce" d="M462.169 285.042c13.026-3.369 33.34-2.953 45.013 3.827 3.096 1.426 5.685 2.46 8.398 4.544 27.248 15.101 34.795 42.183 24.979 71.282-1.568 4.648-3.947 9.451-5.904 13.99-.811 3.102-.879 5.448-1.1 8.631-.513-6.451.542-11.107-4.697-15.403-1.569-14.588-17.419-14.779-25.313-19.975l-.601-.063c-6.107-.687-7.8-1.07-13.808-2.765-4.061-.879-8.265-2.911-12.113-4.588-3.485-3.19-4.799-2.474-6.924-3.993-10.411-7.441-15.674-10.301-27.932-14.104-5.973-2.718-13.373-3.594-19.901-4.628l1.168-1.257-.055-.851c7.325-4.048 11.004-30.124 38.79-34.647"/><path fill="#613dbd" d="M423.379 319.689c7.325-4.048 11.004-30.124 38.79-34.647l.927 1.247 3.186.124c.848 4.218-13.308 26.73-21.771 27.211 5.094.205 32.163 9.784 34.944 13.455l-.534.55c-4.113-.829-8.175-3.317-12.217-5.053-9.272-3.982-17.899-5.93-27.861-6.571-7.224-.465-11.641 4.601-15.409 4.535z"/><path fill="#412c84" d="M503.545 351.938c2.092-2.189 1.945-1.385 2.331-3.891-3.534-8.169-24.518-17.063-25.593-19.917 6.405-.005 40.368 28.106 46.784 34.288 6.184 5.958 6.737 8.301 7.588 16.267-.811 3.102-.879 5.448-1.1 8.631-.513-6.451.542-11.107-4.697-15.403-1.569-14.588-17.419-14.779-25.313-19.975"/><path fill="#4b2f99" d="M507.182 288.869c3.096 1.426 5.685 2.46 8.398 4.544-.963 1.982.167 6.026.323 8.376.999 15.031.02 27.974-5.806 42.046l-.29-.279c3.941-18.435 11.07-39.199-2.625-54.687"/><path fill="#1e1549" d="M405.398 324.223c6.68-3.177 10.749-3.504 17.981-4.534l.055.851-1.168 1.257c6.528 1.034 13.928 1.91 19.901 4.628 12.258 3.803 17.521 6.663 27.932 14.104 2.125 1.519 3.439.803 6.924 3.993-3.13-1.021-4.017-1.415-7.428-1.379-12.409-4.981-12.133-5.678-25.845-3.626-22.218 3.324-21.061-1.438-21.922 21.363-2.877-4.369-4.053-7.4-5.172-12.432-11.711-3.843-29.155-12.963-11.258-24.225"/><path fill="#4b2f99" d="M405.398 324.223c6.68-3.177 10.749-3.504 17.981-4.534l.055.851-1.168 1.257c6.528 1.034 13.928 1.91 19.901 4.628-2.843.465-5.767-.1-8.544-.683-15.595-3.274-17.671-3.833-31.292 4.173l-.396.236c.241-2.39 1.9-3.953 3.463-5.928"/><path fill="#f79578" d="M441.024 434.375c23.441 4.536 39.911 3.321 57.21-16.013 2.41-2.694 6.349-11.577 8.59-13.108-1.021 7.21-5.844 12.035-9.915 17.722-1.743 2.434-3.258 6.116-4.883 8.197-7.999 10.242-19.787 18.266-32.179 22.153-2.695.846-8.111.851-10.289 2.061a30 30 0 0 1-1.961-1.98c-2.341-2.616-3.971-5.229-5.723-8.167-3.39-5.686-.411-3.784-.158-8.824z"/><path fill="#271d55" d="M489.136 349.11c6.008 1.695 7.701 2.078 13.808 2.765l.601.063c7.894 5.196 23.744 5.387 25.313 19.975a67 67 0 0 0-1.552-.05c-9.496-.192-14.135 6.28-20.89 12.754-1.345-9.67-4.431-20.977-6.674-30.683-3.416-.483-7.144-1.592-10.513-2.496z"/><path fill="#271d55" d="M469.595 343.143c3.411-.036 4.298.358 7.428 1.379 3.848 1.677 8.052 3.709 12.113 4.588l.093 2.328c-7.224-2.777-12.586-5.012-19.634-8.295"/><path fill="#f79578" d="M510.219 398.776c3.712-5.198 5.912-15.834 11.501-17.745 2.928.737 1.943.439 4.559 3.028 2.716 2.564 2.175 3.498 1.35 7.322-1.337-2.02-1.347-4.303-1.658-6.78-2.07-1.033-3.089-1.072-4.998-.062-1.238 2.409-.233 6.124.031 9.189-2.208 1.831-7.883 3.862-10.785 5.048"/><path fill="#271d55" d="M465.886 351.125c4.118-.249 7.736-.234 11.608 1.354 2.882 1.182 5.53 2.607 6.781 5.554l-.918 1-2.277-.477c-7.229-4.648-17.272-2.372-19.727-4.628 1.2-1.813 2.588-2.022 4.533-2.803"/><path fill="#1e1549" d="M469.386 364.846c1.213.013 2.377.313 3.558.563.982.841 1.709 1.246 2.14 2.501 1.013 2.944-.422 5.495-1.76 8.04l-2.966-.356c-1.402-1.041-2.19-1.419-2.751-3.149-.847-2.609.634-5.319 1.779-7.599"/><path fill="#1e1549" d="M433.575 364.032c1.014.607 1.931 1.403 2.865 2.129.787 1.466 1.351 2.707 1.145 4.411-.312 2.573-1.703 4.043-3.588 5.665-.924-.556-1.971-1.153-2.722-1.934-1.094-1.136-1.69-3.085-1.547-4.64.251-2.723 1.795-4.051 3.847-5.631"/><path fill="#f79578" d="m443.863 373.645 1.649-1.491c-4.827 14.273-10.457 16.247 5.829 22.824-.76 1.13-2.51 1.658-3.886 1.76-14.49 1.069-6.36-17.708-3.592-23.093"/><path fill="#271d55" d="M430.526 351.055c4.305-.474 7.076-.693 10.728 2.07.747.565.557.776.676 1.658-1.919.774-3.202.051-5.13-.475-2.077.057-3.655.524-5.652 1.001-1.59.38-3.451 1.006-4.838.137.896-2.016 2.528-3.067 4.216-4.391"/><path fill="#df615c" d="M466.54 400.658c-.143.496-.169.7-.394 1.13-1.259 2.395-4.649 4.164-7.152 5.013-6.046 2.052-12.076 1.147-17.669-1.609l.099-1.276c2.543.482 4.81 1.678 7.32 2.174 6.715 1.326 12.41-1.835 17.796-5.432"/><path fill="#f9ba9c" d="m443.863 373.645-1.755-.501-1.044-1.963c.747-1.869.27-1.224 2.42-2.327 2.031.518 1.197.003 2.562 1.636l-.534 1.664z"/><path fill="#f79578" d="M447.292 416.557c3.103-.405 5.973-.369 9.049.206q-.263.111-.527.219c-3.34 1.325-5.268.955-8.522-.425"/><path fill="#613dbd" d="M530.693 462.619c4.376 3.157 10.387 4.356 15.437 6.473 6.285 2.636 15.448 7.231 21.087 11.16 47.091 16.65 47.297 82.363 57.935 123.25 2.94 11.297 3.796 21.129 8.03 32.412 1.307 4.751-1.206 9.43-.405 15.476 4.318 1.81 7.095 3.172 8.67 8.031 2.84 8.754 3.75 17.163 6.429 26.282.397 3.228.415 3.721-.184 6.91-2.353 1.696-5.7 3.322-6.047 6.261 3.816 23.2 5.12 55.464 6.441 79.096-11.511-1.014-21.995-.91-33.095 3.074l-2.658.949-2.953-.534c-6.199-16.357-11.355-33.744-17.201-50.258-2.689-7.595-5.708-18.396-9.34-25.265l.111-1.154c-1.47-4.929-.658-48.137-.879-57.06-.307-12.405-1.515-31.865-1.533-44.13-1.59-8.734-.869-24.995-2.63-32.662l-1.376-.043c-.222-1.922-.001-2.895-.972-4.25l-.27 4.358c-1.331.454-5.861 5.498-6.562 6.6l1.408-.078c2.022-1.556 2.223-1.99 3.465-4.26l.325-.608.647.055.524 1.37c-1.379 5.7-9.43 10.452-14.486 6.929-6.232-4.341-7.43-13.426-8.581-20.196.963-9.236-7.186-31.641-3.31-36.752l1.979-2.629c.428-3.151-1.928-13.228-2.661-17.384-.304-.777-1.424-6.328-1.667-7.464-1.36-6.319-2.596-11.055-5.871-16.634l-.879-1.247c-1.475-1.934-3.232-4.889-4.58-7.004-1.305-2.959-2.925-6.138-4.348-9.074"/><path fill="#fec19b" d="M591.251 697.957c12.583-7.762 29.961-15.238 45.398-11.085 2.472.666 2.676 2.735 3.42 4.882l1.576 7.12c3.816 23.2 5.12 55.464 6.441 79.096-11.511-1.014-21.995-.91-33.095 3.074l-2.658.949-2.953-.534c-6.199-16.357-11.355-33.744-17.201-50.258-2.689-7.595-5.708-18.396-9.34-25.265l.111-1.154c1.559-1.943 6.102-5.157 8.301-6.825"/><path fill="#f79578" d="M591.251 697.957c12.583-7.762 29.961-15.238 45.398-11.085 2.472.666 2.676 2.735 3.42 4.882-10.066-3.268-42.059 1.956-43.46 10.087-3.356 19.487 16.729 61.179 18.382 79.203l-2.658.949-2.953-.534c-6.199-16.357-11.355-33.744-17.201-50.258-2.689-7.595-5.708-18.396-9.34-25.265l.111-1.154c1.559-1.943 6.102-5.157 8.301-6.825"/><path fill="#271d55" d="m548.038 504.042 1.231.083c1.395 2.999 2.4 11.997 3.994 16.851 7.291 1.538 13.93 1.104 21.287 2.964 4.479 3.422 5.229 14.861 3.769 19.638-3.199 10.468-.782 16.916-.411 27.352l-1.376-.043c-.222-1.922-.001-2.895-.972-4.25l-.27 4.358c-1.331.454-5.861 5.498-6.562 6.6l1.408-.078c2.022-1.556 2.223-1.99 3.465-4.26l.325-.608.647.055.524 1.37c-1.379 5.7-9.43 10.452-14.486 6.929-6.232-4.341-7.43-13.426-8.581-20.196.963-9.236-7.186-31.641-3.31-36.752l1.979-2.629c.428-3.151-1.928-13.228-2.661-17.384"/><path fill="#613dbd" d="M554.59 526.595c6.434.068 12.623.869 18.967 1.838.578 5.606.954 11.139 1.097 16.774-6.485-1.117-13.147-1.293-19.711-1.463-.528-5.731-.434-11.403-.353-17.149"/><path fill="#35296b" d="M530.693 462.619c4.376 3.157 10.387 4.356 15.437 6.473 6.285 2.636 15.448 7.231 21.087 11.16-3.089-.846-4.449-1.245-7.428-2.541 6.149 16.836 9.813 28.882 14.761 46.229-7.357-1.86-13.996-1.426-21.287-2.964-1.594-4.854-2.599-13.852-3.994-16.851l-1.231-.083c-.304-.777-1.424-6.328-1.667-7.464-1.36-6.319-2.596-11.055-5.871-16.634l-.879-1.247c-1.475-1.934-3.232-4.889-4.58-7.004-1.305-2.959-2.925-6.138-4.348-9.074"/><path fill="#4b2f99" d="M580.538 603.592c4.239 9.6 1.298 44.57 2.805 55.43l.807-.305-.83.381c1.864-1.479 3.015-3.102 4.833-3.18 4.228 4.482.584 34.64 5.122 39.006-1.705 1.661-1.6 1.068-2.024 3.033-2.199 1.668-6.742 4.882-8.301 6.825-1.47-4.929-.658-48.137-.879-57.06-.307-12.405-1.515-31.865-1.533-44.13"/><path fill="#412c84" d="M593.275 694.924c10.291-6.737 18.91-9.275 31.062-10.792 10.738-1.34 13.299-.596 23.141 2.986l.398-1.415c.397 3.228.415 3.721-.184 6.91-2.353 1.696-5.7 3.322-6.047 6.261l-1.576-7.12c-.744-2.147-.948-4.216-3.42-4.882-15.437-4.153-32.815 3.323-45.398 11.085.424-1.965.319-1.372 2.024-3.033"/><path fill="#412c84" d="M633.182 635.914c1.307 4.751-1.206 9.43-.405 15.476-9.407-2.105-16.235-1.575-25.652.104-2.535.452-12.929 3.321-14.495 2.651 4.855-4.886 31.161-5.924 37.608-4.646 1.812-5.511 1.714-8.197 2.944-13.585"/><path fill="#412c84" d="M589.575 505.221c3.642 4.292 2.535 18.172 2.638 23.802l-1.089-.673z"/><path fill="#4b2f99" d="m614.871 632.351.826.139-.053.849-5.573 1.889-1.138-.646c.863-1.431 4.261-1.786 5.938-2.231"/><path fill="#613dbd" d="M497.563 510.529c4.073-6.764 16.383-34.712 16.33-41.996-.072-9.896-1.028-24.045-.281-35.611l.446 2.634c-.248 2.491-.666 4.089.273 6.378l.629.532c7.735 6.641 10.251 13.056 15.733 20.153 1.423 2.936 3.043 6.115 4.348 9.074 1.348 2.115 3.105 5.07 4.58 7.004l.879 1.247c3.275 5.579 4.511 10.315 5.871 16.634.243 1.136 1.363 6.687 1.667 7.464.733 4.156 3.089 14.233 2.661 17.384l-1.979 2.629c-3.876 5.111 4.273 27.516 3.31 36.752-7.359 1.622-14.546 2.846-21.972 4.128-5.597.614-7.966.771-13.564.46l-9.289.117-3.17.076c-7.884-.945-16.321-1.155-24.301-2.078-10.264-1.187-20.47-2.782-30.685-4.332-3.711-13.873 4.431-31.333-11.438-38.373-6.32-22.507-10.44-35.477-21.905-55.876a513 513 0 0 0 4.693-3.489l1.391-1.488 2.96-2.575c6.204-6.547 6.851-15.218 16.966-20.961-.253 5.04-3.232 3.138.158 8.824 1.752 2.938 3.382 5.551 5.723 8.167q.934 1.036 1.961 1.98c5.178 5.641 13.667 15.068 18.916 20.003 14.844 13.957 20.353 16.489 29.089 35.139"/><path fill="#4b2f99" d="m539.621 478.697.879 1.247c3.275 5.579 4.511 10.315 5.871 16.634-3.253 3.117-1.098 5.076-3.968 6.16l-1.273-.573c-6.771-3.052-13.361-6.037-20.249-8.816l.417-2.213c1.777-1.547 1.462-.993 4.74-.778 2.929 1.651 7.267 4.419 10.394 4.963l1.222-.676.166-1.856c-.105-4.308-1.255-11.187 1.801-14.092"/><path fill="#613dbd" d="M540.5 479.944c3.275 5.579 4.511 10.315 5.871 16.634-3.253 3.117-1.098 5.076-3.968 6.16l-1.273-.573 1.661-.887.084-1.355-3.295-3.559c-.92-4.132-.003-12.281.92-16.42"/><path fill="#412c84" d="M424.75 457.377c3.911 10.609 16.207 36.106 22.66 44.183 8.042-6.427 10.699-11.13 17.829-18.194.777-.769 2.582-.989 3.721-1.01l.571.407c-8.73 4.907-.745 11.959 3.216 16.145 5.826 6.155 27.491 9.322 26.621 18.662l-.7.284c-.679-.922-3.189-5.025-3.295-5.114-7.605-6.327-17.346-7.236-25.196-14.006-4.067-3.508-5.406-9.886-6.971-10.527-3.639 4.862-9.711 13.069-15.732 14.412-9.411-3.474-19.551-42.302-25.684-42.667z"/><path fill="#4b2f99" d="M527.71 564.597c-.679-4.328-4.12-23.405-2.16-25.923.875.627.76 1.086 1.182 2.367 2.145.492 14.145-.785 20.107-.197-4.349 1.378-13.895 1.756-20.048 3.215 1.71 6.904 3.02 13.757 3.267 20.876-5.597.614-7.966.771-13.564.46z"/><path fill="#4b2f99" d="M504.035 565.588c.211-7.677-6.729-44.926-6.592-45.248l1.044.294c2.837 7.149 5.6 26.818 7.414 35.186.63 2.906.535 6.649 1.304 9.692z"/><path fill="#412c84" d="M520.881 493.349c-3.039 4.995-10.378 13.724-15.778 15.538l-.695-.675c4.016-6.072 15.468-7.78 15.145-20.772l-.031-.897c2.051.449 4.679 2.547 6.516 3.815-3.278-.215-2.963-.769-4.74.778z"/><path fill="#613dbd" d="M535.041 471.693c1.348 2.115 3.105 5.07 4.58 7.004-3.056 2.905-1.906 9.784-1.801 14.092-1.455-8.375-5.639-13.311-2.779-21.096"/><path fill="#613dbd" d="M381.824 709.044c3.905 1.23 9.642 3.225 13.499 4.016 5.14 1.107 9.093 1.925 14.369 2.563a2467 2467 0 0 0 71.137 1.461l2.609.555c-1.605 10.042-3.04 22.703-4.992 32.308l-1.619.544-.874 4.161c-.585 2.651-.724 3.431-.762 6.137-1.296 6.784-3.16 14.985-3.246 21.743l-.013.563-2.821 4.539c-9.002 4.59-12.02 4.576-22.228 5.37-2.019.557-8.923-.552-11.353-.878l-4.425-.444a339 339 0 0 1-8.605-2.069c-3.148-.892-10.625-1.989-14.15-2.614l-3.903-.545c-2.83-1.851-1.942-1.85-4.854-1.907-1.123 1.073-1.54 1.281-2.118 2.721-4.165.348-12.44-1.558-16.805-2.436l-5.76-1.38 1.373-1.34c.829-3.619 1.799-7.867-2.269-9.464l1.015-.456c1.792-2.422 4.009-24.291 4.583-28.989-2.243-6.74 2.197-25.141 2.212-34.159"/><path fill="#4b2f99" d="M381.824 709.044c3.905 1.23 9.642 3.225 13.499 4.016 5.14 1.107 9.093 1.925 14.369 2.563-.421 9.136-.398 20.974-.181 30.214 3.01.79 7.958 2.508 10.72.906l-.015 1.536c2.066 4.515 1.946 31.981 2.095 39.449l.797 1.059-.608.826c-3.148-.892-10.625-1.989-14.15-2.614l-3.903-.545c-2.83-1.851-1.942-1.85-4.854-1.907-1.123 1.073-1.54 1.281-2.118 2.721-4.165.348-12.44-1.558-16.805-2.436l-5.76-1.38 1.373-1.34c.829-3.619 1.799-7.867-2.269-9.464l1.015-.456c1.792-2.422 4.009-24.291 4.583-28.989-2.243-6.74 2.197-25.141 2.212-34.159"/><path fill="#271d55" d="M395.754 743.569c5.364 1.328 8.355 1.682 13.757 2.268 3.01.79 7.958 2.508 10.72.906l-.015 1.536c2.066 4.515 1.946 31.981 2.095 39.449l.797 1.059-.608.826c-3.148-.892-10.625-1.989-14.15-2.614l-3.903-.545c-2.83-1.851-1.942-1.85-4.854-1.907-1.123 1.073-1.54 1.281-2.118 2.721-4.165.348-12.44-1.558-16.805-2.436l.603-2.492c1.212 1.683 6.231 4.033 7.959 2.507 5.555-4.908 4.036-18.066 6.293-24.939l.224-.664c1.424-5.903 4.286-11.146.005-15.675"/><path fill="#4f3994" d="M420.216 748.279c2.066 4.515 1.946 31.981 2.095 39.449-1.134-2.514-.786-6.827-.763-9.764-3.91-.359-9.337-1.427-13.323-2.088 1.528-6.947 1.847-23.063 3.385-26.752 3.466-1.817 5.953.358 8.606-.845"/><path fill="#35296b" d="m379.612 743.203 3.681.241c4.353 5.965-2.785 11.008 2.878 14.602 1.408-.237 2.772-.448 4.169-.751l1.925 1.273c1.82-1.725 1.809-3.317 2.272-5.695l.677.839c-.502 3.599-.963 2.87.535 5.532l-.224.664c-2.257 6.873-.738 20.031-6.293 24.939-1.728 1.526-6.747-.824-7.959-2.507l-.603 2.492-5.76-1.38 1.373-1.34c.829-3.619 1.799-7.867-2.269-9.464l1.015-.456c1.792-2.422 4.009-24.291 4.583-28.989"/><path fill="#1e1549" d="m379.612 743.203 3.681.241c4.353 5.965-2.785 11.008 2.878 14.602 1.408-.237 2.772-.448 4.169-.751l1.925 1.273-7.829 1.206c-.825 8.005-1.809 14.623-3.163 22.566l-.603 2.492-5.76-1.38 1.373-1.34c.829-3.619 1.799-7.867-2.269-9.464l1.015-.456c1.792-2.422 4.009-24.291 4.583-28.989"/><path fill="#412c84" d="M390.34 757.295c-.592-2.388.904-12.204 2.518-13.814.25 1.507.345 3.894 1.237 4.743a90 90 0 0 1 .587-4.205l1.072-.45c4.281 4.529 1.419 9.772-.005 15.675-1.498-2.662-1.037-1.933-.535-5.532l-.677-.839c-.463 2.378-.452 3.97-2.272 5.695z"/><path fill="#35296b" d="M420.231 746.743c-.865-5.327-1.945-16.305.882-20.995 5.875-2.894 7.136 7.853 8.935 9.067 8.953 6.045 5.11 3.262 6.8 12.61 1.163-.596 7.203.927 9.374 1.262l.62.556.426.257c1.65.98 1.773 1.085 3.596 1.511 3.196 5.707-8.347 35.64-3.981 41.993-2.019.557-8.923-.552-11.353-.878l-4.425-.444a339 339 0 0 1-8.605-2.069l.608-.826-.797-1.059c-.149-7.468-.029-34.934-2.095-39.449z"/><path fill="#7c5fdb" d="M420.231 746.743c-.865-5.327-1.945-16.305.882-20.995 5.875-2.894 7.136 7.853 8.935 9.067 8.953 6.045 5.11 3.262 6.8 12.61-.281 2.931-.108 4.42-1.926 6.683-2.397 1.419-3.843 1.091-6.577.933-.837 3.171.027 30.423.524 35.024-1.828-.485-3.897-.88-5.761-1.278l-.797-1.059c-.149-7.468-.029-34.934-2.095-39.449z"/><path fill="#1e1549" d="M428.869 790.065c.494-4.879.458-8.772.447-13.64 1.876-.481 1.274-.344 3.352.186 3.106 4.606.171 10.79 2.862 15.515l-4.425-.444a339 339 0 0 1-8.605-2.069l.608-.826c1.864.398 3.933.793 5.761 1.278"/><path fill="#1e1549" d="M456.751 726.821c4.617-.394 10.653-1.404 14.486 1.273-2.646 7.994-8.553 40.67-7.977 48.819 3.718 1.79 3.647 1.095 5.715 4.084.174 2.444.188 4.186.136 6.637-9.002 4.59-12.02 4.576-22.228 5.37-4.366-6.353 7.177-36.286 3.981-41.993-1.823-.426-1.946-.531-3.596-1.511l-.426-.257 4.152.069c3.812-3.598 3.332-14.92 5.757-22.491"/><path fill="#35296b" d="M471.237 728.094c2.006 7.922-3.373 41.752-7.977 48.819-.576-8.149 5.331-40.825 7.977-48.819"/><path fill="#412c84" d="m480.829 717.084 2.609.555c-1.605 10.042-3.04 22.703-4.992 32.308l-1.619.544c.541-5.116 4.895-30.986 4.002-33.407"/><path fill="#4f3994" d="M544.376 716.666c3.551-2.099 30.11-3.494 36.141-3.906.182 4.991 1.669 25.411 3.101 29.617l.016.63c-4.588.416-30.684 2.482-33.764 3.374-1.887 1.529-6.123 1.339-9.227 1.997.096-10.356-.229-20.019-.614-30.346l.353-1.02c1.539.012 2.51.124 3.994-.346"/><path fill="#271d55" d="M540.382 717.012c1.539.012 2.51.124 3.994-.346.438 5.939-.459 26.202 1.401 29.129l4.093.586c-1.887 1.529-6.123 1.339-9.227 1.997.096-10.356-.229-20.019-.614-30.346z"/><path fill="#613dbd" d="M540.029 718.032c.385 10.327.71 19.99.614 30.346-4.448 1.868-7.674 1.417-9.332 2.088l-11.93.382a1404 1404 0 0 0-14.512-.209l-.338-.953-.078-.736c-1.621-9.31-.256-21.646-2.34-29.886 7.68-.276 32.672-.2 37.916-1.032"/><path fill="#4f3994" d="M483.438 717.639c5.615.941 8.963.858 14.587.856.067 7.358-.514 22.633 2.425 28.592 1.429 1.231 2.221 1.323 4.003 1.863l.078.736c-8.468.363-17.561.236-26.085.261 1.952-9.605 3.387-22.266 4.992-32.308"/><path fill="#7c5fdb" d="M502.113 719.064c-.016-2.491-.365-1.708.951-3.444 5.401-2.335 20.053-1.675 26.37-1.619 4.71.041 7.83-.298 10.948 3.011l-.353 1.02c-5.244.832-30.236.756-37.916 1.032"/><path fill="#613dbd" d="M434.168 527.568c1.59-.245 2.634-.219 4.219.061 4.202 3.239 4.49 10.9 5.34 15.835-5.318.299-10.656 1.049-15.952 1.622-2.113.433-2.865.795-4.928.042-3.585-4.364-3.711-10.173-4.506-15.571 5.201-.893 10.584-1.347 15.827-1.989"/><defs><linearGradient id="c" x1="285.352" x2="488.644" y1="972.428" y2="1011.751" gradientUnits="userSpaceOnUse"><stop offset="0" stop-color="#1f1547"/><stop offset="1" stop-color="#3c2f75"/></linearGradient></defs><path fill="url(#c)" d="M478.446 749.947c8.524-.025 17.617.102 26.085-.261l.338.953-1.381 1.986c1.676 2.49 3.014 2.8 5.65 3.866 1.883 3.916.401 14.937.709 19.658 2.228 34.106-3.666 65.625-12.399 98.45-2.194 8.244-3.117 18.324-4.632 26.852-.54 3.331-1.81 6.31-2.124 9.057l1.131-.087c-15.309 88.726-30.995 177.169-41.096 266.699-1.988 17.62 3.941 30.23-3.505 48.03-3.222 7.71 5.075 25.25-7.26 30.63-.216 2.86.771 5.61 1.521 8.44l2.181 7.2c.404 2.14.649 3.78 1.384 5.85l1.513 6.68c-2.59-2.22-7.709-23.58-9.065-28.71-3.259-2.08-10.315-5.16-14.182-7.12-7.255-8.06-27.077-5.35-35.647-.21-5.67 1.63-11.008 3.37-15.913 6.64l-.533.12c-1.456-.54-3.286-.17-4.689-1.24-4-3.04-2.912-13.64-3.571-19.8l.748-2.33c-1.522-6.66-.817-15.09 1.318-21.59 2.178-8.31-2.274-19.47-2.043-28.52.975-38.12 1.997-76.25 3.006-114.37.307-11.59.403-24.11 1.424-35.6l-.374-2.49c-12.655 5.33-108.677-12.09-130.363-12.73-5.524-.17-26.145-3.35-32.526-4.65-3.891-5.2-4.451-62.03-4.932-72.565-.033-6.232.127-6.492-3.592-11.377 1.294-4.28-.992-11.266 2.482-20.3l.136-.671c3.281-7.301 7.066-15.407 15.672-16.776 9.267-2.486 39.143-2.637 49.17-1.7a84 84 0 0 0 16.287.743c23.926-.791 49.559 2.286 72.91 2.385l.604 5.909c.495-2.579.39-3.363 2.146-5.11 2.634-1.505 7.353-.852 10.553-.681l.454.329q8.756 1.071 17.522 2.052l2.641-1.32c-4.292.25-12.669-.546-16.802-1.715l-.452-1.593c.404-10.942 2.155-24.374 3.516-35.346-5.62-3.222-7.689-4.118-10.672-9.722-8.671-7.581 2.304-48.958.185-57.396l-.618-1.6c-1.187-10.75 1.269-11.015 11.153-12.81l1.5.562c4.068 1.597 3.098 5.845 2.269 9.464l-1.373 1.34 5.76 1.38c4.365.878 12.64 2.784 16.805 2.436.578-1.44.995-1.648 2.118-2.721 2.912.057 2.024.056 4.854 1.907l3.903.545c3.525.625 11.002 1.722 14.15 2.614q4.289 1.09 8.605 2.069l4.425.444c2.43.326 9.334 1.435 11.353.878 10.208-.794 13.226-.78 22.228-5.37l2.821-4.539.013-.563c.086-6.758 1.95-14.959 3.246-21.743.038-2.706.177-3.486.762-6.137l.874-4.161z"/><path fill="#35296b" d="M213.917 889.661c9.267-2.486 39.143-2.637 49.17-1.7a84 84 0 0 0 16.287.743c23.926-.791 49.559 2.286 72.91 2.385l.604 5.909c.495-2.579.39-3.363 2.146-5.11 2.634-1.505 7.353-.852 10.553-.681l.454.329q8.756 1.071 17.522 2.052c8.976.997 29.88.957 36.666 3.026l-.561.058c-3.533.34-4.942-.296-8.352.268 1.926.334 3.124.134 4.096 1.272l-5.189.946c-11.747.712-24.644 2.665-35.823 3.17l-.697.138c-3.385.643-6.882.139-8.855 1.221-.14 1.106-.254 1.701-.26 2.802.052 5.505-.334 20.762.724 25.152-.017 2.548.211 9.252-.679 11.186l-.947.112c-2.022-.335-3.353-.265-5.41-.254-11.274-2.816-51.321-3.072-65.412-4.747l-.995-1.199-.238-3.982-.318-.122c-.312 4.575-.218 7.324.028 11.928l.581.002.533-2.188c4.317-1.399 67.637 5.198 70.516 6.927 1.397 6.739-.289 69.646-1.006 78.536 1.525.12 3.931.1 5.075.89-12.655 5.33-108.677-12.09-130.363-12.73-5.524-.17-26.145-3.35-32.526-4.65-3.891-5.2-4.451-62.03-4.932-72.565-.033-6.232.127-6.492-3.592-11.377 1.294-4.28-.992-11.266 2.482-20.3l.136-.671c3.281-7.301 7.066-15.407 15.672-16.776"/><path fill="#4f3994" d="M213.917 889.661c9.267-2.486 39.143-2.637 49.17-1.7a84 84 0 0 0 16.287.743c23.926-.791 49.559 2.286 72.91 2.385l.604 5.909c.495-2.579.39-3.363 2.146-5.11 2.634-1.505 7.353-.852 10.553-.681l.454.329q8.756 1.071 17.522 2.052c8.976.997 29.88.957 36.666 3.026l-.561.058c-3.533.34-4.942-.296-8.352.268 1.926.334 3.124.134 4.096 1.272l-5.189.946c-11.747.712-24.644 2.665-35.823 3.17l-.697.138c-3.385.643-6.882.139-8.855 1.221-.14 1.106-.254 1.701-.26 2.802.052 5.505-.334 20.762.724 25.152-.017 2.548.211 9.252-.679 11.186l-.947.112c-.715-3.276-.645-16.73-.696-20.873-9.755-1.795-26.036-1.618-36.491-2.579-32.67-3.005-65.645-3.29-98.255-7.557-6.287-.823-23.906-1.372-29.044-3.271l-.955-2.222c3.281-7.301 7.066-15.407 15.672-16.776"/><path fill="#7c5fdb" d="M213.917 889.661c9.267-2.486 39.143-2.637 49.17-1.7a84 84 0 0 0 16.287.743c23.926-.791 49.559 2.286 72.91 2.385l.604 5.909c.495-2.579.39-3.363 2.146-5.11 2.634-1.505 7.353-.852 10.553-.681l.454.329q8.756 1.071 17.522 2.052c8.976.997 29.88.957 36.666 3.026l-.561.058c-3.533.34-4.942-.296-8.352.268 1.926.334 3.124.134 4.096 1.272l-5.189.946c-11.747.712-24.644 2.665-35.823 3.17-25.8.064-55.485-4.091-81.714-5.128-11.188-.443-72.815-3.549-78.769-7.539"/><path fill="#271d55" d="M352.888 896.998c.495-2.579.39-3.363 2.146-5.11 2.634-1.505 7.353-.852 10.553-.681l.454.329c-.034 3.135.498 3.367-1.135 5.544-3.16 1.489-8.764 1.122-12.018-.082"/><path fill="#613dbd" d="m260.187 925.412.564.056c5.028 2.3 24.165 3.685 29.812 2.517-.278 6.114.867 24.571-1.501 28.458-5.082 2.677-24.137 1.554-28.189-2.589-.845-3.293-.666-5.8-.64-9.185a331 331 0 0 0-.046-19.257"/><path fill="#271d55" d="M198.109 907.108c.873 7.167-2.545 16.471.761 21.656l1.994 3.811q.595 23.804 1.545 47.596c.253 6.968.454 22.799 1.995 28.959 6.22 2.75 153.259 20.45 157.178 18.89.13-.05.255-.12.383-.18 1.525.12 3.931.1 5.075.89-12.655 5.33-108.677-12.09-130.363-12.73-5.524-.17-26.145-3.35-32.526-4.65-3.891-5.2-4.451-62.03-4.932-72.565-.033-6.232.127-6.492-3.592-11.377 1.294-4.28-.992-11.266 2.482-20.3"/><path fill="#1e1549" d="M259.101 934.68c-.035-3.217-.371-6.501 1.086-9.268a331 331 0 0 1 .046 19.257c-.419-3.051-.363-5.448-4.018-5.796-18.225-1.735-37.372-2.938-55.351-6.298l-1.994-3.811c5.784.146 16.351 1.726 22.401 2.456a532 532 0 0 0 37.83 3.46"/><path fill="#7c5fdb" d="M260.751 925.468c.9-1.265 1.343-2.476 2.861-2.578 5.73-.382 21.345.764 25.577 3.172l1.374 1.923c-5.647 1.168-24.784-.217-29.812-2.517"/><path fill="#613dbd" d="m372.514 772.086 1.5.562c4.068 1.597 3.098 5.845 2.269 9.464l-1.373 1.34 5.76 1.38c4.365.878 12.64 2.784 16.805 2.436.578-1.44.995-1.648 2.118-2.721 2.912.057 2.024.056 4.854 1.907l3.903.545c3.525.625 11.002 1.722 14.15 2.614q4.289 1.09 8.605 2.069l4.425.444c2.43.326 9.334 1.435 11.353.878 10.208-.794 13.226-.78 22.228-5.37l2.821-4.539-.026 7.282-.515.432a203 203 0 0 1-1.478 8.075l-1.236 7.906c-.424 2.417-2.723 17.09-3.24 18.189l-1.519 9.086 1.899.719c.629 32.393-24.286 34.355-51.263 36.414-5.563.425-20.785-1.53-24.868-.503-3.017 4.326.119 16.887-3.482 21.573-4.292.25-12.669-.546-16.802-1.715l-.452-1.593c.404-10.942 2.155-24.374 3.516-35.346-5.62-3.222-7.689-4.118-10.672-9.722-8.671-7.581 2.304-48.958.185-57.396l-.618-1.6c-1.187-10.75 1.269-11.015 11.153-12.81"/><path fill="#613dbd" d="m372.514 772.086 1.5.562c4.068 1.597 3.098 5.845 2.269 9.464l-1.373 1.34 5.76 1.38c4.365.878 12.64 2.784 16.805 2.436.578-1.44.995-1.648 2.118-2.721 2.912.057 2.024.056 4.854 1.907l3.903.545c3.525.625 11.002 1.722 14.15 2.614q4.289 1.09 8.605 2.069l4.425.444c2.43.326 9.334 1.435 11.353.878 10.208-.794 13.226-.78 22.228-5.37l2.821-4.539-.026 7.282-.515.432a203 203 0 0 1-1.478 8.075l-1.236 7.906c-.424 2.417-2.723 17.09-3.24 18.189l-1.473-.075c-.778 1.998-1.122 3.603-2.769 4.872-1.127 1.602-1.897 4.702-1.462 6.576-1.701 5.182-2.872 8.488-5.143 13.544-10.06 3.921-34.481.877-45.989.336-2.889-.136-3.896-2.355-5.366-4.654-1.286.628-1.293.75-2.696.815-1.197-7.349 2.483-37.87 2.507-47.914-2.039-1.061-3.852-1.015-6.165-1.229-7.113.319-22.473-2.393-28.871-5.478 3.372-.458 8.046.949 11.574 1.716-1.421-.919-15.358-6.24-17.605-6.992l-.618-1.6c-1.187-10.75 1.269-11.015 11.153-12.81"/><path fill="#613dbd" d="m471.932 783.095-.026 7.282-.515.432a203 203 0 0 1-1.478 8.075l-.474-.55c-2.191.623-4.306 1.275-6.545 1.701-18.102 1.806-36.37 1-54.243-2.393a367 367 0 0 0-.301-10.643c3.525.625 11.002 1.722 14.15 2.614q4.289 1.09 8.605 2.069l4.425.444c2.43.326 9.334 1.435 11.353.878 10.208-.794 13.226-.78 22.228-5.37z"/><path fill="#7c5fdb" d="m471.932 783.095-.026 7.282-.515.432c-5.94-.394-16.047 6.417-23.286 5.19-5.105-.865-13.914-.895-18.417-2.896l-.094-1.039 1.511-.382 4.425.444c2.43.326 9.334 1.435 11.353.878 10.208-.794 13.226-.78 22.228-5.37z"/><path fill="#613dbd" d="m462.894 800.035-.404-2.386c1.565-2.585 2.522-4.32 5.531-4.758l1.255 1.155.163 4.288c-2.191.623-4.306 1.275-6.545 1.701"/><path fill="#613dbd" d="m372.514 772.086 1.5.562c4.068 1.597 3.098 5.845 2.269 9.464l-1.373 1.34 5.76 1.38c4.365.878 12.64 2.784 16.805 2.436l1.827 1.507c-.215 2.352-.182 3.918-1.182 6.067-3.985 2.65-14.331.178-18.536-1.354-1.421-.919-15.358-6.24-17.605-6.992l-.618-1.6c-1.187-10.75 1.269-11.015 11.153-12.81"/><path fill="#412c84" d="m372.514 772.086 1.5.562c4.068 1.597 3.098 5.845 2.269 9.464l-1.373 1.34c-6.169-1.329-7.928-4.612-11.71-4.651-1.871 1.998-1.406 2.889-1.839 6.095-1.187-10.75 1.269-11.015 11.153-12.81"/><path fill="#412c84" d="M397.475 787.268c.578-1.44.995-1.648 2.118-2.721 2.912.057 2.024.056 4.854 1.907l3.903.545q.228 5.32.301 10.643a189.8 189.8 0 0 0 54.243 2.393c2.239-.426 4.354-1.078 6.545-1.701l.474.55-1.236 7.906c-.424 2.417-2.723 17.09-3.24 18.189l-1.473-.075c-.778 1.998-1.122 3.603-2.769 4.872 1.9-10.222 2.546-18.558 2.888-28.871-17.571 3.315-35.095 1.626-52.635-1.236-2.793-.456-5.581-1.32-8.402-1.19-2.039-1.061-3.852-1.015-6.165-1.229-7.113.319-22.473-2.393-28.871-5.478 3.372-.458 8.046.949 11.574 1.716 4.205 1.532 14.551 4.004 18.536 1.354 1-2.149.967-3.715 1.182-6.067z"/><path fill="#4f3994" d="m404.447 786.454 3.903.545q.228 5.32.301 10.643c-2.484-.187-3.073-.083-5.247-1.145-1.252-2.988.208-6.525 1.043-10.043"/><path fill="#271d55" d="M361.794 843.892c8.141 6.362 3.759 6.043 14.119 6.732 3.958.263 13.019 4.041 18.315 4.734 19.052 2.49 43.914 8.479 62.07.048 5.609-3.072 6.661-15.393 7.62-21.341l1.899.719c.629 32.393-24.286 34.355-51.263 36.414-5.563.425-20.785-1.53-24.868-.503-3.017 4.326.119 16.887-3.482 21.573-4.292.25-12.669-.546-16.802-1.715l-.452-1.593c.404-10.942 2.155-24.374 3.516-35.346-5.62-3.222-7.689-4.118-10.672-9.722"/><path fill="#4b2f99" d="M396.881 797.25c2.313.214 4.126.168 6.165 1.229-.024 10.044-3.704 40.565-2.507 47.914 1.403-.065 1.41-.187 2.696-.815 1.47 2.299 2.477 4.518 5.366 4.654 11.508.541 35.929 3.585 45.989-.336 2.271-5.056 3.442-8.362 5.143-13.544.455 4.988-1.579 12.75-6.651 14.976-9.067 3.981-19.04.751-28.094 1.009-10.221.292-13.363-.253-23.056-3.059-.578 1.274-1.299 3.112-2.129 4.172-1.066-3.256-.361-3.641-2.424-6.242-3.853 1.643-10.404 4.826-14.348 2.517 1.984-4.169 5.21.759 11.157-2.191 1.551-15.374 2.843-31.347 4.035-46.8.176-2.275-.099-2.267-1.342-3.484"/><path fill="#35296b" d="M420.229 896.614c7.391 1.664 10.215 5.242 13.999 11.442 2.737 4.441 2.037 5.312 3.624 9.19-5.889 1.315-16.701 1.99-23.012 2.537a1840 1840 0 0 0-34.776 3.236c-3.355.333-11.605.723-14.372 1.845-.617 2.793-.464 3.968-.38 6.777-1.058-4.39-.672-19.647-.724-25.152.006-1.101.12-1.696.26-2.802 1.973-1.082 5.47-.578 8.855-1.221l.697-.138c11.179-.505 24.076-2.458 35.823-3.17l5.189-.946c-.972-1.138-2.17-.938-4.096-1.272 3.41-.564 4.819.072 8.352-.268z"/><path fill="#4f3994" d="M420.229 896.614c7.391 1.664 10.215 5.242 13.999 11.442.252 1.548.659 2.843.149 4.281-8.491-10.076-10.162-13.213-24.154-13.179l5.189-.946c-.972-1.138-2.17-.938-4.096-1.272 3.41-.564 4.819.072 8.352-.268z"/><path fill="#271d55" d="M437.852 917.246c2.921 3.899-3.939 35.446-4.747 42.368-1.673-3.243 3.577-20.275 1.237-24.334l-2.137 1.083-.596 1.911c-11.788-1.707-12.617 1.284-21.336 1.04-3.544.372-28.611 2.562-30.258 3.271-3.578 2.084-19.011 2.886-21.739.1 2.057-.011 3.388-.081 5.41.254l.947-.112c.89-1.934.662-8.638.679-11.186-.084-2.809-.237-3.984.38-6.777 2.767-1.122 11.017-1.512 14.372-1.845a1840 1840 0 0 1 34.776-3.236c6.311-.547 17.123-1.222 23.012-2.537"/><path fill="#1e1549" d="m490.692 910.508 1.131-.087c-15.309 88.726-30.995 177.169-41.096 266.699-1.988 17.62 3.941 30.23-3.505 48.03-3.222 7.71 5.075 25.25-7.26 30.63-.216 2.86.771 5.61 1.521 8.44l2.181 7.2c.404 2.14.649 3.78 1.384 5.85l1.513 6.68c-2.59-2.22-7.709-23.58-9.065-28.71-3.259-2.08-10.315-5.16-14.182-7.12-7.255-8.06-27.077-5.35-35.647-.21-5.67 1.63-11.008 3.37-15.913 6.64l-.533.12c-1.456-.54-3.286-.17-4.689-1.24-4-3.04-2.912-13.64-3.571-19.8l.748-2.33c1.288 4.02 1.226 15.32 2.344 21.68 5.749-2.11 12.542-5.93 18.254-7.9 12.595-4.35 29.01-4.44 41.647-.27 4.517 1.48 13.185 7.45 16.318 7.86 4.201-4.33 2.07-32.94 6.635-40.44 2.61-4.29-.683-16.1-.272-22.2 3.077-45.68 11.005-91.09 17.006-136.46 1.637-12.43 4.531-24.57 6.568-36.8l11.311-66.788c1.934-11.557 4.152-28.827 7.172-39.474"/><path fill="#1e1549" d="M367.414 1031.22c2.276 12.86.279 35.78-.149 49.9l-2.499 89.89c-.243 12.21-.047 21.7 2.396 33.79.286 1.41-.265 3.33-1.06 4.57l-1.075.34c2.178-8.31-2.274-19.47-2.043-28.52.975-38.12 1.997-76.25 3.006-114.37.307-11.59.403-24.11 1.424-35.6"/><path fill="#1e1549" d="M380.015 942.585c1.647-.709 26.714-2.899 30.258-3.271l.039 1.141c1.33-.032 2.448-.204 3.64.329-.367.371-30.565 5.411-33.937 1.801"/><path fill="#271d55" d="M475.191 760.789c1.072 3.158-.72 26.179-2.688 30.256l-.597-.668.026-7.282.013-.563c.086-6.758 1.95-14.959 3.246-21.743"/><path fill="#1e1549" d="M478.446 749.947c8.524-.025 17.617.102 26.085-.261l.338.953-1.381 1.986c-3.34-2.56-24.127-2.585-27.535 2.027l.874-4.161z"/><path fill="#1e1549" d="M468.677 806.79c1.797 6.666-1.969 20.439-2.86 27.994l-1.899-.719 1.519-9.086c.517-1.099 2.816-15.772 3.24-18.189"/><path fill="#271d55" d="M394.411 1173.93c1.936.38 3.588 1.08 5.346 1.96 9.455 4.72 22.408 14.85 25.943 25.21-2.185.45-4.309.42-6.372-.53-8.76-4.06-21.378-17.68-24.917-26.64"/><path fill="#c0b2fd" d="M576.973 1248.7c7.35-.24 25.609-7.28 30.405-6.09 8.124.69 16.719.06 24.454 1.27 2.403 2.31 5.089 5.01 7.584 7.14l.687.9c3.425 2.24 6.966 4.94 10.379 6.98l2.313 1.17.425-.18c2.368 3.11 6.324 5.41 9.705 7.45 10.271 5.9 23.592 8.24 33.676 14.97.463.31 2.46.53 3.127.57 35.095 2.63 190.654 10.62 210.258 31.68 1.574 1.7 1.614 2.61 1.665 4.77-2.526 5.5-9.86 8.09-15.167 10.06-35.276 13.09-82.908 17.98-120.513 21.89-77.223 8.03-154.408 10.04-231.975 10.9-101.247 1.12-202.12-.79-302.835-12.14-32.558-3.67-84.531-9.69-114.018-23.4-2.75-1.28-5.989-2.93-6.922-6.08-.441-1.49.048-3.17.796-4.47 1.787-3.13 5.723-4.97 8.929-6.24 12.191-4.53 34.252-8.51 47.399-10.62 59.793-9.61 121.077-13.32 181.483-16.11l5.933.05.152-.66c2.22-6.83 3.612-15.13 4.936-22.21l1.372-5.63.533-.12c4.905-3.27 10.243-5.01 15.913-6.64 8.57-5.14 28.392-7.85 35.647.21 3.867 1.96 10.923 5.04 14.182 7.12 1.356 5.13 6.475 26.49 9.065 28.71l-1.513-6.68q52.494-.39 104.989-.18c.56-5.43 1.951-11.41 3.061-16.8l1.277-7.91c-3.644-2.39-4.922-2.86-7.049-6.69 10.436 7.7 17.663 2.94 29.647 3.01"/><path fill="#412c84" d="M576.973 1248.7c7.35-.24 25.609-7.28 30.405-6.09 8.124.69 16.719.06 24.454 1.27 2.403 2.31 5.089 5.01 7.584 7.14l.687.9c3.425 2.24 6.966 4.94 10.379 6.98l2.313 1.17.425-.18c2.368 3.11 6.324 5.41 9.705 7.45l-.487.41c-6.586.94-16.976 1.01-20.125 8.24l1.66.96-.21 1.95 2.964.49c-2.227 1.46-1.365 1.35-3.668 1.24-.473-.9-.923-1.76-1.431-2.64-1.638 2.28-4.077 9.89-2.998 12.58-1.378 3.51-2.971 7.06-3.949 10.7-19.261-.3-39.377-3.52-58.579-5.64-8.851-1.19-17.736-1.35-25.718-5.71l.226-.95c-1.281-2.71-.699-8.61-.573-11.88.56-5.43 1.951-11.41 3.061-16.8l1.277-7.91c-3.644-2.39-4.922-2.86-7.049-6.69 10.436 7.7 17.663 2.94 29.647 3.01"/><path fill="#1e1549" d="M576.973 1248.7c7.35-.24 25.609-7.28 30.405-6.09-8.95 6.52-25.628 19.86-37.865 19.54-3.492-.09-9.937-4.09-13.693-3.49-4.525 4.36-3.295 25.16-5.21 30.31-1.281-2.71-.699-8.61-.573-11.88.56-5.43 1.951-11.41 3.061-16.8l1.277-7.91c-3.644-2.39-4.922-2.86-7.049-6.69 10.436 7.7 17.663 2.94 29.647 3.01"/><path fill="#efe9fb" d="M642.313 1275.99c-1.71.66-1.626.72-3.519.29-1.688-1.77-1.256-.86-1.462-3.41 4.353-10.29 16.809-8.64 25.106-5.12-6.586.94-16.976 1.01-20.125 8.24"/><path fill="#efe9fb" d="M652.795 1260.07c-4.081 1.67-13.884.79-18.943 3.55-3.485 1.9-8.459 6.45-11.444 2.8 4.461-7.81 19.843-9.27 28.074-7.52z"/><path fill="#efe9fb" d="M640.103 1251.92c-3.809 1.3-7.605 1.12-11.341 2.28-3.746 1.16-10.231 9.87-14.498 6.7.386-9.14 17.711-11.47 25.152-9.88z"/><path fill="#412c84" d="M387.667 1247.91c8.57-5.14 28.392-7.85 35.647.21 3.867 1.96 10.923 5.04 14.182 7.12 1.356 5.13 6.475 26.49 9.065 28.71 2.255 5.34 2.567 11.22 4.791 16.53-1.394 2.9-2.618 4.69-5.504 6.34-16.762 2.54-59.917 5.29-75.268-.74-3.238-1.12-5.754-2.25-8.515-4.29.253-6.19 1.625-12.52 2.696-18.62l.152-.66c2.22-6.83 3.612-15.13 4.936-22.21l1.372-5.63.533-.12c4.905-3.27 10.243-5.01 15.913-6.64"/><path fill="#613dbd" d="M391.588 1281.8c8.667-1.42 15.828-.55 24.53.08 1.828.56 6.363 1.39 8.276 1.25 3.652 1.4 9.41 5.08 12.961 5.46 6.616 5.71 6.558 10.21 8.493 18.23-16.762 2.54-59.917 5.29-75.268-.74.587-1.88.475-9.77 1.802-14.46 6.482-6.04 10.985-7.06 19.206-9.82"/><path fill="#4b2f99" d="M387.667 1247.91c8.57-5.14 28.392-7.85 35.647.21.579 3.88 1.188 6.85.872 10.77-9.453-4.98-21.144-3.11-31.297-1.24-.992-.42-2.454-1.26-3.451-1.79-1.733-2.04-1.481-4.45-1.657-7.28z"/><path fill="#efe9fb" d="M392.889 1257.65c10.153-1.87 21.844-3.74 31.297 1.24 1.58 1.84 2.713 2.6 2.856 4.91l-1.154 1.08c-5.087-1.1-10.503-5.31-17.674-5.56-7.844-.28-11.13 4.92-19.162 3.8l-.526-.97c1.088-2.71 1.812-2.96 4.363-4.5"/><path fill="#271d55" d="m371.221 1254.67.533-.12c4.905-3.27 10.243-5.01 15.913-6.64l.114.67c-.992 5.16-4.949 11.74-10.933 10.47-1.518-1.58-1.553-1.84-2.465-3.88-2.287 1.12-2.885 2.79-4.534 5.13z"/><path fill="#35296b" d="M391.588 1281.8c.479-1.02.332-1.47 1.295-1.81 4.156-1.5 21.866-3.2 23.235 1.89-8.702-.63-15.863-1.5-24.53-.08"/><path fill="#271d55" d="M424.394 1283.13c4.426-.34 8.986 1.84 12.607 4.22l.354 1.24c-3.551-.38-9.309-4.06-12.961-5.46"/><path fill="#efe9fb" d="M404.42 1267.7c3.433-.38 7.356-.38 10.773.18 4.067.66 9.688 2.82 12.183 6.23l-.821 1.01.132-1.86-.565 1.97c-3.868.64-9.799-2.27-13.733-3.17-5.097-.03-8.91.95-13.78 2.11-2.519.6-6.101 1.62-8.43.18l.541-1.3c4.381-3.59 8.231-4.32 13.7-5.35"/><path fill="#efe9fb" d="M662.925 1267.34c10.271 5.9 23.592 8.24 33.676 14.97.463.31 2.46.53 3.127.57l-2.251.51c-.127 2.12 1.671 3.7 2.911 5.4l.834.13c2.845 5.9 2.94 12.81 3.39 19.24-9.301 9.51-27.399 9.64-40.087 9.62-.169 0-.337-.01-.505-.01-8.999-.01-17.998.03-26.996.11a748 748 0 0 1-63.614-5.02c-.873-5.37-2.068-11.41.345-16.52l2.347-.71c19.202 2.12 39.318 5.34 58.579 5.64.978-3.64 2.571-7.19 3.949-10.7-1.079-2.69 1.36-10.3 2.998-12.58.508.88.958 1.74 1.431 2.64 2.303.11 1.441.22 3.668-1.24l-2.964-.49.21-1.95-1.66-.96c3.149-7.23 13.539-7.3 20.125-8.24z"/><path fill="#613dbd" d="M662.925 1267.34c10.271 5.9 23.592 8.24 33.676 14.97.463.31 2.46.53 3.127.57l-2.251.51c-.127 2.12 1.671 3.7 2.911 5.4-.422 2.82-1.645 4.17-3.905 5.83-12.448 9.18-46.888 8.08-61.802 6.65.978-3.64 2.571-7.19 3.949-10.7-1.079-2.69 1.36-10.3 2.998-12.58.508.88.958 1.74 1.431 2.64 2.303.11 1.441.22 3.668-1.24l-2.964-.49.21-1.95-1.66-.96c3.149-7.23 13.539-7.3 20.125-8.24z"/><path fill="#35296b" d="M646.727 1279.39c1.633-.55 4.076-1.69 5.499-1.41-6.682 4-10.326 5.27-13.596 12.59-1.079-2.69 1.36-10.3 2.998-12.58.508.88.958 1.74 1.431 2.64 2.303.11 1.441.22 3.668-1.24"/><path fill="#efe9fb" d="M451.352 1300.48c2.189 5.01.482 10.57 2.429 15.09-1.323 3.71-2.782 5.82-6.474 7.61-3.727 1.8-8.226 2.27-12.277 2.85-2.92.28-5.854.62-8.781.8-9.4-.06-18.841-.31-28.233.07-5.843-.04-11.793-.83-17.617-1.35-5.912-1.14-13.614-1.91-17.88-6.58-2.635-2.89-2.511-5.32-2.397-8.97.516-2.81 1.094-5.48 1.943-8.21 2.761 2.04 5.277 3.17 8.515 4.29 15.351 6.03 58.506 3.28 75.268.74 2.886-1.65 4.11-3.44 5.504-6.34"/><path fill="#d4c6ec" d="M550.384 1289.92c7.982 4.36 16.867 4.52 25.718 5.71l-2.347.71c-2.413 5.11-1.218 11.15-.345 16.52-6.754-.78-16.571-.82-21.973-5.47-2.388-2.05-3.024-4.37-3.322-7.39.478-3.29.672-7.14 2.269-10.08"/><path fill="#907bea" d="M548.115 1300c.298 3.02.934 5.34 3.322 7.39 5.402 4.65 15.219 4.69 21.973 5.47a748 748 0 0 0 63.614 5.02l.328.74c-2.445 1.64-13.032 1.64-16.175 1.8-14.526.71-60.951-2.97-74.213-8.16-2.317-.9-4.277-2.75-6.104-4.39l.127-.65c1.659-.4 3.709-.9 5.163-1.79 1.932-1.18 1.717-3.43 1.965-5.43"/><defs><linearGradient id="d" x1="369.061" x2="351.718" y1="1317.228" y2="1326.238" gradientUnits="userSpaceOnUse"><stop offset="0" stop-color="#9b86e7"/><stop offset="1" stop-color="#b1a4f8"/></linearGradient></defs><path fill="url(#d)" d="M360.122 1310c-.114 3.65-.238 6.08 2.397 8.97 4.266 4.67 11.968 5.44 17.88 6.58-3.013 1.51-6.705.64-9.912.13a8.3 8.3 0 0 0-1.994-.08l-1.321 1.03c-2.972.11-6.628-.76-9.481-1.56-3.035-.85-8.956-2.37-10.602-5.25 1.834-3.72 6.064-3.88 9.518-5.39 2.592-1.13 2.575-1.88 3.515-4.43"/><defs><linearGradient id="e" x1="441.77" x2="454.579" y1="1319.196" y2="1330.489" gradientUnits="userSpaceOnUse"><stop offset="0" stop-color="#917aec"/><stop offset="1" stop-color="#bcaffd"/></linearGradient></defs><path fill="url(#e)" d="M453.781 1315.57c2.112.37 6.422 6.4 8.192 8.25-1.295 2.28-2.705 4.83-5.341 5.68-4.922 1.57-7.642-2.49-11.737-3.36-2.687-.57-7.52 1.27-10.33 1.62l.465-1.73c4.051-.58 8.55-1.05 12.277-2.85 3.692-1.79 5.151-3.9 6.474-7.61"/><path fill="#7c5fdb" d="M704.612 1308.16c.037 2.12-2.073 3.98-3.537 5.5-.26.27-.522.53-.786.8-11.69 3.64-24.321 5.17-36.555 5.05l-.57-1.23-.389.09-.214 1.1-.573-.92-.222.86-1.506-.62 1.799-.7.267.84.556-1.09 1.138-.07c.168 0 .336.01.505.01 12.688.02 30.786-.11 40.087-9.62"/><path fill="#b4a5fb" d="m367.172 1326.63 1.321-1.03a8.3 8.3 0 0 1 1.994.08c3.207.51 6.899 1.38 9.912-.13 5.824.52 11.774 1.31 17.617 1.35-7.909 2.95-22.516 1.73-30.844-.27"/><path fill="#907bea" d="M426.249 1326.83c2.927-.18 5.861-.52 8.781-.8l-.465 1.73c-5.191 1.54-11.975.67-17.361.32 2.911-.14 5.65-.26 8.467-1.08.194-.05.385-.11.578-.17"/><path fill="#35296b" d="M549.87 746.381c3.08-.892 29.176-2.958 33.764-3.374 4.196 36.818 13.141 77.521 18.085 115.75a2998 2998 0 0 1 20.747 236.363c2.021 34.9 5.252 75.31 5.376 109.67 1.71 2.94 3.691 6.13 5.006 9.22-.715 8.23-.756 9.34 1.843 17.02 1.51 6.06 2.544 7.81-2.666 12.07l-.193.78c-7.735-1.21-16.33-.58-24.454-1.27-4.796-1.19-23.055 5.85-30.405 6.09-11.984-.07-19.211 4.69-29.647-3.01-3.212-7.93-1.642-14.72-.246-22.75-8.817-13.11-8.803-14.16-4.058-29.12-4.182-16.69-7.739-43.6-10.382-61.12l-16.399-114.09c-1.284-8.83-21.558-109.24-23.21-111.063l-1.208 2.874-1.131.087c.314-2.747 1.584-5.726 2.124-9.057 1.515-8.528 2.438-18.608 4.632-26.852 8.733-32.825 14.627-64.344 12.399-98.45-.308-4.721 1.174-15.742-.709-19.658-2.636-1.066-3.974-1.376-5.65-3.866l1.381-1.986q7.257.067 14.512.209l11.93-.382c1.658-.671 4.884-.22 9.332-2.088 3.104-.658 7.34-.468 9.227-1.997"/><path fill="#271d55" d="M504.869 750.639q7.257.067 14.512.209l-.165.625c-2.525-.006-5.099-.313-7.249.798-.232 7.817-.916 70.954-.124 72.617-1.231.676-.78.204-1.4 1.462 1.192.57 2.195 1.083 3.457 1.505-2.516 1.283-2.837.918-3.683 3.817-1.663 5.695-1.888 12.971-2.305 18.915 13.758-5.131 22.515-12.61 36.348-16.93-12.365 8.615-25.058 21.395-33.193 34.178-1.362 44.833 17.208 97.439 23.875 141.855 5.866 39.08 9.778 78.25 16.378 117.19 2.963 16.36 3.828 32.65 8.994 48.51 16.534 9.03 21.483 8.41 40.354 9.19-4.276 4.08-7.52 6.56-12.714 9.46-11.246.33-20.541-2.04-29.05-1.96-.956 3.39-1.957 6.72-2.621 10.18 3.319 9.64 4.937 12.77 14.233 17.85 8.186-.5 11.33-1.39 19.324-2.63-5.619 2.87-21.894 4.49-21.981 8.36-.264 11.65-1.995 19 9.114 22.86-11.984-.07-19.211 4.69-29.647-3.01-3.212-7.93-1.642-14.72-.246-22.75-8.817-13.11-8.803-14.16-4.058-29.12-4.182-16.69-7.739-43.6-10.382-61.12l-16.399-114.09c-1.284-8.83-21.558-109.24-23.21-111.063l-1.208 2.874-1.131.087c.314-2.747 1.584-5.726 2.124-9.057 1.515-8.528 2.438-18.608 4.632-26.852 8.733-32.825 14.627-64.344 12.399-98.45-.308-4.721 1.174-15.742-.709-19.658-2.636-1.066-3.974-1.376-5.65-3.866z"/><path fill="#35296b" d="M519.216 751.473c1.941.08 4.939-.083 6.405.934 1.482 8.296 1.813 56.294-2.806 65.277-1.779 3.461-7.082 5.988-10.972 7.204-.792-1.663-.108-64.8.124-72.617 2.15-1.111 4.724-.804 7.249-.798"/><path fill="#1e1549" d="m519.381 750.848 11.93-.382c1.306.323.809-.05 1.644.897l-2.856 1.014c-5.659 12.63 4.348 53.793-6.435 67.392-3.028 3.819-5.737 5.445-9.764 8.086-1.262-.422-2.265-.935-3.457-1.505.62-1.258.169-.786 1.4-1.462 3.89-1.216 9.193-3.743 10.972-7.204 4.619-8.983 4.288-56.981 2.806-65.277-1.466-1.017-4.464-.854-6.405-.934z"/><path fill="#271d55" d="M610.077 1206.55c.747.08 1.226.12 1.897.48 1.895 1.04 4.031 3.04 4.657 5.1l-.955.99-3.342-.15c-3.894-.09-7.787-.81-11.636-1.38 3.001-1.85 6.257-3.4 9.379-5.04"/><path fill="#efe9fb" d="M76.444 1142.95c.6 1.14 1.496 2.72 1.994 3.85l.296 2.66c1.644 1.23.704.8 3.052.94l8.34-.04c3.332.28 5.544.34 8.887.29 1.023-3.79.86-5.15 4.358-6.55 9.313-.71 43.041-.96 48.472 7.13.073 32.57-2.263 83.62-19.419 112.2 4.642.23 17.008 2.24 18.481 7.45-6.257 12.29-72.308 10.66-86.523 9.34-6.74-.76-33.688-2.41-32.673-11.49 3.194-4.11 8.059-4.56 13.11-5.73-17.394-27.41-19.859-80.79-19.886-112.82 8.544-7.28 39.72-6.76 51.511-7.23"/><path fill="#b4a5fb" d="M76.444 1142.95c.6 1.14 1.496 2.72 1.994 3.85l.296 2.66c1.644 1.23.704.8 3.052.94l8.34-.04c3.332.28 5.544.34 8.887.29 1.023-3.79.86-5.15 4.358-6.55 9.313-.71 43.041-.96 48.472 7.13-2.873-.69-4.335-2.86-7.099-2.49l-.732 2.08c-4.064 1.51-103.984.1-113.459-1.33-.679 1.25-.837.97-.726 1.94 1.03 8.97.514 18.08 1.074 27.2 1.498 24.43 4.267 75.68 24.51 91.28 9.404 7.25 46.873 7.19 59.437 4.87 7.924-1.47 12.344-5.47 17.576-11.35 4.642.23 17.008 2.24 18.481 7.45-6.257 12.29-72.308 10.66-86.523 9.34-6.74-.76-33.688-2.41-32.673-11.49 3.194-4.11 8.059-4.56 13.11-5.73-17.394-27.41-19.859-80.79-19.886-112.82 8.544-7.28 39.72-6.76 51.511-7.23"/><path fill="#613dbd" d="m135.244 156.315.134.661c.496 2.543.247 8.297 2.059 9.168 18.331 4.413 15.717 15.414 15.369 30.902 19.95 5.978 36.397 16.916 46.513 35.659a69 69 0 0 1 6.721 18.239c.341 3.615.986 4.803-2.125 7.181l-5.347.087c-5.771.983-32.147 1.221-37.648-.003-.864-1.308-.741-1.568-.853-3.121-2.349-1.566-36.75-1.413-41.052-.819-2.561 3.183.566 4.375-3.727 4.512-10.743.341-24.722.433-35.28-.333-2.758-.559-3.235-.666-5.705-1.99-1.522-2.269-1.074-4.88-1.025-7.77l.971-1.503c2.564-22.943 26.14-41.205 46.051-49.323-.355-8.226-.871-16.392 2.116-24.112 3.937-5.599 6.374-5.924 12.871-7.848-.159-2.855-.047-6.651-.043-9.587"/><path fill="#4b2f99" d="m135.244 156.315.134.661c.496 2.543.247 8.297 2.059 9.168 18.331 4.413 15.717 15.414 15.369 30.902-10.645-2.207-19.419-3.036-30.025-.124l-2.481.94c-.355-8.226-.871-16.392 2.116-24.112 3.937-5.599 6.374-5.924 12.871-7.848-.159-2.855-.047-6.651-.043-9.587"/><path fill="#412c84" d="M122.416 173.75c-.101 6.551-.48 16.801.365 23.172l-2.481.94c-.355-8.226-.871-16.392 2.116-24.112"/><path fill="#4b2f99" d="m73.278 248.688.971-1.503c.026 2.409-.322 4.966 1.042 6.726 16.193-1.835 28.76-.804 44.887-.621 14.492.164 29.104-.152 43.501.428 5.776.232 36.843.967 40.931.034.771-1.316.889-1.387 1.43-2.808.341 3.615.986 4.803-2.125 7.181l-5.347.087c-5.771.983-32.147 1.221-37.648-.003-.864-1.308-.741-1.568-.853-3.121-2.349-1.566-36.75-1.413-41.052-.819-2.561 3.183.566 4.375-3.727 4.512-10.743.341-24.722.433-35.28-.333-2.758-.559-3.235-.666-5.705-1.99-1.522-2.269-1.074-4.88-1.025-7.77"/><path fill="#6b48ce" d="M911.008 515.291c1.042 3.664 4.787 16.967 6.297 19.84 1.663.196 4.497.621 6.07.573 1.917.011 4.045-.724 5.928-1.244l3.566 1.345c2.214.003 4.202.242 6.169-.648 6.162-.436 26.098-1.446 30.952.988 5.631 8.349-7.52 54.987-11.876 65.293.69.884.391.833 1.21 1.147-2.555 1.137-71.262.868-75.282-.05-4.887-9.709-17.903-58.094-13.53-65.699 4.097-2.895 11.37-1.995 16.501-1.858l15.295-.107-4.754-6.94c.918-1.355.627-1.768.761-3.668 2.692 3.79 6.174 9.794 9.961 11.747.936-.367 2.928-.912 3.26-1.613 1.533-3.231-1.367-10.076-2.202-14.441.854-1.418 1.207-3.058 1.674-4.665"/><path fill="#613dbd" d="M898.315 524.263c2.692 3.79 6.174 9.794 9.961 11.747-6.319-1.2-14.465.977-21.263-1.032l15.295-.107-4.754-6.94c.918-1.355.627-1.768.761-3.668"/><path fill="#613dbd" d="M293.924 790.593c9.598-1.712 30.669-1.212 40.344.354 8.874 7.511 5.444 10.386 2.441 20.134 11.78 13.712 16.394 18.944 21.604 36.633.639 1.824 1.543 4.702 2.41 6.326 10.768 5.461 3.791 32.252 7.63 35.391l.597-.471.452 1.593c4.133 1.169 12.51 1.965 16.802 1.715l-2.641 1.32a1717 1717 0 0 1-17.522-2.052l-.454-.329c-3.2-.171-7.919-.824-10.553.681-1.756 1.747-1.651 2.531-2.146 5.11l-.604-5.909c-.352-5.041.945-18.3-3.196-20.815.267 2.593.54 1.796-.493 3.888-1.86 1.476-4.722 3.887-6.58 5.186l-.173.557c-7.304 5.869-33.69.404-41.56-3.663-1.604-2.191-2.601-2.63-4.854-4.09-10.646-9.105-9.179-21.179-8.911-34.027.722-9.968 1.806-18.254 6.062-27.395-3.25-8.185-7.572-14.792 1.345-20.137"/><path fill="#271d55" d="M335.567 848.295c1.209-2.06 1.26-2.455 3.274-3.518 2.667.021 5.335 2.299 7.736 3.889 1.406.766 3.226 1.909 4.727 2.173 2.067-.946 3.929-1.179 6.157-1.617l.852-1.508c.639 1.824 1.543 4.702 2.41 6.326 10.768 5.461 3.791 32.252 7.63 35.391l.597-.471.452 1.593c4.133 1.169 12.51 1.965 16.802 1.715l-2.641 1.32a1717 1717 0 0 1-17.522-2.052l-.454-.329c-3.2-.171-7.919-.824-10.553.681-1.756 1.747-1.651 2.531-2.146 5.11l-.604-5.909c-.352-5.041.945-18.3-3.196-20.815.267 2.593.54 1.796-.493 3.888-3.144-8.202-.609-4.631-8.088-12.083-2.421-4.434-3.612-8.971-4.94-13.784"/><path fill="#1e1549" d="M360.723 854.04c10.768 5.461 3.791 32.252 7.63 35.391l.597-.471.452 1.593c4.133 1.169 12.51 1.965 16.802 1.715l-2.641 1.32a1717 1717 0 0 1-17.522-2.052l-.454-.329c-.437-7.862.514-24.99-1.37-31.24-1.117-2.184-2.228-3.193-3.494-5.927"/><path fill="#35296b" d="M358.313 847.714c.639 1.824 1.543 4.702 2.41 6.326 1.266 2.734 2.377 3.743 3.494 5.927-.768.019-1.285-.012-1.966-.392-6.729-3.757-8.293-2.188-10.947-8.736 2.067-.946 3.929-1.179 6.157-1.617z"/><path fill="#412c84" d="m295.428 872.152 2.085-1.848-.379-.809c-3.006-6.536-6.248-21.675-5.953-28.854 3.232 4.819 4.106 32.877 15.601 36.078 2.095.584 5.785.567 7.921-.691 1.92 1.249 2.38 1.654 4.057 3.232l9.163 1.184c-3.91-6.12-12.39-18.656-10.643-26.656 4.446 7.434 3.211 21.814 19.425 25.995 1.481.382 2.027.272 3.502-.032l.561-.11 1.247-.293-.173.557c-7.304 5.869-33.69.404-41.56-3.663-1.604-2.191-2.601-2.63-4.854-4.09"/><path fill="#4b2f99" d="M340.507 862.079c7.479 7.452 4.944 3.881 8.088 12.083-1.86 1.476-4.722 3.887-6.58 5.186 4.725-8.936-.477-7.754-1.508-17.269"/><path fill="#412c84" d="M304.831 850.248c4.427 7.596-.525 12.341 9.872 25.78-8.613-1.375-10.691-18.874-9.872-25.78"/><path fill="#7c5fdb" d="M94.507 889.136c9.351-10.168 22.525-18.816 35.813-22.502.986 4.667 1.393 11.294 1.836 16.181 1.582 44.953-2.67 78.675-35.961 111.299-8.585 8.416-6.89 24.646-7.114 36.156-1.398-2.09-.973-10.83-1.071-14.19-.824 3.86-.579 9.48-.997 13.88l-1.203.42c.2-5.18 1.27-26.76-.666-30.568-20.318-40.002-25.484-74.699 9.363-110.676"/><path fill="#4f3994" d="m92.775 944.758.63.569c.67 2.102-1.5 9.326-1.853 11.914-1.649 12.08-1.757 23.727-2.676 35.815l-.683-.164c-1.583-16.113.994-32.469 4.582-48.134"/><path fill="#613dbd" d="M614.991 781.044c11.1-3.984 21.584-4.088 33.095-3.074 8.351 4.311 7.902 8.293 5.566 16.682-1.792 4.516.283 9.221 2.053 13.798 11.716 30.291 6.162 67.909-26.267 83.25-3.512 1.241-6.028 1.125-9.737 1.25-14.628-6.766 2.863-28.765 8.475-30.374l.552-1.045.239-.5c2.296-4.7 2.26-16.512.667-21.595-.185-.589-1.487-.653-2.056-.775-6.139 4.707-3.598 26.719-12.763 28.854-10.879 2.535-6.864-22.482-7.248-26.803-1.034-11.637-2.387-18.815.612-30.101l1.177-3.268c1.121-1.908 2.605-4.084 3.822-5.977-3.168-4.492-8.234-10.941-5.866-16.64l2.068-3.267 2.953.534z"/><path fill="#4b2f99" d="M611.281 806.408c1.98 2.983.949 12.521.783 16.737.964 10.633 1.479 11.955 12.408 11.226 2.192-2.12 4.305-4.304 6.781-6.078-.075 3.749-4.804 3.279-1.265 6.877 2.463 2.503 2.528 3.756 5.766 6.036.61 3.764-3.675 34.725-5.662 39.337-2 2.158-3.834 3.689-4.21 6.618.604 2.025.601 2.164 1.892 3.79l1.664.749c-3.512 1.241-6.028 1.125-9.737 1.25-14.628-6.766 2.863-28.765 8.475-30.374l.552-1.045.239-.5c2.296-4.7 2.26-16.512.667-21.595-.185-.589-1.487-.653-2.056-.775-6.139 4.707-3.598 26.719-12.763 28.854-10.879 2.535-6.864-22.482-7.248-26.803-1.034-11.637-2.387-18.815.612-30.101l1.177-3.268z"/><path fill="#412c84" d="M619.701 892.95c-14.628-6.766 2.863-28.765 8.475-30.374-1.152 7.89-9.26 11.372-8.731 16.759 1.458 1.391 2.721 2.373 3.878 4.064 1.928-.936 2.069-1.306 3.474-3.017 2.389-.487 1.339-.678 3.295.161-2 2.158-3.834 3.689-4.21 6.618.604 2.025.601 2.164 1.892 3.79l1.664.749c-3.512 1.241-6.028 1.125-9.737 1.25"/><path fill="#4f3994" d="m609.38 781.459 2.953.534c1.855 4.578 4.633 15.477 3.613 20.119l-1.344.828-3.321 3.468-1.925.935c1.121-1.908 2.605-4.084 3.822-5.977-3.168-4.492-8.234-10.941-5.866-16.64z"/><path fill="#4b2f99" d="M607.312 784.726c2.887 12.124 7.432 2.634 7.29 18.214l-3.321 3.468-1.925.935c1.121-1.908 2.605-4.084 3.822-5.977-3.168-4.492-8.234-10.941-5.866-16.64"/><path fill="#fec19b" d="M292.838 697.017c13.829-1.663 26.213-3.538 40.082.661 5.945 1.799 9.605 5.04 15.902 5.365l.115 5.042a1188 1188 0 0 1-9.578 57.346c-1.32 6.955-3.31 18.857-5.091 25.516-9.675-1.566-30.746-2.066-40.344-.354-.643-5.088-.965-12.238-1.449-17.594.21-7.397-.887-18.432-1.149-26.246a888 888 0 0 1-.121-39.767l.936-6.509c.263-.633.557-2.668.697-3.46"/><path fill="#7c5fdb" d="M166.322 981.409c3.102.211 5.745.008 8.198 1.724 1.811 3.678.095 7.233-1.062 11.498-7.468 26.009-16.564 45.439-41.789 59.649-9.042 5.09-15.787 6.71-24.882 10.63-5.201 18.13-6.665 28.01-8.557 46.43-1.342 2.3-1.651 3.86-2.242 6.44.466-3.45.563-10.03-.103-13.5.505-13.34 4.824-26.1 5.996-39.11.233-6.13-1.33-12.22-1.614-18.36-1.874-40.46 29.532-62.983 66.055-65.401"/><path fill="#613dbd" d="m117.937 1033.65.468.15c.398 1.4-8.777 17.81-10.332 21l-.442-.97c.11-5.29 7.001-15.95 10.306-20.18"/><path fill="#7c5fdb" d="M68.75 1071.57c-28.755-9.67-44-22.7-52.464-53.19-1.487-5.35-4.69-15.05-4.084-20.373 5.425-6.989 31.3 4.083 36.745 7.933 23.526 16.62 24.198 35.51 22.59 61.05-.066 1.05 10.092 38.47 11.348 43.61l1.22-1.09c.17 2.62-.747 3.6-.961 7.21-.326 5.48-.066 13.03-.537 18.74-.03.35-1.397 1.65-1.658 1.84-.32-1.5-.47-9.11-.654-11.38-1.533-19.02-4.923-36.4-11.546-54.35"/><path fill="#7c5fdb" d="M918.785 495.04c-12.855-25.384-20.08-48.32-11.737-76.735 1.538-5.235 8.507-19.88 14.489-20.646 4.937 2.122 9.858 13.114 11.833 18.214 11.368 29.366 3.888 54.803-10.433 80.65l-.775.278c-.469 2.427-.563 4.405-.738 6.852-.91-3.145-1.111-4.656-1.542-7.868z"/><path fill="#7c5fdb" d="M106.276 1120.23c3.243-7.2 2.451-16 5.999-22.63 14.93-27.87 44.028-39.12 72.383-26 2.708 1.71 2.911 1.24 4.127 3.87-.446 1.11-.522 1.51-1.165 2.48-26.758 25.41-33.867 33.76-72.548 37.7-3.671 2.68-5.192 3.83-6.919 8.32l-.467 1.29c-1.752-1.86-1.223-1.99-1.41-5.03"/><path fill="#613dbd" d="m119.273 1106.24.174.49c-.247 2.11-2.496 4.01-3.877 5.55l-.24-.66c.54-2.29 2.357-3.75 3.943-5.38"/><path fill="#7c5fdb" d="M857.954 453.202c14.892 2.095 28.76 6.691 38.445 18.97 10.971 13.909 9.018 28.281 14.609 43.119-.467 1.607-.82 3.247-1.674 4.665-6.256-17.734-15.504-14.531-30.04-24.366-8.495-5.747-37.144-30.719-29.639-41.563 2.65-1.503 5.14-.985 8.299-.825"/><path fill="#7c5fdb" d="M897.554 527.931c-17.833-17.608-66.346 15.421-72.51 12.193-.922-2.358-1.094-5.418-.846-7.926 1.994-20.194 21.032-32.261 40.259-30.509 17.703 1.614 23.342 10.151 33.858 22.574-.134 1.9.157 2.313-.761 3.668"/><path fill="#7c5fdb" d="M933.388 511.661c1.956-4.758 1.429-10.29 1.541-15.421.396-18.164 11.127-31.456 27.098-39.222 5.223-2.54 21.411-8.582 25.108-1.136-1.312 21.367-28.812 40.821-46.822 49.015-2.111 3.348-3.211 5.328-4.928 8.894-1.302-.487-1.061-.676-1.997-2.13"/><path fill="#7c5fdb" d="M675.15 0h3.259c20.936 65.344 32.475 125.255 99.025 159.922 55.615 28.972 115.478 13.332 164.05 58.517 13.736 12.778 20.855 21.299 31.446 37.168 11.628 17.421 25.991 43.661 42.99 56.085l-1.26 2.644c-27.673-21.183-41.804-62.772-71.79-90.763-53.343-49.793-104.928-30.112-164.635-59.992C708.293 128.579 697.273 66.837 675.15 0"/><path fill="#7c5fdb" d="M70.124 1128.74c-6.522-4.9-15.998-6.94-23.32-10.65-11.443-5.79-19.279-16.4-30.474-22.57-2.366-1.31-4.377-2.39-6.3-4.33l.348-1.34c8.329-7.64 30.141-6.94 40.027-1.96 11.977 6.02 16.518 13.47 20.823 25.6.164 6.05 1.49 9.59 1.589 13.85-1.091 1.05-1.222.94-2.693 1.4"/><path fill="#7c5fdb" d="M941.76 523.528c10.294-16.472 13.658-27.641 35.01-33.32 8.175-2.175 31.12-.62 33.63 8.433-4.71 4.4-41.13 10.363-53.688 17.047 22.754-3.971 28.36 3.342 35.924 23.663-11.995-6.183-27.635-15.668-41.465-16.534-3.317-.207-5.688 1.357-8.14 3.491z"/><path fill="#7c5fdb" d="M774.556 0h2.804l2.035 5.306c24.226 63.251 65.046 96.041 133.384 103.268 50.047 5.293 79.832 20.9 111.221 60.521v4.274c-22.38-27.914-48.821-51.016-84.909-57.665-30.853-5.684-59.714-6.834-88.391-21.217C810.012 74.082 788.687 42.165 774.556 0"/><path fill="#7c5fdb" d="m85.81 1030.38 1.203-.42c.418-4.4.173-10.02.997-13.88.098 3.36-.327 12.1 1.07 14.19.227 17.61.908 35.6 1.01 53.09 1.37 10.96.645 32.4 2.912 41.69-3.57 9.56-.962 17.57-3 24.94l.124.37-8.34.04c-2.348-.14-1.408.29-3.052-.94l-.296-2.66c.656-1.57 1.095-3.74 1.516-5.43l-.925-.73.131-1.27 1.79-2.07c.26-.19 1.628-1.49 1.657-1.84.471-5.71.211-13.26.537-18.74.214-3.61 1.13-4.59.962-7.21-.348-4.82-.094-10.5-.052-15.37.183-21.25 1.215-42.51 1.756-63.76"/><path fill="#613dbd" d="M90.09 1083.36c1.37 10.96.645 32.4 2.912 41.69-3.57 9.56-.962 17.57-3 24.94-1.908-5.73-.744-58.32.089-66.63"/><path fill="#6b48ce" d="m79.954 1141.37 1.962.93c.866 2.62.728 5.5-.13 8.1-2.348-.14-1.408.29-3.052-.94l-.296-2.66c.656-1.57 1.095-3.74 1.516-5.43"/><path fill="#271d55" d="m285.054 846.356 1.463-8.231c-.268 12.848-1.735 24.922 8.911 34.027 2.253 1.46 3.25 1.899 4.854 4.09l-.835-.397c-7.462-3.594-13.133-12.084-16.938-13.044-4.238 3.111-3.143 20.185-3.135 25.903a84 84 0 0 1-16.287-.743l.231-3.956c-.616-10.05-4.76-32.47 7.698-35.709 4.788-.517 9.291-1.207 14.038-1.94"/><path fill="#1e1549" d="m271.016 848.296-.61.742c-3.493 4.181-6.006 5.192-6.081 12.016-.099 8.924 2.137 14.071-1.007 22.951-.616-10.05-4.76-32.47 7.698-35.709"/><path fill="#7c5fdb" d="M135.163 0h2.906c.014 16.484 1.049 162.076-.632 166.144-1.812-.871-1.563-6.625-2.059-9.168l-.134-.661c-1.02-50.841-.05-105.161-.081-156.315"/><path fill="#613dbd" d="M95.885 1104.28c.666 3.47.57 10.05.103 13.5.59-2.58.9-4.14 2.242-6.44-.506 9.44-1.245 21.61-.344 31.01l8.39-22.12c.187 3.04-.342 3.17 1.41 5.03-1.189 3.64-6.356 15.86-5.286 18.42l.971.42c-3.498 1.4-3.335 2.76-4.358 6.55-3.343.05-5.555-.01-8.887-.29l-.124-.37c2.038-7.37-.57-15.38 3-24.94 1.844-2.94 1.324-15.98 2.883-20.77"/><path fill="#7c5fdb" d="M93.002 1125.05c2.392 7.19.954 17.04 2.807 24.5l1.005-2.79.656-.04 1.543 3.93c-3.343.05-5.555-.01-8.887-.29l-.124-.37c2.038-7.37-.57-15.38 3-24.94"/><path fill="#613dbd" d="m918.785 495.04 1.097.745c.431 3.212.632 4.723 1.542 7.868.175-2.447.269-4.425.738-6.852l.775-.278c-.33 8.901.566 28.567-.52 36.096l.964 2.565-.006.52c-1.573.048-4.407-.377-6.07-.573l1.145-.14c-.436-13.133 1.151-25.525.335-39.951"/><path fill="#613dbd" d="M918.45 534.991c2.462-3.568.666-8.164 2.747-14.238.823 3.003.887 8.388 1.22 11.866l.964 2.565-.006.52c-1.573.048-4.407-.377-6.07-.573z"/><path fill="#613dbd" d="M71.228 1113.49c1.43 4.6 7.52 22.4 7.932 25.88l-.13 1.27.924.73c-.421 1.69-.86 3.86-1.516 5.43-.498-1.13-1.394-2.71-1.994-3.85-2.835-5.07-2.12-9.61-6.32-14.21 1.471-.46 1.602-.35 2.693-1.4-.099-4.26-1.425-7.8-1.589-13.85"/><path fill="#613dbd" d="M933.388 511.661c.936 1.454.695 1.643 1.997 2.13-1.087 3.501-5.203 18.687-6.082 20.669-1.883.52-4.011 1.255-5.928 1.244l.006-.52 2.095-.825c2.962-7.03 4.705-15.802 7.912-22.698"/><path fill="#613dbd" d="m941.76 523.528 1.271 2.78c-1.536 2.131-4.482 5.821-5.144 8.108l1.151.741c-1.967.89-3.955.651-6.169.648 3.392-4.403 4.401-7.618 8.891-12.277"/><path fill="#7c5fdb" d="M1015.92 311.692c2.62 1.718 5.43 3.644 8.08 5.259v3.198c-3.09-1.97-6.21-3.908-9.34-5.813z"/><path fill="#613dbd" fill-opacity=".11" d="M121.215 266.526c2.025.223 7.285 5.968 8.383 7.89-3.279-1.181-6.89-4.819-8.383-7.89"/></svg>