<svg xmlns="http://www.w3.org/2000/svg" width="1024" height="1536" viewBox="0 0 1024 1536"><path fill="#723fc2" d="M586.473 756.917c-14.516-43.359 17.789-49.479 25.918-81.126 2.361-9.191-14.293-27.453-12.489-46.195 2.425-25.197 15.852-28.138 24.292-48.957 4.607-11.363-1.831-29.717 2.175-44.188 4.11-14.845 12.525-27.12 25.816-35.144 20.433-12.338 35.006-9.228 56.097-4.198 5.462-1.915 10.781-3.525 16.569-4.105 13.866-1.389 26.956 2.05 38.994 8.899 53.376 30.371 39.454 93.676 76.717 123.759 28.12 19.305 50 16.289 77.066 34.848 9.028 6.191 15.345 12.711 21.733 21.578 2.616 3.632 7.58 16.939 9.479 18.041 30.76 2.396 56.33 11.202 75.16 37.162v128.073c-9.25 26.822-17.62 54.735-26.475 81.806a3534 3534 0 0 1-37.965 109.78c-8.084 22.32-16.147 43.98-25.701 65.74-11.391 25.94-29.39 49.94-59.263 55.01-12.816 2.96-33.376 2.8-47.207 4-.259.27-.517.53-.776.79-38.843 1.5-90.343.79-129.227-1.35-5.744-1.92-48.431-2.81-56.014-2.87-6.502.13-16.839-.61-23.374-1.24-2.018-.88-13.213-1.66-15.847-1.17-6.914.46-20.637-.69-28.369-.95-2.717-.58-11.095-.82-14.229-1.08-14.254-1.15-29.615-1.24-43.453-5.03l.185 9.22a3081 3081 0 0 1-1.534 70.95c-.282 9.65-.265 25.13-1.18 34.35-.468 7.16.34 27.49-2.677 31.64-9.201-.12-32.322-5.42-42.077-7.43-2.053 4.18-2.778 6.37-4.192 10.85l-.543.9c-2.817 14.63 6.246 26.6 7.642 42.49 4.458 3.58 10.653 11.42 4.929 16.23-13.815 11.6-40.371 8.59-56.65 13.39-28.615 1.01-66.143 2.25-94.031-4.02-4.738-1.07-8.281-3.4-10.602-7.79-2.084-.53-5.84-.66-8.095-.89-48.279-4.97-97.672-8.5-144.715-21.06-66.488-17.74-46.452-41.82 8.497-53.03-30.724-18.91 2.782-29.2 20.185-33.74 2.815-.8 6.789-1.52 9.746-2.14 9.712-2.74 21.69-4.94 31.702-7.01 29.615-5.94 53.204-19.26 63.695-49.06-12.218-6.56-22.583-24.51-28.16-36.83l-.449-.54-.115-1.49c10.363-15.18 25.909-40.55 34.993-55.52 2.388-3.79 4.265-6.92 6.375-10.87 3.1-4.74 5.686-9.51 8.436-14.45a2774 2774 0 0 1 39.545-63.94c9.658-15.49 19.771-30.759 29.194-46.38l-.175-4.416q.024-3.653.157-7.304c.711-18.046 7.541-39.314 21.22-51.523 23.953-21.379 54.267-16.113 83.09-14.912-3.65-7.553-5.916-18.112-6.994-26.412-3.605-5.046-10.074-6.136-14.26-10.41-12.238-12.497-26.07-31.614-21.334-49.989 1.508-5.849 4.547-8.842 8.588-13.054-1.919-7.341-4.305-14.972-6.426-22.304-10.064-28.506-18.278-42.832 22.999-39.984 10.81.746 32.192-3.35 37.337 9.239 11.777 29.526 20.859 60.379 32.039 90.17l5.313 15.433c3.609-5.601 11.01-21.876 14.286-28.488l29.888-60.187c-2.465-4.09-3.666-7.201-5.459-11.572M386.277 1287.98c-5.21-7.35-6.947-8.72-4.54-17.69l1.369-6.68c-.302-.44-.753-1.18-1.289-1.39-13.223-5.09-28.242-9.26-40.355-16.81-5.496 8.51-17.001 33.13-12.858 42.74 16.547-1.2 36.739-2.64 53.47-2.42 1.298.02 3.175 1.42 4.203 2.25m545.07-588.228 8.228.078c-8.98-17.238-17.817-29.674-36.908-36.932 15.043 9.267 23.334 20.211 28.68 36.854"/><path fill="#fef9f4" d="M386.029 978.214q.024-3.653.157-7.304c.711-18.046 7.541-39.314 21.22-51.523 23.953-21.379 54.267-16.113 83.09-14.912 8.115 17.292 16.626 30.954 34.133 40.18l-.797.649c5.635 1.61 39.245 7.268 45.242 7.955l6.418-5.573c4.911-4.299 12.802-11.874 16.837-16.823 8.237-1.482 85.901 11.373 99.009 13.791-4.253 10.957-11.922 37.991-2.31 47.386 2.977.524 3.975-1.42 5.676-3.745l4.097-.804c6.471 4.51-.152 12.479 6.357 16.489 1.375-.4 3.747-1.19 5.06-1.26-5.251 13.02-10.701 27.22-16.444 39.92-15.536 38.52-24.32 64.97-71.15 64.52-27.785.25-83.718-8.57-102.899 11.14a46 46 0 0 0-3.521 4.07c-.558 13.61-.452 32.61-.104 46.43l.185 9.22a3081 3081 0 0 1-1.534 70.95c-.282 9.65-.265 25.13-1.18 34.35-.468 7.16.34 27.49-2.677 31.64-9.201-.12-32.322-5.42-42.077-7.43-2.053 4.18-2.778 6.37-4.192 10.85l-.543.9c-2.817 14.63 6.246 26.6 7.642 42.49 4.458 3.58 10.653 11.42 4.929 16.23-13.815 11.6-40.371 8.59-56.65 13.39-28.615 1.01-66.143 2.25-94.031-4.02-4.738-1.07-8.281-3.4-10.602-7.79-2.084-.53-5.84-.66-8.095-.89-48.279-4.97-97.672-8.5-144.715-21.06-66.488-17.74-46.452-41.82 8.497-53.03-30.724-18.91 2.782-29.2 20.185-33.74 2.815-.8 6.789-1.52 9.746-2.14 9.712-2.74 21.69-4.94 31.702-7.01 29.615-5.94 53.204-19.26 63.695-49.06-12.218-6.56-22.583-24.51-28.16-36.83l-.449-.54-.115-1.49c10.363-15.18 25.909-40.55 34.993-55.52 2.388-3.79 4.265-6.92 6.375-10.87 3.1-4.74 5.686-9.51 8.436-14.45a2774 2774 0 0 1 39.545-63.94c9.658-15.49 19.771-30.759 29.194-46.38zm-57.425 309.936c16.547-1.2 36.739-2.64 53.47-2.42 1.298.02 3.175 1.42 4.203 2.25-5.21-7.35-6.947-8.72-4.54-17.69l1.369-6.68c-.302-.44-.753-1.18-1.289-1.39-13.223-5.09-28.242-9.26-40.355-16.81-5.496 8.51-17.001 33.13-12.858 42.74"/><path fill="#e1cac3" d="M348.028 1231.89c5.314 3.11 9.276 6.9 14.908 9.73 5.95 5.04 17.665 10.22 21.74 13.67-.284 1.02-1.928 9.16-1.57 8.32-.302-.44-.753-1.18-1.289-1.39-13.223-5.09-28.242-9.26-40.355-16.81l.185-1.2c1.995-4.17 4.123-8.28 6.381-12.32"/><path fill="#c3b1fe" d="m296.385 1212.65.496.03c4.478 2.3 41.913 28.54 44.766 31.53l-.185 1.2c-5.496 8.51-17.001 33.13-12.858 42.74 16.547-1.2 36.739-2.64 53.47-2.42 1.298.02 3.175 1.42 4.203 2.25 6.643 4.76 9.266 6.18 17.141 9.27 2.705 1.07 10.392 3.13 11.661 4.69l.393-.08c16.562 6.32 31.707 12.03 48.61 17.42-2.817 14.63 6.246 26.6 7.642 42.49 4.458 3.58 10.653 11.42 4.929 16.23-13.815 11.6-40.371 8.59-56.65 13.39-28.615 1.01-66.143 2.25-94.031-4.02-4.738-1.07-8.281-3.4-10.602-7.79-2.084-.53-5.84-.66-8.095-.89-48.279-4.97-97.672-8.5-144.715-21.06-66.488-17.74-46.452-41.82 8.497-53.03-30.724-18.91 2.782-29.2 20.185-33.74 2.815-.8 6.789-1.52 9.746-2.14 9.712-2.74 21.69-4.94 31.702-7.01 29.615-5.94 53.204-19.26 63.695-49.06"/><path fill="#fef9f4" d="M415.472 1301.86c16.562 6.32 31.707 12.03 48.61 17.42-2.817 14.63 6.246 26.6 7.642 42.49 4.458 3.58 10.653 11.42 4.929 16.23-13.815 11.6-40.371 8.59-56.65 13.39-28.615 1.01-66.143 2.25-94.031-4.02-4.738-1.07-8.281-3.4-10.602-7.79 3.784-18.81 46.578-32.86 63.496-39.87 17.831-12.35 28.209-12.41 36.213-37.77z"/><path fill="#feb990" d="M415.472 1301.86c16.562 6.32 31.707 12.03 48.61 17.42-2.817 14.63 6.246 26.6 7.642 42.49-7.634 7.76-52.572 10.7-65.144 10.77-6.375-13.87-10.706-28.92-27.714-32.83 17.831-12.35 28.209-12.41 36.213-37.77z"/><path fill="#feb990" d="m296.385 1212.65.496.03c4.478 2.3 41.913 28.54 44.766 31.53l-.185 1.2c-5.496 8.51-17.001 33.13-12.858 42.74-1.137 1.76-.768 13.77-.637 16.49-1.475 1.28-3.339 2.68-5.289 2.92-21.578 2.62-48.103-1.85-69.656-2.58-.537-13.62-7.499-36.74-20.332-43.27 29.615-5.94 53.204-19.26 63.695-49.06"/><path fill="#fef9f4" d="M200.988 1268.72c9.712-2.74 21.69-4.94 31.702-7.01 12.833 6.53 19.795 29.65 20.332 43.27 21.553.73 48.078 5.2 69.656 2.58 1.95-.24 3.814-1.64 5.289-2.92 6.931 5.01 9.419 14.67-.504 17.59-7.907 2.25-17.082 1.76-25.321 1.76-31.718 0-65.615-1.27-96.66-7.84a156 156 0 0 1-34.425-11.55c-30.724-18.91 2.782-29.2 20.185-33.74 2.815-.8 6.789-1.52 9.746-2.14"/><path fill="#fef9f4" d="m384.676 1255.29 18.142-86.88c5.845-28.61 20.338-108.64 34.598-131.26 3.91-6.21 10.438-11.82 17.751-13.35 7.653-1.6 15.086 1.27 21.36 5.55 20.986 14.3 32.104 41.84 36.253 66.08 1.529 8.94 1.804 18.06 3.424 26.94-.558 13.61-.452 32.61-.104 46.43l.185 9.22a3081 3081 0 0 1-1.534 70.95c-.282 9.65-.265 25.13-1.18 34.35-.468 7.16.34 27.49-2.677 31.64-9.201-.12-32.322-5.42-42.077-7.43-2.053 4.18-2.778 6.37-4.192 10.85l-.543.9c-16.903-5.39-32.048-11.1-48.61-17.42l-.393.08c-1.269-1.56-8.956-3.62-11.661-4.69-7.875-3.09-10.498-4.51-17.141-9.27-5.21-7.35-6.947-8.72-4.54-17.69l1.369-6.68c-.358.84 1.286-7.3 1.57-8.32"/><path fill="#f7936f" d="M417.494 1291.93a849 849 0 0 0 51.323 15.6c-2.053 4.18-2.778 6.37-4.192 10.85l-.543.9c-16.903-5.39-32.048-11.1-48.61-17.42.068-1.61 1.594-7.99 2.022-9.93"/><path fill="#e1cac3" d="M381.737 1270.29c-.122 2.71-.54 5.19.545 7.58 5.448 4.64 27.907 12.18 35.212 14.06-.428 1.94-1.954 8.32-2.022 9.93l-.393.08c-1.269-1.56-8.956-3.62-11.661-4.69-7.875-3.09-10.498-4.51-17.141-9.27-5.21-7.35-6.947-8.72-4.54-17.69"/><path fill="#e7dad7" d="M362.936 1241.62c1.023-4.41 6.288-17.16 8.024-22.98 11.576-38.83 24.934-77.79 38.367-116.06 7.137-20.33 13.086-44.18 22.465-63.15 6.411-12.97 13.173-16.52 25.774-20.26l.151-.64c-3.885-3.14-8.957-3.25-12.763-6.34l.37-.89c14.821-4.82 69.305 31.95 82.985 40.66a5194 5194 0 0 0 51.43 31.71c10.376 6.2 35.765 18.07 42.885 23.49-27.785.25-83.718-8.57-102.899 11.14a46 46 0 0 0-3.521 4.07c-1.62-8.88-1.895-18-3.424-26.94-4.149-24.24-15.267-51.78-36.253-66.08-6.274-4.28-13.707-7.15-21.36-5.55-7.313 1.53-13.841 7.14-17.751 13.35-14.26 22.62-28.753 102.65-34.598 131.26l-18.142 86.88c-4.075-3.45-15.79-8.63-21.74-13.67"/><path fill="#e7dad7" d="M592.329 930.863c8.237-1.482 85.901 11.373 99.009 13.791-4.253 10.957-11.922 37.991-2.31 47.386 2.977.524 3.975-1.42 5.676-3.745l4.097-.804c6.471 4.51-.152 12.479 6.357 16.489 1.375-.4 3.747-1.19 5.06-1.26-5.251 13.02-10.701 27.22-16.444 39.92-1.235-2.46-1.554-5.85-1.737-8.61-1.13-17.06-4.724-32-10.191-48.267-13.645-8.134-94.794-29.422-112.772-32.504l6.418-5.573c4.911-4.299 12.802-11.874 16.837-16.823"/><path fill="#fef9f4" d="M592.329 930.863c.958 1.205 1.689 2.033 3.214 2.404 15.91 3.872 32.115 6.552 48.088 9.704 10.813 2.134 24.525 6.12 35.34 8.982-.821 7.256-1.599 14.746-2.577 21.965-19.701-5.287-37.495-11.862-57.81-15.545-4.699-.852-40.794-9.245-43.092-10.687 4.911-4.299 12.802-11.874 16.837-16.823"/><defs><linearGradient id="a" x1="472.71" x2="415.005" y1="982.547" y2="914.189" gradientUnits="userSpaceOnUse"><stop offset="0" stop-color="#3b1d78"/><stop offset="1" stop-color="#672d9b"/></linearGradient></defs><path fill="url(#a)" d="M386.029 978.214q.024-3.653.157-7.304c.711-18.046 7.541-39.314 21.22-51.523 23.953-21.379 54.267-16.113 83.09-14.912 8.115 17.292 16.626 30.954 34.133 40.18l-.797.649c-23.326-3.24-66.244-8.72-88.43-2.972a66.7 66.7 0 0 0-23.547 11.599c-11.514 8.711-17.18 17.787-25.651 28.699z"/><path fill="#f7936f" d="M301.806 1198.81c13.105 9.46 34.777 23.32 46.222 33.08a219 219 0 0 0-6.381 12.32c-2.853-2.99-40.288-29.23-44.766-31.53 1.332-4.49 3.287-9.43 4.925-13.87"/><path fill="#e1cac3" d="M268.225 1175.82c10.852 8.25 23.332 15.31 33.581 22.99-1.638 4.44-3.593 9.38-4.925 13.87l-.496-.03c-12.218-6.56-22.583-24.51-28.16-36.83"/><path fill="#501f8f" d="M948.84 700.129c30.76 2.396 56.33 11.202 75.16 37.162v128.073c-9.25 26.822-17.62 54.735-26.475 81.806a3534 3534 0 0 1-37.965 109.78c-8.084 22.32-16.147 43.98-25.701 65.74-11.391 25.94-29.39 49.94-59.263 55.01-12.816 2.96-33.376 2.8-47.207 4-.259.27-.517.53-.776.79-38.843 1.5-90.343.79-129.227-1.35-5.744-1.92-48.431-2.81-56.014-2.87-6.502.13-16.839-.61-23.374-1.24-2.018-.88-13.213-1.66-15.847-1.17-6.914.46-20.637-.69-28.369-.95-2.717-.58-11.095-.82-14.229-1.08-14.254-1.15-29.615-1.24-43.453-5.03-.348-13.82-.454-32.82.104-46.43a46 46 0 0 1 3.521-4.07c19.181-19.71 75.114-10.89 102.899-11.14 46.83.45 55.614-26 71.15-64.52 5.743-12.7 11.193-26.9 16.444-39.92-1.313.07-3.685.86-5.06 1.26-6.509-4.01.114-11.979-6.357-16.489l-4.097.804c-1.701 2.325-2.699 4.269-5.676 3.745-9.612-9.395-1.943-36.429 2.31-47.386 10.022-23.859 43.287-50.858 65.326-64.603 4.152-2.59 18.059-5.425 23.369-6.617 4.428-.907 13.786-2.522 17.119-4.726 4.22 1.278 5.553 1.998 8.325 5.722 1.753 13.953 2.369 20.881.954 34.761l6.1.137c11.043.89 24.136.914 35.02 2.541 26.734 3.997 53.829 8.741 80.486 13.238 12.105-4.366 24.038-13.209 27.138-26.306 5.55-23.452-6.883-44.845-18.382-64.23-.797-9.448-2.544-2.402 4.115-9.521 19.585-20.938 12.491-45.793.906-67.135 8.662-13.956 10.793-29.259 8.428-45.377-.481-3.278-2.028-9.571-1.402-12.409"/><path fill="#feb990" d="M797.152 868.708c4.22 1.278 5.553 1.998 8.325 5.722 1.753 13.953 2.369 20.881.954 34.761-9.92.456-27.676 1.07-36.84 4.093-9.431 21.441-19.501 22.689-29.596 41.924-4.151 7.909-3.576 29.862-7.908 35.816-5.522.538-5.773-8.236-6.534-12.485l-1.924.28c.085 6.054.36 16.524-2.91 21.541l-1.658 1.01c-3.626-.99-4.232-3.371-5.568-6.586l-.566-.111c-.638 1.996-1.917 6.347-2.709 8.047-1.313.07-3.685.86-5.06 1.26-6.509-4.01.114-11.979-6.357-16.489l-4.097.804c-1.701 2.325-2.699 4.269-5.676 3.745-9.612-9.395-1.943-36.429 2.31-47.386 10.022-23.859 43.287-50.858 65.326-64.603 4.152-2.59 18.059-5.425 23.369-6.617 4.428-.907 13.786-2.522 17.119-4.726"/><path fill="#f7936f" d="m703.801 938.882 1.106.621c-.216 2.508-1.031 4.621-1.972 6.969-5.226 13.035-4.612 29.497-8.231 41.823-3.588-10.956 3.799-39.091 9.097-49.413"/><path fill="#f7936f" d="M728.181 939.823c-.285 12.929-2.93 25.99-2.628 38.716l-1.924.28c-2.304-10.488 1.633-28.681 4.552-38.996"/><path fill="#f7936f" d="M712.927 994.673a53.96 53.96 0 0 1-1.063-30.541c-.91 13.465 2.033 22.547 1.629 30.652z"/><path fill="#2e2341" d="M586.473 756.917c-14.516-43.359 17.789-49.479 25.918-81.126 2.361-9.191-14.293-27.453-12.489-46.195 2.425-25.197 15.852-28.138 24.292-48.957 4.607-11.363-1.831-29.717 2.175-44.188 4.11-14.845 12.525-27.12 25.816-35.144 20.433-12.338 35.006-9.228 56.097-4.198 5.462-1.915 10.781-3.525 16.569-4.105 13.866-1.389 26.956 2.05 38.994 8.899 53.376 30.371 39.454 93.676 76.717 123.759 28.12 19.305 50 16.289 77.066 34.848 9.028 6.191 15.345 12.711 21.733 21.578 2.616 3.632 7.58 16.939 9.479 18.041-.626 2.838.921 9.131 1.402 12.409 2.365 16.118.234 31.421-8.428 45.377 11.585 21.342 18.679 46.197-.906 67.135-6.659 7.119-4.912.073-4.115 9.521-7.976-12.397-17.067-25.152-25.792-37.093-37.632-51.507-62.792-99.983-134.381-94.434-4.968 25.606-102.786 71.34-102.313 6.927-45.674 6.856-59.981 19.846-82.375 58.518-2.465-4.09-3.666-7.201-5.459-11.572m344.874-57.165 8.228.078c-8.98-17.238-17.817-29.674-36.908-36.932 15.043 9.267 23.334 20.211 28.68 36.854"/><path fill="#feb990" d="M644.846 575.675c2.126-27.311 13.104-42.692 38.829-51.666 4.415 20.93 19.126 41.88 36.959 53.838 8.639 5.792 15.042 5.55 23.113 10.252 2.695 1.57 3.382 9.416 6.422 11.865 3.67-1.366 3.251-3.982 5.316-6.499 17.357-21.153 33.855 5.891 23.899 24.413a24.15 24.15 0 0 1-9.102 9.326c-.734-.113-5.625-.859-5.77-.786-6.906 3.458-5.016 3.944-12.864 2.694-2.857 13.097-2.796 15.139-.299 28.508 1.345 18.436.669 44.591 25.271 45.424-4.968 25.606-102.786 71.34-102.313 6.927 11.919-1.518 17.018-3.103 20.192-15.473.513-4.771 1.931-16.295-.423-19.923-25.742 3.453-42.994-13.596-49.844-37.118a71.8 71.8 0 0 1-2.749-16.038c-.418-6.892 1.226-38.561 3.945-43.483-.351-.685-.418-1.454-.582-2.261"/><path fill="#f7936f" d="M694.076 674.575c21.067-6.352 20.134-5.961 37.193-18.519-2.683 15.154-8.282 20.169-20.732 30.039-2.843 2.253-12.788 7.465-16.038 8.403.513-4.771 1.931-16.295-.423-19.923"/><path fill="#2e2341" d="m644.846 575.675.648-.543c4.398-3.763 3.828-5.417 10.883-5.981 4.437-.354 6.066 3.007 6.757 6.674-7.435.275-6.008-7.781-17.706 2.111-.351-.685-.418-1.454-.582-2.261"/><path fill="#f7936f" d="m695.948 628.932 1.366.9c2.259 9.508-18.47 16.742-28.427 10.929-.846-1.413-.866-1.727-1.329-3.27 4.831-2.972 12.41 9.149 28.39-8.559"/><path fill="#2e2341" d="M696.915 589.324c10.269-.196 9.471 8.841 4.838 15.289-9.36.686-9.313-9.129-4.838-15.289"/><path fill="#2e2341" d="M655.447 587.718c9.607.911 9.024 8.902 4.509 15.306-9.297.323-9.397-9.52-4.509-15.306"/><path fill="#f7936f" d="M670.818 590.768c6.197 5.404-5.183 20.875-3.686 26.517.811 3.054 5.53 5.028 8.205 6.311l-.376 1.304c-8.007.193-8.838-.851-13.495-7.318 4.278-11.359 9.443-14.015 9.352-26.814"/><defs><linearGradient id="b" x1="702.935" x2="701.6" y1="580.346" y2="571.437" gradientUnits="userSpaceOnUse"><stop offset="0" stop-color="#30282f"/><stop offset="1" stop-color="#1d1b3c"/></linearGradient></defs><path fill="url(#b)" d="M694.267 571.697c7.795-.819 17.807-1.287 20.279 8.417l-.675.561-1.059-.858c-8.059-7.014-12.208-3.086-20.756-4.787l-.158-1.026z"/><path fill="#f7936f" d="M770.184 595.599c.836.775.575.593 1.069 1.737-2.939.601-5.241.39-6.574 3.271-3.409 7.369.514 10.144-5.852 16.79l-.503-.43c1.184-5.247 2.106-11.756 3.933-16.674 1.01-2.72 5.195-3.82 7.927-4.694"/><path fill="#723fc2" d="M751.648 629.112c7.848 1.25 5.958.764 12.864-2.694.145-.073 5.036.673 5.77.786 4.829 5.25 9.069 10.406 8.835 17.868-.296 9.425-8.574 17.103-18.081 15.938-3.914-.48-6.378-1.408-9.687-3.39-2.497-13.369-2.558-15.411.299-28.508"/><path fill="#501f8f" d="M939.575 699.83c9.201 13.762 3.7 37.802-1.464 52.319-4.313-19.354.713-29.472-6.764-52.397z"/><defs><linearGradient id="c" x1="925.92" x2="921.279" y1="680.416" y2="683.661" gradientUnits="userSpaceOnUse"><stop offset="0" stop-color="#3d2c4e" stop-opacity="0"/><stop offset="1" stop-color="#422d57" stop-opacity=".051"/></linearGradient></defs><path fill="url(#c)" d="M902.667 662.898c19.091 7.258 27.928 19.694 36.908 36.932l-8.228-.078c-5.346-16.643-13.637-27.587-28.68-36.854"/><path fill="#2e2341" d="M450.07 782.306c-10.064-28.506-18.278-42.832 22.999-39.984 10.81.746 32.192-3.35 37.337 9.239 11.777 29.526 20.859 60.379 32.039 90.17l5.313 15.433c1.264 4.555 2.562 7.763 1.415 12.395-2.025 3.018-3.483 3.332-6.985 4.006q-1.076.206-2.156.383c-.857 19.583-11.24 29.439-29.849 33.119-13.77-3.912-15.261-9.94-19.411-22.98l-7.27-6.024c-3.605-5.046-10.074-6.136-14.26-10.41-12.238-12.497-26.07-31.614-21.334-49.989 1.508-5.849 4.547-8.842 8.588-13.054-1.919-7.341-4.305-14.972-6.426-22.304"/><path fill="#feb990" d="M456.496 804.61c11.306-8.279 18.278-10.256 33.089-8.749 2.17.221 4.588 1.045 6.108 2.661.226 1.674.606 1.831-.634 3.205-5.392 5.977-13.971 5.315-20.555 8.614-4.896 2.454-9.602 7.119-13.378 10.959 8.397-2.441 42.463-12.958 48.151-3.782.451 2.373.51 2.472-.408 4.62-2.103 2.269-5.66 2.747-8.71 3.262l3.424.811.526 1.509c3.623-.019 2.427-.458 5.091 1.21 1.339 2.39 1.118 1.313.805 4.066-3.59 5.777-24.996 10.763-34.886 16.69 9.937-2.404 23.031-8.211 31.321-4.577l1.083 1.345c-1.547 9.327-23.299 12.173-25.718 19.28.668 2.408 2.173 4.373 4.323 5.69 7.187 4.401 43.376 2.382 53.904 2.524-.857 19.583-11.24 29.439-29.849 33.119-13.77-3.912-15.261-9.94-19.411-22.98l-7.27-6.024c-3.605-5.046-10.074-6.136-14.26-10.41-12.238-12.497-26.07-31.614-21.334-49.989 1.508-5.849 4.547-8.842 8.588-13.054"/><path fill="#100a12" d="m500.159 825.4 3.424.811.526 1.509c-9.091.54-19.306 2.626-28.565 3.902 8.012-3.257 16.159-4.541 24.615-6.222"/><path fill="#501f8f" d="M780.033 873.434c1.291-2.915 7.158-10.712 9.469-15.676 9.93-21.326 13.71-38.859 12.452-62.178 6.907 8.966 19.107 22.433 24.288 31.69-1.404 7.714-10.698 29.395-9.534 32.938l1.536.527c-6.178 1.024-15.36 2.225-20.346 5.755-.48 1.06-.847 1.352-.746 2.218-3.333 2.204-12.691 3.819-17.119 4.726"/><path fill="#37196b" d="m818.244 860.735-1.536-.527c-1.164-3.543 8.13-25.224 9.534-32.938l19.668 28.315c-8.978 2.255-19.148 2.96-27.666 5.15"/><path fill="#f7936f" d="M805.477 874.43c8.244 11.055 9.643 21.403 7.054 34.898l-6.1-.137c1.415-13.88.799-20.808-.954-34.761"/><path fill="#c3b1fe" d="M641.372 1178.27c7.583.06 50.27.95 56.014 2.87-11.395-.09-22.413-.69-33.778-1.3-3.647 20.2-14.054 48.7-18.874 70.08-2.869 9.46-6.91 27.82-9.706 35.4 13.242.54 29.02 1.52 42.161 1.45 15.835.53 32.21 1.32 48.008 1.52 3.843.21 9.84.73 13.508.71 4.416.25 15.399 1.13 19.491.86 48.781 2.73 114.003 7.65 161.562 19.93 2.564 5.25 20.168 49.6 26.904 30.49 1.826-5.18-8.225-18.88-9.697-25.09 10.95 2.89 54.806 14.5 49.297 26.45-9.203 19.96-84.825 32.18-102.005 34.77-123.545 18.59-249.992 20.54-374.508 18.09a2827 2827 0 0 1-58.237-1.28c-9.243-.3-22.489-.53-31.509-1.83 16.279-4.8 42.835-1.79 56.65-13.39 5.724-4.81-.471-12.65-4.929-16.23-1.396-15.89-10.459-27.86-7.642-42.49l.543-.9c1.414-4.48 2.139-6.67 4.192-10.85 9.755 2.01 32.876 7.31 42.077 7.43 3.017-4.15 2.209-24.48 2.677-31.64 4.056.82 36.919.71 43.543.76l4.096.18 4.338-.07 10.28.53c-.797 3.04-9.275 28.06 5.77 19.95 1.6-.86 5.522-16.44 6.473-19.95 10.127.15 20.253.38 30.377.68l2.301.28c2.728-13.43 25.909-102.97 25.286-106.44z"/><path fill="#2e2341" d="M641.372 1178.27c7.583.06 50.27.95 56.014 2.87-11.395-.09-22.413-.69-33.778-1.3-3.647 20.2-14.054 48.7-18.874 70.08-2.869 9.46-6.91 27.82-9.706 35.4-3.21 10.6-21.315 81.32-24.77 85.59-5.275 3.44-10.18-.07-9.006-6.4 1.637-8.82 4.186-17.38 6.371-26.09l13.126-52.74c2.728-13.43 25.909-102.97 25.286-106.44z"/><path fill="#e1cac3" d="M468.817 1307.53c9.755 2.01 32.876 7.31 42.077 7.43-13.276 7.65-31.592 4.79-46.269 3.42 1.414-4.48 2.139-6.67 4.192-10.85"/><path fill="#2e2341" d="M233.519 1010.14c13.891.2 38.901 1.13 52.336-.02 1.901.01 4.969.13 6.762.01 9.92.08 41.002-1.75 49.939 2.12 1.25.54 2.751 5.02 3.168 6.82-3.282 6.99-6.323 6.65-13.15 7.01-8.016-.11-16.032-.14-24.048-.07 1.482 11.39 2.874 23.41 4.597 34.73 1.089 10.84 2.736 21.43 4.342 32.21-2.75 4.94-5.336 9.71-8.436 14.45-1.622-8.4-2.548-15.59-3.567-24.11a4181 4181 0 0 0-8.306-57.38l-103.591.11 4.029 134.98c.455 15.17.262 48.88 2.018 62.86.138 8.39.156 17.15.704 25.49.316 6.45.54 12.91.672 19.37-2.957.62-6.931 1.34-9.746 2.14-3.856-70.54-3.896-141.96-7.066-212.58-.482-10.75-.882-21.59-1.085-32.34l-129.667-.02c-2.236 21.29-5.83 44.59-8.569 66.04L27.51 1229.44l-5.466 45.19c-.817 7.15-.42 24.48-6.956 27.51-2.84-.3-1.962.17-4.034-1.44-2.145-4.93 1.051-21.64 1.72-27.97q4.485-40.185 9.4-80.31 9.642-83.295 20.195-166.47c-9.508-.09-31.43 3.17-38.282-4.28-1.82-1.97-.88-5.88-.282-8.37 1.153-1.01 3.032-2.52 4.543-2.65 12.828-1.17 28.267-.43 41.218-.54l47.678.17 77.328-.04z"/><path fill="#e7dad7" d="M76.353 914.408c6.812-5.939 35.742-4.755 45.484-4.795l-.369 2.25 1.237 2.796c3.961.437 9.649.255 13.627-.178l3.609-.226 7.565.214c.525-3.28-.091-2.949 1.844-4.559 9.026-.449 35.098-.353 42.491 3.407 9.591 11.954-3.573 82.335-15.535 94.763l-1.735 2.16-77.328.04-2.972-2.35c-13.191-13.213-25.326-78.449-17.918-93.522"/><path fill="#e1cac3" d="m94.27 1007.93 82.036.15-1.735 2.16-77.328.04z"/><path fill="#c8b3bd" d="M149.35 909.91c9.026-.449 35.098-.353 42.491 3.407-13.712.273-31.461 2.694-44.335 1.152.525-3.28-.091-2.949 1.844-4.559"/><path fill="#e1cac3" d="M76.353 914.408c6.812-5.939 35.742-4.755 45.484-4.795l-.369 2.25c-5.671.031-29.969-.823-33.63 1.49-3.818.312-7.686.589-11.485 1.055"/><path fill="#c8b3bd" d="m121.468 911.863 1.237 2.796c-11.126.971-23.418-.931-34.866-1.306 3.66-2.313 27.958-1.459 33.629-1.49"/><path fill="#723fc2" d="M226.539 938.572c1.662-2.626 3.115-5.181 6.355-6.015 6.584-1.694 54.929-1.755 59.233 1.218 1.587 1.097 2.686 3.646 3.434 5.38l.135 8.789c2.972.398 6.585.733 9.326 2.015 15.263 7.134 16.573 30.146 3.011 39.623-3.049 2.131-8.715 4.208-12.485 4.18-.528 9.018-1.293 11.968-9.693 16.358-13.435 1.15-38.445.22-52.336.02-7.785-7.23-7.444-15.138-7.325-25.122.182-15.306-.59-31.218.345-46.446m69.03 47.327c3.068-1.472 6.232-2.785 8.848-4.937 7.547-11.144 4.888-20.611-8.724-24.147-.036 9.616.051 19.494-.124 29.084"/><path fill="#723fc2" d="m226.539 938.572 12.872.462.492.814c.39 21.316.015 43.03.849 64.252l8.998.18c10.094.57 31.086-.68 39.297.88 1.849-1.23 3.815-8.16 4.761-10.819l1.74-.579c-.528 9.018-1.293 11.968-9.693 16.358-13.435 1.15-38.445.22-52.336.02-7.785-7.23-7.444-15.138-7.325-25.122.182-15.306-.59-31.218.345-46.446"/><path fill="#955ed8" d="M239.903 939.848c3.286-.096 6.754-.253 10.024-.189-.159 20.945.388 43.938-.177 64.621l-8.998-.18c-.834-21.222-.459-42.936-.849-64.252"/><path fill="#501f8f" d="M226.539 938.572c1.662-2.626 3.115-5.181 6.355-6.015 6.584-1.694 54.929-1.755 59.233 1.218 1.587 1.097 2.686 3.646 3.434 5.38-3.578.475-13.744.136-17.871.094a1679 1679 0 0 0-38.279-.215z"/><path fill="#723fc2" d="M140.517 773.319c-7.531-9.933-8.312-33.122-6.575-45.372a86.84 86.84 0 0 1 33.859-56.915c4.587-3.39 29.563-19.374 33.115-9.708 5.538 15.069 2.98 39.494-1.627 54.672-6.529 21.509-28.856 53.928-50.544 62.209l-2.008-.881-.781-2.509-1.82 1.823z"/><path fill="#955ed8" d="M164.782 823.535c.48-14.271 2.83-24.029 13.87-34.122 23.897-21.849 62.805-21.162 86.967-.265 3.298 2.853 1.957 6.379-1.177 8.488-20.959 14.105-66.772 30.718-91.754 27.543a30 30 0 0 1-3.859-.711c-1.059-2.167.209 1.087-4.047-.933"/><path fill="#723fc2" d="M107.454 864.441c-16.944 13.411-44.779 20.451-65.707 24.917-2.692.575-4.983.627-7.246-.995-2.525-4.368-1.885-7.859-1.253-12.793 2.883-22.498 21.288-49.965 46.988-46.003 13.818 2.13 21.14 14.316 28.531 25.141 2.265 8.509 7.992 20.648 11.123 30.172-.298 3.206-.386 3.582-2.414 6.068-2.719-8.84-5.463-18.439-10.022-26.507"/><path fill="#2e2341" d="M826.613 1182.49c.259-.26.517-.52.776-.79 13.831-1.2 34.391-1.04 47.207-4l40.73 90.58c4.396 9.83 16.864 39.25 21.639 46.91 1.472 6.21 11.523 19.91 9.697 25.09-6.736 19.11-24.34-25.24-26.904-30.49l-19.163-39.24c-2.452-6.08-7.722-16.14-10.698-22.28l-21.53-44.52c-3.107-6.44-8.316-16.52-10.647-22.96-10.532 1.04-20.564 1.37-31.107 1.7"/><path fill="#955ed8" d="M21.955 728.993c31.243-21.83 87.267-1.341 91.366 37.427-.23 3.963.099 10.138-2.275 12.956-3.105 1.111-3.825.573-7.438-.606-8.335-5.64-15.839-14.612-23.25-21.408-19.166-17.575-31.29-28.81-58.404-28.369"/><path fill="#2e2341" d="M602.151 1175.86c2.634-.49 13.829.29 15.847 1.17-2.555 4.66-6.405 21.71-8.275 27.81-6.819 22.25-12.43 49.69-19.727 71.32-.507 2.28-1.296 6.47-1.925 8.56-.951 3.51-4.873 19.09-6.473 19.95-15.045 8.11-6.567-16.91-5.77-19.95l-10.28-.53c3.086-.17 7.157.06 10.32.15 3.524-14.49 6.975-29.01 10.352-43.53 5.723-20.5 9.656-45.22 15.931-64.95"/><path fill="#723fc2" d="m81.163 790.75-.903-.386c-21.79-9.584-65.11 14.228-72.383 9.134-1.805-5.809 6.435-18.218 10.417-22.139 17.15-16.89 42.073-16.233 58.496 1.269 3.067 3.269 5.23 6.915 8.493 10.215l-.105 2.586c-1.41.439-2.548-.184-4.015-.679"/><path fill="#6b3ea3" d="M113.321 766.42c.648 3.472.511 6.193.163 9.674-.635 6.365 9.444 34.839 11.332 43.288 4.21 18.84 5.045 38.078 8.642 56.909l.2.567c1.245 7.799-.089 23.257 3.732 28.209-.092 2.311-.255 3.302.269 5.523-.373 1.39-.295 1.443-.945 2.707l-.382 1.184c-3.978.433-9.666.615-13.627.178l-1.237-2.796.369-2.25c-1.171-6.564-2.673-12.214-4.361-18.665 2.028-2.486 2.116-2.862 2.414-6.068 2.049 6.711 4.675 22.124 8.734 24.992l1.224-.494c.078-.946.126-1.965.046-2.91-3.368-39.616-17.664-88.949-48.73-115.718 1.466.495 2.603 1.118 4.014.679l.105-2.586c1.84.886 4.9 3.748 6.231 5.262 17.859 20.32 29.18 46.859 36.317 72.486-1.867-22.787-9.832-63.142-18.297-83.422l-5.926-4.399c3.613 1.179 4.333 1.717 7.438.606 2.374-2.818 2.045-8.993 2.275-12.956"/><path fill="#723fc2" d="M136.714 913.297c-1.374-.374-2.617-.882-3.945-1.388-2.705-4.042-1.542-32.74-1.097-39.097.323 1.914.404 2.118 1.786 3.479l.2.567c1.245 7.799-.089 23.257 3.732 28.209-.092 2.311-.255 3.302.269 5.523-.373 1.39-.295 1.443-.945 2.707"/><path fill="#955ed8" d="M169.298 856.471c3.999-5.428 9.396-7.626 15.591-9.601 17.872-5.697 38.882 23.128 34.433 38.325-1.163.658-2.103 1.056-3.514.242-7.56-4.363-44.355-19.266-48.454-22.645z"/><path fill="#501f8f" d="m140.517 773.319 3.619 3.319 1.82-1.823.781 2.509 2.008.881-1.368.422c-6.497 23.109-8.166 63.533-8.734 87.87-.191 8.199.368 32.141-1.253 38.57-3.821-4.952-2.487-20.41-3.732-28.209.738-2.851.637-12.317.679-15.953.191-21.645 2.111-43.088 4.932-64.537 1.099-8.357 5.157-15.043 1.248-23.049"/><path fill="#6b3ea3" d="m144.136 776.638 1.82-1.823.781 2.509 2.008.881-1.368.422-1.545.804c-1.801 4.05-3.715 18.51-4.612 23.851-2.217-10.198 3.232-17.15 2.916-26.644"/><defs><linearGradient id="d" x1="144.312" x2="153.534" y1="872.49" y2="874.13" gradientUnits="userSpaceOnUse"><stop offset="0" stop-color="#5a3592"/><stop offset="1" stop-color="#7b4cbe"/></linearGradient></defs><path fill="url(#d)" d="M137.659 910.59c4.119-26.894 8.716-53.315 21.425-77.706l3.248 2.653c-9.461 20.346-15.649 39.898-18.247 62.272-.449 3.872-1.926 9.412.187 12.717l-.067 1.79c-1.424.527-3.124 1.004-4.264 1.939l-3.609.226.382-1.184c.65-1.264.572-1.317.945-2.707"/><defs><linearGradient id="e" x1="147.313" x2="161.119" y1="886.328" y2="888.09" gradientUnits="userSpaceOnUse"><stop offset="0" stop-color="#60369c"/><stop offset="1" stop-color="#7b51b7"/></linearGradient></defs><path fill="url(#e)" d="M144.272 910.526c5.954-21.032 8.889-38.792 25.026-54.055l-1.944 6.321c-8.36 11.102-16.275 32.851-18.327 46.405l.323.713c-1.935 1.61-1.319 1.279-1.844 4.559l-7.565-.214c1.14-.935 2.84-1.412 4.264-1.939z"/><path fill="#723fc2" d="M164.782 823.535c4.256 2.02 2.988-1.234 4.047.933-2.185 3.612-4.534 7.35-6.497 11.069l-3.248-2.653c1.593-2.916 3.587-6.922 5.698-9.349"/></svg>