<svg xmlns="http://www.w3.org/2000/svg" width="996" height="1024" viewBox="0 0 996 1024"><path fill="#99cdf1" d="M309.554 332.011c53.153-48.846 135.754-76.718 207.588-73.732a306.72 306.72 0 0 1 212.3 95.928l.011 65.88c-.002 6.22-.45 24.881.185 29.781a10.25 10.25 0 0 0 2.975 6.033c1.298 1.278 3.346 2.288 5.153 2.362 18.654.767 37.808-.073 56.459.274 5.65 11.509 10.727 30.787 13.357 43.415a321.25 321.25 0 0 1-10.764 172.475c-14.739 43.092-53.82 102.198-89.631 130.471-1.121 2.355-3.798 4.33-5.815 5.978-22.281 18.196-45.99 33.287-72.324 44.863a414 414 0 0 0-11.646 4.8c-18.36 7.738-40.964 13.275-60.525 16.686-2.093.365-9.672 1.717-11.304 1.729-13.824.69-24.448 1.949-38.912 2.116-17.734-.086-60.474-3.569-76.235-10.331-6.421-2.007-11.303-3.018-17.892-5.417-15.963-3.815-68.575-28.733-78.605-40.34-9.875-6.373-18.154-13.795-26.899-21.577-45.26-40.271-76.639-88.605-94.063-146.786a309.87 309.87 0 0 1 1.4-179.312c3.936-12.939 9.087-27.92 15.484-39.842 10.742-1.01 69.38 1.567 73.821-1.511 2.601-1.512 3.733-3.531 5.249-5.984.584-5.103.094-19.992.084-25.965l.013-52.722c-.002-2.975-.297-17.159.536-19.272"/><path fill="#083259" d="M391.546 441.357c14.98 17.137 24.78 27.22 48.962 28.907q2.746.174 5.498.188c2.506-6.903 1.932-11.524 1.58-18.653 7.524 3.925 11.931 12.044 17.008 18.793 4.498 2.576 11.694 5.388 16.516 7.295 34.802 13.766 49.358 15.801 62.858 53.309-4.109 2.712-9.51 6.888-12.083 11.071-11.085 18.024-16.138 45.983-22.178 66.292-1.098 7.241-3.413 9.228 4.95 11.312-2.258 18.104-8.349 48.519-.541 64.302l1.194 1.746c-.901 2.66-2.084 5.026-1.508 7.645 1.146 1.291 1.344.594 2.878 1.652-1.522.176-3.45.046-4.23 1.458-1.556 2.819-2.823 5.584-4.438 8.399-.666-2.235-.781-2.786-.946-5.109-1.442-1.725-2.165-1.265-4.268-1.272.901.672 1.572 1.063 1.608 2.514.129 5.151.169 13.455-.374 18.387-.002 2.64.151 9.954-.256 12.196l1.054.544c-.226 2.193-.732 3.453.105 5.208 1.674.401 2.757.023 4.45-.312l.557-.122c2.049-.267 2.472-.272 3.258-2.028l.699-5.671 1.492-.868c1.978 1.743 3.917 2.83 5.586 4.283.626 1.295 1.54 3.401 2.553 4.363l.089.263c2.326 9.802 1.957 26.39 2.604 36.544.154 2.417-3.34 7.102-4.776 9.153-3.389 11.545-3.992 11.279-16.047 12.455l-.277 1.647c1.198 25.95 1.718 58.068 1.538 83.822-17.734-.086-60.474-3.569-76.235-10.331-6.421-2.007-11.303-3.018-17.892-5.417-15.963-3.815-68.575-28.733-78.605-40.34.643-2.97.561-24.619.587-28.889-11.514-2.472-11.735-2.489-14.447-13.915-9.269-6.689-1.886-34.093-2.746-45.134l.767-1.745c1.659-1.415 3.922-4.023 5.643-4.344.507 2.204.063 1.57 1.494 3.089 1.955.639 2.399.519 4.512.459 2.535-.716 3.185-.886 5.798-1.025l1.712-.676c2.029-.781 2.347-1.33 2.579-3.29-.681-2.149-1.799-3.128-3.287-4.834-.058-2.052.028-2.991.246-5.047.314-6.806.248-9.36-1.079-15.994 1.584-2.714 1.137-4.155 3.653-6.052.346-9.819-.314-22.12-.408-32.234-45.672 11.378-91.727 22.862-71.796-45.754 3.064-10.55 5.183-20.516 9.703-30.794-1.457-.46-1.953-.791-3.25-1.526-2.787-3.86 1.882-10.25 4.501-13.209 2.626-5.816 4.568-12.107 6.914-18.059 4.487-11.382 9.286-22.682 14.035-33.959 2.842-6.748 5.877-13.73 10.841-19.221 11.398-12.606 47.763-24.83 64.963-31.82 3.651-6.093 10.239-15.461 16.497-18.73.223-2.933.135-7.832.185-10.922"/><path fill="#154e7c" d="M335.708 703.637c1.584-2.714 1.137-4.155 3.653-6.052 4.831 1.071 9.909 2.244 14.76 3.15l3.402.884c1.338-.832 2.218-1.56 3.769-1.769l.113 1.067c.808.624 1.306 1.076 2.212 1.559 3.019-.589 5.594.607 8.686.636l2.934.47 2.075.917 1.366-.029c1.363-.502 2.992-.196 4.498-.078l5.99.873c4.228.746 9.146 1.329 13.433 1.379 6.792-4.786 23.476-2.37 31.881-2.229 1.393.024 4.01 1.334 5.306 1.999 4.337-.227 8.157-.496 12.472-.962l4.26-.698.62 2.751q.428 10.449 1.414 20.859c2.676-.809 5.459-.912 8.247-1.135.489.53.919 1.071 1.323 1.668l.778.185c.999 2.099 7.01 11.407 9.106 11.777l.349.009 7.151-.294 2.492-.033c3.613.302 6.475-.148 10.067-.553.604-.246 3.921-.966 4.756-1.163.148-2.636.501-4.458.955-7.036l1.054.544c-.226 2.193-.732 3.453.105 5.208 1.674.401 2.757.023 4.45-.312l.557-.122c2.049-.267 2.472-.272 3.258-2.028l.699-5.671 1.492-.868c1.978 1.743 3.917 2.83 5.586 4.283.626 1.295 1.54 3.401 2.553 4.363l.089.263c2.326 9.802 1.957 26.39 2.604 36.544.154 2.417-3.34 7.102-4.776 9.153-3.389 11.545-3.992 11.279-16.047 12.455l-.277 1.647c1.198 25.95 1.718 58.068 1.538 83.822-17.734-.086-60.474-3.569-76.235-10.331-6.421-2.007-11.303-3.018-17.892-5.417-15.963-3.815-68.575-28.733-78.605-40.34.643-2.97.561-24.619.587-28.889-11.514-2.472-11.735-2.489-14.447-13.915-9.269-6.689-1.886-34.093-2.746-45.134l.767-1.745c1.659-1.415 3.922-4.023 5.643-4.344.507 2.204.063 1.57 1.494 3.089 1.955.639 2.399.519 4.512.459 2.535-.716 3.185-.886 5.798-1.025l1.712-.676c2.029-.781 2.347-1.33 2.579-3.29-.681-2.149-1.799-3.128-3.287-4.834-.058-2.052.028-2.991.246-5.047.314-6.806.248-9.36-1.079-15.994"/><path fill="#fbbc2a" d="M335.708 703.637c1.584-2.714 1.137-4.155 3.653-6.052 4.831 1.071 9.909 2.244 14.76 3.15l3.402.884c1.338-.832 2.218-1.56 3.769-1.769l.113 1.067c.808.624 1.306 1.076 2.212 1.559 3.019-.589 5.594.607 8.686.636l2.934.47 2.075.917 1.366-.029c1.363-.502 2.992-.196 4.498-.078l5.99.873c4.228.746 9.146 1.329 13.433 1.379-2.84 7.294-1.747 15.987-1.097 23.816-3.332-.196-11.245-1.127-13.995-.624a527 527 0 0 0-.465 13.881q-1.2 14.424-2.021 28.875c-.324 5.015-.852 15.899-2.245 20.443a10.44 10.44 0 0 1-3.227 4.922c-2.913 2.463-6.153 2.736-9.802 2.455-10.524-.81-24.552-3.954-34.805-4.394l-.426.075c-11.514-2.472-11.735-2.489-14.447-13.915-9.269-6.689-1.886-34.093-2.746-45.134l.767-1.745c1.659-1.415 3.922-4.023 5.643-4.344.507 2.204.063 1.57 1.494 3.089 1.955.639 2.399.519 4.512.459 2.535-.716 3.185-.886 5.798-1.025l1.712-.676c2.029-.781 2.347-1.33 2.579-3.29-.681-2.149-1.799-3.128-3.287-4.834-.058-2.052.028-2.991.246-5.047.314-6.806.248-9.36-1.079-15.994"/><path fill="#b6bcc7" d="M335.708 703.637c1.584-2.714 1.137-4.155 3.653-6.052 4.831 1.071 9.909 2.244 14.76 3.15l3.402.884c1.338-.832 2.218-1.56 3.769-1.769l.113 1.067c.808.624 1.306 1.076 2.212 1.559 3.019-.589 5.594.607 8.686.636l2.934.47 2.075.917 1.366-.029c1.363-.502 2.992-.196 4.498-.078l5.99.873c4.228.746 9.146 1.329 13.433 1.379-2.84 7.294-1.747 15.987-1.097 23.816-3.332-.196-11.245-1.127-13.995-.624l-.018-.327c-.781-.256-3.119-.626-4.048-.795l-.054.26-.737-.681c-1.616-.152-1.978-.118-3.539-.648-2.599.001-4.448.105-6.997.773l-2.147-1.091c-5.547 3.291-1.354 10.406-5.665 13.67-.978-.115-1.302-.061-2.195-.406-3.107.137-6.202-.016-9.313-.112l-.355-.211c-2.154.765-9.332-1.567-14.414-1.027-1.268-1.525-.816-4.269-.776-6.439 2.029-.781 2.347-1.33 2.579-3.29-.681-2.149-1.799-3.128-3.287-4.834-.058-2.052.028-2.991.246-5.047.314-6.806.248-9.36-1.079-15.994"/><path fill="#c37526" d="M335.708 703.637c1.584-2.714 1.137-4.155 3.653-6.052 4.831 1.071 9.909 2.244 14.76 3.15-9.959 16.494.845 16.455-.253 25.183-.824 3.615-3.921 11.193-3.001 13.717l1.572.633c-2.154.765-9.332-1.567-14.414-1.027-1.268-1.525-.816-4.269-.776-6.439 2.029-.781 2.347-1.33 2.579-3.29-.681-2.149-1.799-3.128-3.287-4.834-.058-2.052.028-2.991.246-5.047.314-6.806.248-9.36-1.079-15.994"/><path fill="#ba6b3a" d="M336.787 719.631c2.692 3.016 10.89-.431 15.429 3.793.348 1.195.345 1.345 1 2.4l.652.094c-.824 3.615-3.921 11.193-3.001 13.717l1.572.633c-2.154.765-9.332-1.567-14.414-1.027-1.268-1.525-.816-4.269-.776-6.439 2.029-.781 2.347-1.33 2.579-3.29-.681-2.149-1.799-3.128-3.287-4.834-.058-2.052.028-2.991.246-5.047"/><path fill="#c37526" d="m383.176 704.392 5.99.873c4.228.746 9.146 1.329 13.433 1.379-2.84 7.294-1.747 15.987-1.097 23.816-3.332-.196-11.245-1.127-13.995-.624l-.018-.327c-.781-.256-3.119-.626-4.048-.795l-.009-9.785.102-6.045c-.026-2.918-.18-5.585-.358-8.492"/><path fill="#fbbc2a" d="m383.176 704.392 5.99.873c-.143 4.238-.496 21.299-1.677 24.244-.781-.256-3.119-.626-4.048-.795l-.009-9.785.102-6.045c-.026-2.918-.18-5.585-.358-8.492"/><path fill="#000102" d="M378.678 704.47c1.363-.502 2.992-.196 4.498-.078.178 2.907.332 5.574.358 8.492l-.102 6.045.009 9.785-.054.26-.737-.681c-1.616-.152-1.978-.118-3.539-.648-2.599.001-4.448.105-6.997.773l-2.147-1.091c-5.547 3.291-1.354 10.406-5.665 13.67-.978-.115-1.302-.061-2.195-.406 1.347-5.204 2.345-9.972 4.949-14.672 11.24-4.576 13.761-9.439 10.256-21.42z"/><path fill="#be916f" d="m381.09 715.448 2.444-2.564-.102 6.045.009 9.785-.054.26-.737-.681c-1.616-.152-1.978-.118-3.539-.648-2.599.001-4.448.105-6.997.773l-2.147-1.091a87 87 0 0 0 3.086-1.609c4.85-2.685 6.545-5.147 8.037-10.27"/><path fill="#c37526" d="m383.432 718.929.009 9.785-.054.26-.737-.681c-1.616-.152-1.978-.118-3.539-.648 2.916-2.74 1.473-5.238 4.321-8.716"/><path fill="#7d6858" d="M378.678 704.47c1.363-.502 2.992-.196 4.498-.078.178 2.907.332 5.574.358 8.492l-2.444 2.564c-.125-4.809-.532-6.551-2.412-10.978"/><path fill="#000102" d="m354.121 700.735 3.402.884c-7.025 8.561-6.596 12.817-.021 21.541-1.627 5.902-3.152 11.29-5.063 17.108l-1.572-.633c-.92-2.524 2.177-10.102 3.001-13.717 1.098-8.728-9.706-8.689.253-25.183"/><path fill="#be916f" d="M363.617 702.476c3.019-.589 5.594.607 8.686.636-.996 3.253-.619 5.295-2.18 8.723-1.391 1.015-1.933 1.248-3.674.914-6.373-1.225-3.935-6.344-2.832-10.273"/><path fill="#000102" d="M361.405 700.917c.808.624 1.306 1.076 2.212 1.559-1.103 3.929-3.541 9.048 2.832 10.273 1.741.334 2.283.101 3.674-.914 1.561-3.428 1.184-5.47 2.18-8.723l2.934.47c-1.525 3.375-2.968 18.946-14.874 8.19-1.742-1.575.411-8.363 1.042-10.855"/><path fill="#cc8448" d="M362.107 740.591c.893.345 1.217.291 2.195.406 4.311-3.264.118-10.379 5.665-13.67l2.147 1.091c2.549-.668 4.398-.772 6.997-.773 1.561.53 1.923.496 3.539.648l.737.681.054-.26c.929.169 3.267.539 4.048.795l.018.327a527 527 0 0 0-.465 13.881q-1.2 14.424-2.021 28.875c-.324 5.015-.852 15.899-2.245 20.443a10.44 10.44 0 0 1-3.227 4.922c-2.913 2.463-6.153 2.736-9.802 2.455-10.524-.81-24.552-3.954-34.805-4.394l-.426.075c-11.514-2.472-11.735-2.489-14.447-13.915q2.182.562 4.396.978c9.185 1.664 19.579 2.662 28.431 3.971 19.602 2.9 19.396-6.702 20.626-22.887.458-6.041 1.007-14.782 2.009-20.928l.102-.597c-11.379 2.747-28.539 1.545-40.01-.972l.75-.376-.217-.342c.332-1.084.652-.968 1.869-1.784 5.082-.54 12.26 1.792 14.414 1.027l.355.211c3.111.096 6.206.249 9.313.112"/><path fill="#ba6b3a" d="M372.114 728.418c2.549-.668 4.398-.772 6.997-.773 1.561.53 1.923.496 3.539.648l.737.681c.954.343 1.208.444 2.228.543l.26.552c-4.178 1.203-9.727 8.741-15.083 11.224.641-6.792-2.199-6.64 1.322-12.875"/><path fill="#a5521e" d="M362.107 740.591c.893.345 1.217.291 2.195.406 4.311-3.264.118-10.379 5.665-13.67l2.147 1.091c-3.521 6.235-.681 6.083-1.322 12.875-4.796.486-13.886 1.317-17.998-.814 3.111.096 6.206.249 9.313.112"/><path fill="#c37526" d="M318.09 735.299c1.659-1.415 3.922-4.023 5.643-4.344.507 2.204.063 1.57 1.494 3.089 1.955.639 2.399.519 4.512.459 2.535-.716 3.185-.886 5.798-1.025l1.712-.676c-.04 2.17-.492 4.914.776 6.439-1.217.816-1.537.7-1.869 1.784l.217.342-.75.376c-3.533-.508-8.332-1.382-11.64-2.587-2.926-.61-3.899-.744-6.66-2.112z"/><path fill="#bcb6b5" d="M329.739 734.503c2.535-.716 3.185-.886 5.798-1.025.608 2.236 1.031 2.342.51 4.229-.585.235-.823.399-1.426.467-2.633-1.319-2.818-1.469-4.882-3.671"/><path fill="#a5521e" d="M318.09 735.299c1.75.786 3.566 1.703 5.415 2.154l-.107.931.752.372-.167.4c-2.926-.61-3.899-.744-6.66-2.112z"/><path fill="#fbbc2a" d="M466.799 727.229c.489.53.919 1.071 1.323 1.668l.778.185c.999 2.099 7.01 11.407 9.106 11.777l.349.009 7.151-.294 2.492-.033c3.613.302 6.475-.148 10.067-.553.604-.246 3.921-.966 4.756-1.163.148-2.636.501-4.458.955-7.036l1.054.544c-.226 2.193-.732 3.453.105 5.208 1.674.401 2.757.023 4.45-.312l.557-.122c2.049-.267 2.472-.272 3.258-2.028l.699-5.671 1.492-.868c1.978 1.743 3.917 2.83 5.586 4.283.626 1.295 1.54 3.401 2.553 4.363l.089.263c2.326 9.802 1.957 26.39 2.604 36.544.154 2.417-3.34 7.102-4.776 9.153-3.389 11.545-3.992 11.279-16.047 12.455-5.51 1.349-11.454 1.713-16.672 2.7-31.708 5.998-29.85-.58-31.944-28.605a3177 3177 0 0 0-3.048-40.313l.01-.565.727.329c2.018-.121 2.202-.114 4.079-.783 2.676-.809 5.459-.912 8.247-1.135"/><path fill="#cc8448" d="M466.799 727.229c.489.53.919 1.071 1.323 1.668l.778.185c.999 2.099 7.01 11.407 9.106 11.777l.349.009 7.151-.294 2.492-.033c3.613.302 6.475-.148 10.067-.553 2.156 1.301 3.589-1.286 5.4.159l.1.575q-.945.52-1.913.995l.679.51c-9.345 2.243-26.109 2.305-35.433 1.049.173 5.998.67 11.9 1.406 18.177 1.603 13.671-1.267 27.14 17.549 26.127 10.221-.55 26.182-4.835 35.594-4.434-3.389 11.545-3.992 11.279-16.047 12.455-5.51 1.349-11.454 1.713-16.672 2.7-31.708 5.998-29.85-.58-31.944-28.605a3177 3177 0 0 0-3.048-40.313l.01-.565.727.329c2.018-.121 2.202-.114 4.079-.783 2.676-.809 5.459-.912 8.247-1.135"/><path fill="#a5521e" d="M466.799 727.229c.489.53.919 1.071 1.323 1.668l.778.185c.999 2.099 7.01 11.407 9.106 11.777l.349.009c-11.57 1.497-14.001-7.489-23.882-11.721 2.018-.121 2.202-.114 4.079-.783 2.676-.809 5.459-.912 8.247-1.135"/><path fill="#c37526" d="m513.899 729.408 1.492-.868c1.978 1.743 3.917 2.83 5.586 4.283.626 1.295 1.54 3.401 2.553 4.363l.089.263c-5.413 1.692-15.427 4.059-21.288 4.778l-.679-.51a48 48 0 0 0 1.913-.995l-.1-.575c-1.811-1.445-3.244 1.142-5.4-.159.604-.246 3.921-.966 4.756-1.163.148-2.636.501-4.458.955-7.036l1.054.544c-.226 2.193-.732 3.453.105 5.208 1.674.401 2.757.023 4.45-.312l.557-.122c2.049-.267 2.472-.272 3.258-2.028z"/><path fill="#cc8448" d="m513.899 729.408 1.492-.868c1.978 1.743 3.917 2.83 5.586 4.283-.912.674-6.933 3.358-7.777 2.256z"/><path fill="#bcb6b5" d="M402.599 706.644c6.792-4.786 23.476-2.37 31.881-2.229 1.393.024 4.01 1.334 5.306 1.999 4.337-.227 8.157-.496 12.472-.962l4.26-.698.62 2.751q.428 10.449 1.414 20.859c-1.877.669-2.061.662-4.079.783l-.727-.329-.01.565c-3.998.261-8.141.592-12.132.725-1.916 2.003-2.879 3.043-5.504 4.024l-2.643.345c-4.132-.088-8.55.001-12.707.008l-2.826-.038c-3.643.076-7.314-.388-10.933-.022-2.953-1.01-3.468-1.602-5.489-3.965-.65-7.829-1.743-16.522 1.097-23.816"/><path fill="#c37526" d="m452.258 705.452 4.26-.698.62 2.751q.428 10.449 1.414 20.859c-1.877.669-2.061.662-4.079.783l-.727-.329-.01.565c-3.998.261-8.141.592-12.132.725.43-6.266.933-18.304-1.818-23.694 4.337-.227 8.157-.496 12.472-.962"/><path fill="#fbbc2a" d="m452.258 705.452 4.26-.698.62 2.751q.428 10.449 1.414 20.859c-1.877.669-2.061.662-4.079.783l-.727-.329c-.71-7.007-.971-16.088-1.488-23.366"/><path fill="#c37526" d="M406.771 709.073c5.036-.532 25.416-1.013 29.168 1.253 1.423 2.573.484 15.136.279 18.734-4.799.532-8.542.45-13.343.409-2.281-.105-4.675-.153-6.947-.017-8.236.49-10.023.098-10.4-8.025 3.713.113 9.165.707 11.984-1.8l-.154-.842c-3.312-2.444-7.139-2.087-11.278-2.262-.025-2.815-.23-4.766.691-7.45"/><path fill="#083259" d="M387.507 729.836c2.75-.503 10.663.428 13.995.624 2.021 2.363 2.536 2.955 5.489 3.965-2.609 1.658-11.942.48-15.753.461-.094 1.433-.23 5.417-.631 6.546-.211 8.901-1.612 57.242-5.948 61.785-2.995 3.139-8.625 3.401-12.688 3.275-5.924-.183-32.69-2.224-36.727-4.592-.628-2.134-.398-3.66-.302-5.882 10.253.44 24.281 3.584 34.805 4.394 3.649.281 6.889.008 9.802-2.455a10.44 10.44 0 0 0 3.227-4.922c1.393-4.544 1.921-15.428 2.245-20.443q.82-14.451 2.021-28.875.141-6.943.465-13.881"/><path fill="#083259" d="M441.604 730.108c3.991-.133 8.134-.464 12.132-.725a3177 3177 0 0 1 3.048 40.313c2.094 28.025.236 34.603 31.944 28.605 5.218-.987 11.162-1.351 16.672-2.7l-.277 1.647c-.178 1.618-.243 3.699-.345 5.362-11.03 1.08-22.069 2.687-33.056 3.717-17.378 1.63-17.826-8.472-18.211-21.926-.466-16.333-2.217-32.649-3.093-48.87-4.261.018-9.236.181-13.405-.322l-.913-1.077c2.625-.981 3.588-2.021 5.504-4.024"/><path fill="#154e7c" d="M420.75 734.485c4.157-.007 8.575-.096 12.707-.008.331 10.637.758 32.157-1.115 42.82-.754 4.288-7.538 7.939-11.647 9.738-.148-2.141-.082-4.657-.036-6.837.317-15.201-.426-30.533.091-45.713"/><path fill="#99cdf1" d="M412.534 865.322c2.669-17.475 3.988-35.394 6.861-52.864.213-1.292.484-1.326 1.375-2.037 2.883 1.376 3.899 18.567 4.404 22.716a1169 1169 0 0 0 5.252 37.602c-6.421-2.007-11.303-3.018-17.892-5.417"/><path fill="#083259" d="m433.457 734.477 2.643-.345.913 1.077c-3.102 3.544 2.572 40.786-4.984 48.225-5.038 4.96-6.943 4.761-13.977 5.855-.071-17.94.374-37.08-.128-54.842l2.826.038c-.517 15.18.226 30.512-.091 45.713-.046 2.18-.112 4.696.036 6.837 4.109-1.799 10.893-5.45 11.647-9.738 1.873-10.663 1.446-32.183 1.115-42.82"/><path fill="#ba6b3a" d="M276.86 588.803c11.04 5.006 21.963 9.273 33.194 13.743 2.728 1.086 14.108 5.457 16.195 6.804a764 764 0 0 0-4.044 11.177c4.153.158 12.512.613 16.311-.271 10.327-.722 41.452-1.282 49.904-3.594 20.015-5.474 17.004-17.411 43.676-15.888-1.078 1.296-5.214 5.561-5.548 6.51 5.369 1.383 13.542 3.239 17.867 6.595l.305-2.213c.534 2.53.478 2.259 2.801 3.885 4.866 3.406 6.848 8.024.754 11.7l-.178.988c1.65 5.722.991 7.164-3.919 10.707l-.205.928c-.355 3.928-1.188 7.999-5.657 9.121l-.414.94c-.576 6.576-7.291 7.341-12.61 6.616-9.1.044-13.815-.604-22.829-2.691-4.614-1.906-8.124-3.367-12.938-4.807-13.082 3.125-26.813 9.442-39.971 12.968-2.394.641-8.605 2.406-10.601 3.33-45.672 11.378-91.727 22.862-71.796-45.754 3.064-10.55 5.183-20.516 9.703-30.794"/><path fill="#9b4515" d="M444.415 613.879c-2.028.082-19.721-5.131-22.366-6.204l.217-.699c1.956-.582 1.968-.201 4.282.308 5.369 1.383 13.542 3.239 17.867 6.595"/><path fill="#9b4515" d="M448.097 628.239c-2.991-.767-11.268-3.184-13.134-5.413 2.269-.686 10.666 3.327 13.312 4.425z"/><path fill="#792c06" d="M443.973 639.874c-2.889-1.433-11.372-3.892-12.994-4.921l.67-.399c2.593-.395 9.732 3.182 12.529 4.392z"/><path fill="#792c06" d="M437.902 649.935c-4.207-1.708-6.634-2.063-10.723-4.292l.477-.204c4.378.745 6.523 1.804 10.66 3.556z"/><path fill="#9b4515" d="M308.73 618.129c2.735-.241 10.285.095 12.561 1.663-1.104 1.437-18.029 3.019-22.17 3.905-4.093 1.015-5.481 2.248-9.821 2.129l-.388-.479c3.154-3.767 14.959-6.41 19.818-7.218"/><path fill="#1e67a8" d="M467.214 708.425c-.688-3.191-2.95-9.716-.879-12.12 14.975-17.391 16.844 18.344 19.228 24.816-.027-5.32-3.649-13.471-1.716-17.299-.135-.988-.087-.871.003-1.881 2.814-2.033 13.421-3.517 17.064-3.671l1.884.422c.901.672 1.572 1.063 1.608 2.514.129 5.151.169 13.455-.374 18.387-.002 2.64.151 9.954-.256 12.196-.454 2.578-.807 4.4-.955 7.036-.835.197-4.152.917-4.756 1.163-3.592.405-6.454.855-10.067.553l-2.492.033-7.151.294-.349-.009c-2.096-.37-8.107-9.678-9.106-11.777l-.778-.185a14 14 0 0 0-1.323-1.668c-2.788.223-5.571.326-8.247 1.135a391 391 0 0 1-1.414-20.859l-.62-2.751c2.296-.339 4.513-.981 6.528-.101.801 1.124.78 1.07 1.198 2.382 1.649.435 1.556.417 2.97 1.39"/><path fill="#cc8448" d="m500.914 698.27 1.884.422c.901.672 1.572 1.063 1.608 2.514.129 5.151.169 13.455-.374 18.387-4.981 1.225-8.474 2.051-13.55 2.665l-2.555.071c-1.075-5.849-2.764-12.63-4.08-18.507-.135-.988-.087-.871.003-1.881 2.814-2.033 13.421-3.517 17.064-3.671"/><path fill="#ba6b3a" d="M490.482 722.258c5.076-.614 8.569-1.44 13.55-2.665-.002 2.64.151 9.954-.256 12.196-.454 2.578-.807 4.4-.955 7.036-.835.197-4.152.917-4.756 1.163-3.592.405-6.454.855-10.067.553l.168-1.356c-.743-2.476-1.335-3.843-1.24-6.44 1.216-4.305 1.136-6.074 1.001-10.416z"/><path fill="#a5521e" d="m487.927 722.329 2.555-.071c.098 1.657.309 3.978.216 5.586-.321 4.094-.109 8.159-2.532 11.341-.743-2.476-1.335-3.843-1.24-6.44 1.216-4.305 1.136-6.074 1.001-10.416"/><path fill="#c37526" d="M457.138 707.505c3.31.39 6.098 4.956 7.263 7.789l.019-.249c1.475 4.632 1.344 7.502 2.379 12.184-2.788.223-5.571.326-8.247 1.135a391 391 0 0 1-1.414-20.859"/><path fill="#be916f" d="M456.518 704.754c2.296-.339 4.513-.981 6.528-.101.801 1.124.78 1.07 1.198 2.382 1.649.435 1.556.417 2.97 1.39a173 173 0 0 0 1.907 10.233 50 50 0 0 0-1.796-1.73l-.657.945c.749 3.675 1.598 7.531 2.232 11.209l-.778-.185a14 14 0 0 0-1.323-1.668c-1.035-4.682-.904-7.552-2.379-12.184l-.019.249c-1.165-2.833-3.953-7.399-7.263-7.789z"/><path fill="#0b1f42" d="M464.244 707.035c1.649.435 1.556.417 2.97 1.39a173 173 0 0 0 1.907 10.233 50 50 0 0 0-1.796-1.73l-.657.945a260 260 0 0 1-2.424-10.838"/><path fill="#000102" d="M485.563 721.121c-.027-5.32-3.649-13.471-1.716-17.299 1.316 5.877 3.005 12.658 4.08 18.507.135 4.342.215 6.111-1.001 10.416-.095 2.597.497 3.964 1.24 6.44l-.168 1.356-2.492.033c-2.005-9.77 1.512-10.23.057-19.453"/><path fill="#010716" d="m466.668 717.873.657-.945a50 50 0 0 1 1.796 1.73c.911 5.715 1.139 11.845 6.791 14.931.807 2.53 1.491 4.663 2.094 7.27-2.096-.37-8.107-9.678-9.106-11.777-.634-3.678-1.483-7.534-2.232-11.209"/><path fill="#0d3b68" d="M468.92 700.182c.496.11 1.565.233 1.709.558 2.437 5.542 6.574 22.665 6.429 27.867-1.292-.096-.863.046-1.979-.697-2.126-4.965-5.315-22-6.159-27.728"/><path fill="#0d3b68" d="M474.976 698.26c2.351.681 2.461 2.996 2.932 5.237 1.598 7.598 3.527 15.144 5.118 22.74-1.299.057-1.759.221-2.9-.362-.841-2.609-5.223-25.401-5.15-27.615"/><path fill="#154e7c" d="M447.586 451.799c7.524 3.925 11.931 12.044 17.008 18.793.436 7.691 1.095 28.163.427 35.23-6.688-3.104-16.33-7.641-22.247-11.83-5.027 3.073-10.381 6.933-15.267 10.323-.166 16.534.318 33.27.026 49.726-4.216.122-8.655.326-12.853.238-.152-10.671-.8-24.329.2-35.015.206-2.198 4.622-7.441 4.976-9.294 3.45-3.958 15.171-21.137 18.02-25.843 3.681-3.861 5.96-8.892 8.13-13.675 2.506-6.903 1.932-11.524 1.58-18.653"/><path fill="#0d3b68" d="M419.725 521.338a3.057 3.057 0 1 1 2.555 5.558 3.057 3.057 0 0 1-2.555-5.558"/><path fill="#083259" d="M419.554 541.256a2.97 2.97 0 1 1 2.862 5.204 2.97 2.97 0 0 1-2.862-5.204"/><path fill="#ba6b3a" d="M391.546 441.357c14.98 17.137 24.78 27.22 48.962 28.907q2.746.174 5.498.188c-2.17 4.783-4.449 9.814-8.13 13.675-2.849 4.706-14.57 21.885-18.02 25.843-1.526-2.406-2.521-3.852-4.271-6.129-4.848-7.239-9.254-11.964-14.034-20.125-8.968-11.62-10.824-17.274-10.19-31.437.223-2.933.135-7.832.185-10.922"/><path fill="#e5f4f7" d="M401.551 483.716c13.532 4.693 22.446 4.898 36.325.411-2.849 4.706-14.57 21.885-18.02 25.843-1.526-2.406-2.521-3.852-4.271-6.129-4.848-7.239-9.254-11.964-14.034-20.125"/><path fill="#99cdf1" d="M501.93 589.51c2.742 6.841 4.04 12.408 7.777 19.049-1.098 7.241-3.413 9.228 4.95 11.312-2.258 18.104-8.349 48.519-.541 64.302l1.194 1.746c-.901 2.66-2.084 5.026-1.508 7.645 1.146 1.291 1.344.594 2.878 1.652-1.522.176-3.45.046-4.23 1.458-1.556 2.819-2.823 5.584-4.438 8.399-.666-2.235-.781-2.786-.946-5.109-1.442-1.725-2.165-1.265-4.268-1.272l-1.884-.422c.584-36.102.067-72.839 1.016-108.76"/><path fill="#a5521e" d="m514.116 684.173 1.194 1.746c-.901 2.66-2.084 5.026-1.508 7.645 1.146 1.291 1.344.594 2.878 1.652-1.522.176-3.45.046-4.23 1.458-1.556 2.819-2.823 5.584-4.438 8.399-.666-2.235-.781-2.786-.946-5.109.465.662.155.358 1.002.83 1.114-1.352 5.211-14.11 6.048-16.621"/><path fill="#154e7c" d="M391.361 452.279c-.634 14.163 1.222 19.817 10.19 31.437 4.78 8.161 9.186 12.886 14.034 20.125l-.756 1.153c-1.912.109-13.962-8.918-16.951-10.959-7.533 4.192-15.178 8.912-23.327 11.585-.426-10.907-.083-23.732.313-34.611 3.651-6.093 10.239-15.461 16.497-18.73"/><path fill="#154e7c" d="M278.111 574.068c2.433 4.939 47.797 19.937 56.144 24.187-1.266 3.467-2.638 9.67-5.49 11.179-.763-.02-1.781-.014-2.516-.084-2.087-1.347-13.467-5.718-16.195-6.804-11.231-4.47-22.154-8.737-33.194-13.743-1.457-.46-1.953-.791-3.25-1.526-2.787-3.86 1.882-10.25 4.501-13.209"/><path fill="#b6bcc7" d="m471.027 530.996 4.654 2.722c-2.676 13.057-3.396 8.801-9.103 18.728-7.108 12.366-12.415 28.556-19.496 41.036-2.303-.725-3.396-1.012-5.541-2.153 5.995-12.993 12.473-25.742 18.571-38.652 4.479-9.484 3.271-13.467 10.915-21.681"/><path fill="#fbbc2a" d="M432.096 600.774c2.464-3.198-1.202-8.112 2.306-11.609 2.604-.632 4.75.897 7.139 2.164 2.145 1.141 3.238 1.428 5.541 2.153l1.616 1.383c.868 2.521.583 5.758.824 8.62-3.016 1.82-3.45 2.36-4.296 5.841a48 48 0 0 0-.506 2.34l-.305 2.213c-4.325-3.356-12.498-5.212-17.867-6.595.334-.949 4.47-5.214 5.548-6.51"/><path fill="#99cdf1" d="M337.347 588.628c.923 9.831.927 21.625 1.169 31.628-3.799.884-12.158.429-16.311.271a764 764 0 0 1 4.044-11.177c.735.07 1.753.064 2.516.084 2.852-1.509 4.224-7.712 5.49-11.179.945-3.159 1.883-6.589 3.092-9.627"/><path fill="#fbbc2a" d="M402.463 653.86c9.014 2.087 13.729 2.735 22.829 2.691-1.612 5.798-4.569 11.326-11.419 11.408a11.25 11.25 0 0 1-8.286-3.519c-3.355-3.577-3.229-6.183-3.124-10.58"/><path fill="#e7ae64" d="M448.698 594.865c4.55 2.768 7.278 5.385.824 8.62-.241-2.862.044-6.099-.824-8.62"/><path fill="#154e7c" d="M559.35 677.538c1.749 4.106 2.07 6.616 2.781 11.055 16.109 2.535 30.198 4.41 46.609 4.973 4.711.733 23.405.855 28.03.005 14.859-.222 30.717-2.414 45.314-4.977 2.642 1.748 3.515 9.948 4.735 13.661 2.769 7.415 5.97 14.664 8.641 22.121 10.559 29.476 12.254 49.922 11.727 80.522-1.121 2.355-3.798 4.33-5.815 5.978-22.281 18.196-45.99 33.287-72.324 44.863a414 414 0 0 0-11.646 4.8c-18.36 7.738-40.964 13.275-60.525 16.686-2.093.365-9.672 1.717-11.304 1.729-13.824.69-24.448 1.949-38.912 2.116.18-25.754-.34-57.872-1.538-83.822l.277-1.647c12.055-1.176 12.658-.91 16.047-12.455 1.436-2.051 4.93-6.736 4.776-9.153-.647-10.154-.278-26.742-2.604-36.544l-.089-.263c-1.013-.962-1.927-3.068-2.553-4.363-1.669-1.453-3.608-2.54-5.586-4.283l-1.492.868-.699 5.671c-.786 1.756-1.209 1.761-3.258 2.028l-.557.122c-1.693.335-2.776.713-4.45.312-.837-1.755-.331-3.015-.105-5.208l-1.054-.544c.407-2.242.254-9.556.256-12.196.543-4.932.503-13.236.374-18.387-.036-1.451-.707-1.842-1.608-2.514 2.103.007 2.826-.453 4.268 1.272.165 2.323.28 2.874.946 5.109 1.615-2.815 2.882-5.58 4.438-8.399.78-1.412 2.708-1.282 4.23-1.458-1.534-1.058-1.732-.361-2.878-1.652-.576-2.619.607-4.985 1.508-7.645 9.044 10.801 24.82 2.771 34.803-2.125 2.654-1.888 4.964-3.584 7.804-5.193z"/><path fill="#99cdf1" d="M559.35 677.538c1.749 4.106 2.07 6.616 2.781 11.055-.466 4.261-2.603 10.556-3.99 14.665-5.079 12.885-12.676 32.218-15.151 45.997l-.097.87c-8.674 28.576-3.349 71.856-.212 101.238.752 7.053 2.913 21.342 2.892 27.591-13.824.69-24.448 1.949-38.912 2.116.18-25.754-.34-57.872-1.538-83.822l.277-1.647c12.055-1.176 12.658-.91 16.047-12.455 1.436-2.051 4.93-6.736 4.776-9.153-.647-10.154-.278-26.742-2.604-36.544l-.089-.263c-1.013-.962-1.927-3.068-2.553-4.363-1.669-1.453-3.608-2.54-5.586-4.283l-1.492.868-.699 5.671c-.786 1.756-1.209 1.761-3.258 2.028l-.557.122c-1.693.335-2.776.713-4.45.312-.837-1.755-.331-3.015-.105-5.208l-1.054-.544c.407-2.242.254-9.556.256-12.196.543-4.932.503-13.236.374-18.387-.036-1.451-.707-1.842-1.608-2.514 2.103.007 2.826-.453 4.268 1.272.165 2.323.28 2.874.946 5.109 1.615-2.815 2.882-5.58 4.438-8.399.78-1.412 2.708-1.282 4.23-1.458-1.534-1.058-1.732-.361-2.878-1.652-.576-2.619.607-4.985 1.508-7.645 9.044 10.801 24.82 2.771 34.803-2.125 2.654-1.888 4.964-3.584 7.804-5.193z"/><path fill="#ba6b3a" d="M515.31 685.919c9.044 10.801 24.82 2.771 34.803-2.125.226 1.721.506 5.756 1.048 7.063-4.082 7.323-8.208 14.316-12.472 21.512-4.309 7.273-12.13 17.293-15.159 24.817-1.013-.962-1.927-3.068-2.553-4.363-1.669-1.453-3.608-2.54-5.586-4.283l-1.492.868-.699 5.671c-.786 1.756-1.209 1.761-3.258 2.028l-.557.122c-1.693.335-2.776.713-4.45.312-.837-1.755-.331-3.015-.105-5.208l-1.054-.544c.407-2.242.254-9.556.256-12.196.543-4.932.503-13.236.374-18.387-.036-1.451-.707-1.842-1.608-2.514 2.103.007 2.826-.453 4.268 1.272.165 2.323.28 2.874.946 5.109 1.615-2.815 2.882-5.58 4.438-8.399.78-1.412 2.708-1.282 4.23-1.458-1.534-1.058-1.732-.361-2.878-1.652-.576-2.619.607-4.985 1.508-7.645"/><path fill="#000102" d="M508.012 705.073c1.615-2.815 2.882-5.58 4.438-8.399.78-1.412 2.708-1.282 4.23-1.458.453 1.58.885 3.064 1.255 4.665-.085 7.847.924 16.181-2.905 23.25-.408.754-.98 5.175-1.131 6.277l-.699 5.671c-.786 1.756-1.209 1.761-3.258 2.028l-.557.122c-1.693.335-2.776.713-4.45.312-.837-1.755-.331-3.015-.105-5.208l-1.054-.544c.407-2.242.254-9.556.256-12.196.543-4.932.503-13.236.374-18.387-.036-1.451-.707-1.842-1.608-2.514 2.103.007 2.826-.453 4.268 1.272.165 2.323.28 2.874.946 5.109"/><path fill="#1e67a8" d="m509.385 737.229-1.845-.118c-1.861-2.941.263-15.289 1.401-18.507 1.3-.751 3.155-.609 4.363.282.436 2.524-1.548 15.122-3.362 18.221z"/><path fill="#e7ae64" d="M502.798 698.692c2.103.007 2.826-.453 4.268 1.272.165 2.323.28 2.874.946 5.109-1.816 9.387-1.522 17.385-3.182 27.26l-1.054-.544c.407-2.242.254-9.556.256-12.196.543-4.932.503-13.236.374-18.387-.036-1.451-.707-1.842-1.608-2.514"/><path fill="#d6d9ec" d="M509.848 710.774c.655-2.941 2.338-11.003 4.34-13.134 2.209 1.696 1.036 10.616 1.694 13.786-1.883-.333-4.103-.472-6.034-.652"/><path fill="#d6d9ec" d="M509.848 710.774c1.931.18 4.151.319 6.034.652l-.267 1.045c.005 1.6.071 1.898-.311 3.484-.997.744-2.913 1.666-4.089 1.161-3.76-1.617-2.905-2.593-2.022-5.237z"/><path fill="#152b32" d="M509.848 710.774c1.931.18 4.151.319 6.034.652l-.267 1.045c-1.904-.375-4.437-.461-6.422-.592z"/><path fill="#a5521e" d="M517.935 699.881c2.442 3.309 2.459 12.567 1.508 16.518.029-2.598.141-4.866-.226-7.448-.199 5.222-.753 15.332-3.826 19.589l-1.492.868c.151-1.102.723-5.523 1.131-6.277 3.829-7.069 2.82-15.403 2.905-23.25"/><path fill="#a5521e" d="M550.113 683.794c2.654-1.888 4.964-3.584 7.804-5.193a274 274 0 0 0-6.756 12.256c-.542-1.307-.822-5.342-1.048-7.063"/><path fill="#083259" d="M562.131 688.593c16.109 2.535 30.198 4.41 46.609 4.973 4.711.733 23.405.855 28.03.005 14.859-.222 30.717-2.414 45.314-4.977 2.642 1.748 3.515 9.948 4.735 13.661-8.6 3.408-14.399 2.841-21.951 5.008 3.57 16.288 9.428 27.465 23.747 37.356 3.724 2.572 6.887 3.02 11.17 3.739l.756.893.027 1.477c-2.789 2.112-8.393-1.64-11.219-2.903-16.148-7.217-23.552-24.286-27.922-40.372-19.407 2.831-42.924 2.651-62.387 1.444-3.457-.215-11.571-.684-14.808-1.269-3.483 15.205-9.757 29.427-23.414 38.234-3.191 2.057-13.784 6.068-17.065 5.691-.859-.822-.589-.337-.86-1.428l.097-.87c2.475-13.779 10.072-33.112 15.151-45.997 1.387-4.109 3.524-10.404 3.99-14.665"/><path fill="#154e7c" d="M542.99 749.255c2.475-13.779 10.072-33.112 15.151-45.997 8.262 1.714 14.917 2.895 23.325 3.938-6.455 23.385-13.141 36.517-38.476 42.059"/><path fill="#99cdf1" d="M617.402 860.539c.094-7.125 1.824-50.718 4.499-55.086.604-.987.752-1.01 1.817-1.224 1.424 1.18 2.185 2.933 2.31 4.761 1.056 15.372 2.7 31.375 3.02 46.749a414 414 0 0 0-11.646 4.8"/><path fill="#e5f4f7" d="m645.265 500.176 1.634.372c.177.223 14.355 14.643 13.98 14.39l1.828 1.952c6.512-1.293 42.606 16.227 48.434 23.024-4.938 12.854-9.085 25.847-14.013 38.564.482 1.909.55 2.532.468 4.5l1.139 1.557c-3.002 7.294-5.253 14.654-8.291 21.97-1.878-.044-1.979-.022-3.829.353-2.175 5.291-3.971 10.313-5.884 15.698-1.984 4.946-4.025 10.339-6.049 15.218-5.213 12.568 2.726 14.434 12.641 17.62-.419 3.669-3.288 31.203-4.366 32.896l-.873.304c-14.597 2.563-30.455 4.755-45.314 4.977-4.625.85-23.319.728-28.03-.005-16.411-.563-30.5-2.438-46.609-4.973-.711-4.439-1.032-6.949-2.781-11.055l-1.433 1.063c-2.84 1.609-5.15 3.305-7.804 5.193-9.983 4.896-25.759 12.926-34.803 2.125l-1.194-1.746c-7.808-15.783-1.717-46.198.541-64.302-8.363-2.084-6.048-4.071-4.95-11.312 6.04-20.309 11.093-48.268 22.178-66.292 2.573-4.183 7.974-8.359 12.083-11.071 6.591-3.34 29.823-12.332 37.528-14.63.463-.688.695-.908 1.248-1.527l1.407-.056c2.257-4.533 10.333-10.546 12.503-14.057l1.488.147c.94 2.455-2.535 12.937-1.443 15.754 5.49 14.172 17.558 39.312 25.535 51.557 2.679-3.677 7.497-13.258 9.572-17.455 4.177-8.455 16.775-29.766 16.055-38.604-.677-4.07-2.186-7.861-2.596-12.149"/><path fill="#cc8448" d="M624.002 591.66c12.568-7.927 38.01-6.69 52.851-9.123 2.082-.341 5.961.105 7.214 2.156-.705 7.84-24.239 8.041-30.487 11.421l2.06 1.688c5.041 2.556 5.98 4.515 3.694 10.199-.96 2.387.348 3.138.057 5.411-.921 1.927-4.502 10.582-6.171 11.196-4.247 1.565-25.861 4.169-29.286 3.917 1.292 17.943.072 36.669.439 54.696.07 3.433-.023 7.006-.199 10.434 3.739-.051 8.972-.278 12.596-.084-4.625.85-23.319.728-28.03-.005-16.411-.563-30.5-2.438-46.609-4.973-.711-4.439-1.032-6.949-2.781-11.055l-1.433 1.063c-2.84 1.609-5.15 3.305-7.804 5.193-9.983 4.896-25.759 12.926-34.803 2.125l-1.194-1.746c-7.808-15.783-1.717-46.198.541-64.302 10.829 2.458 21.516 5.497 32.347 7.95a52 52 0 0 1 7.218 2.19l1.982.598c.284 1.634.009 1.143.842 2.438 1.457-.252 8.959-4.734 10.816-5.808 18.767-10.849 37.757-20.775 54.537-34.645z"/><path fill="#e5f4f7" d="M614.67 628.47c2.508.316 5.425.306 7.981.373l1.283-.318c1.292 17.943.072 36.669.439 54.696.07 3.433-.023 7.006-.199 10.434 3.739-.051 8.972-.278 12.596-.084-4.625.85-23.319.728-28.03-.005-16.411-.563-30.5-2.438-46.609-4.973-.711-4.439-1.032-6.949-2.781-11.055 21.821-17.008 35.414-31.395 55.32-49.068"/><path fill="#537c91" d="m622.651 628.843 1.283-.318c1.292 17.943.072 36.669.439 54.696.07 3.433-.023 7.006-.199 10.434 3.739-.051 8.972-.278 12.596-.084-4.625.85-23.319.728-28.03-.005 4.13-.229 10.014-.007 14.271.023z"/><path fill="#a5521e" d="M655.64 597.802c-2.676-.003-5.419-1.497-7.366-3.259 1.398-.266 3.374 1.167 5.306 1.571z"/><path fill="#ba6b3a" d="M554.826 632.988c.638-.1.277-.123 1.049.283-1.528 1.989-16.338 9.29-19.696 11.537-3.936 2.633-5.818 3.96-9.614 7.305l-.29.135-.568-.305c2.664-10.423 20.228-16 29.119-18.955"/><path fill="#ba6b3a" d="M648.381 602.582c2.887 1.13 8.687 4.21 9.814 7.16-2.101-.989-8.383-4.407-9.93-5.888z"/><path fill="#a5521e" d="M645.944 612.876c3.048.181 6.627 2.629 8.386 5.082-3.267-1.079-5.975-2.611-8.386-5.082"/><path fill="#81a6b9" d="M581.496 516.566c.463-.688.695-.908 1.248-1.527l1.407-.056a679 679 0 0 0-4.375 34.158c5.939-3.245 10.617-6.426 16.305-9.839 3.708 3.842 18.253 17.414 18.594 21.493-2.54-.411-15.934-14.841-18.834-17.858-5.031 2.748-14.958 8.77-19.582 10.772 1.938-11.04 2.981-26.861 5.237-37.143"/><defs><linearGradient id="a" x1="642.453" x2="649.127" y1="519.513" y2="556.653" gradientUnits="userSpaceOnUse"><stop offset="0" stop-color="#548198"/><stop offset="1" stop-color="#86abbf"/></linearGradient></defs><path fill="url(#a)" d="m660.879 514.938 1.828 1.952c.932 4.053 5.232 32.52 4.946 35.485l-.891.567c-2.306-.86-14.789-8.481-17.998-10.303-5.9 5.55-15.04 16.692-21.418 20.513 3.154-6.029 15.948-19.423 21.294-23.814 5.652 3.784 10.644 7.023 16.493 10.476-.661-10.103-2.533-24.9-4.254-34.876"/><path fill="#0b1f42" d="M697.128 578.478c.482 1.909.55 2.532.468 4.5l1.139 1.557c-3.002 7.294-5.253 14.654-8.291 21.97-1.878-.044-1.979-.022-3.829.353 3.197-9.355 7.105-18.981 10.513-28.38"/><path fill="#537c91" d="M554.222 630.011c-2.134-12.501-2.246-24.53.093-37.003.384-2.045 1.008-5.703 2.279-7.311l.736.219c-3.113 15.097-4.832 29.377-1.126 44.693z"/><path fill="#537c91" d="M622.399 592.594c.011-3.686-.918-20.275 1.232-22.022.932 6.542.543 14.42.371 21.088z"/><path fill="#332017" d="M596.557 500.675c-8.307-.617-13.376-1.168-21.117-4.216-19.11-7.39-24.591-25.087-22.488-44.327 2.79-25.529 8.932-54.002 29.653-71.451 14.843-12.5 42.104-19.684 59.648-8.08 1.592 1.053 3.652 3.202 5.094 4.576 10.731 2.502 19.299 5.878 24.922 16.189 11.429 20.955 20.883 55.589 17.22 79.385-3.131 20.335-25.333 26.659-42.59 27.797l-1.634-.372c.41 4.288 1.919 8.079 2.596 12.149.72 8.838-11.878 30.149-16.055 38.604-2.075 4.197-6.893 13.778-9.572 17.455-7.977-12.245-20.045-37.385-25.535-51.557-1.092-2.817 2.383-13.299 1.443-15.754l-1.488-.147z"/><path fill="#cc8448" d="M583.454 459.665c-3.087-.05-6.431-.85-8.338-2.683-5.661-5.442-8.408-22.844 4.389-20.94 1.009.15 3.63-4.681 5.539-5.903 5.338-3.415 11.593-4.435 17.437-6.69 13.863-5.416 31.559-13.125 40-25.931 3.937 15.569 7.728 19.384 17.78 31.983 1.726 2.163 1.742 4.326 3.369 6.274 1.993.033 4.947-.044 6.525 1.244 5.386 4.398 3.925 13.926-.309 18.561-3.229 3.534-4.991 3.866-9.392 4.061-2.67 12.462-7.497 18.262-15.99 27.432.229 4.023.371 9.182.801 13.103.41 4.288 1.919 8.079 2.596 12.149.72 8.838-11.878 30.149-16.055 38.604-2.075 4.197-6.893 13.778-9.572 17.455-7.977-12.245-20.045-37.385-25.535-51.557-1.092-2.817 2.383-13.299 1.443-15.754l-1.488-.147-.097-.251c.783-.08 1.11-.204 1.872-.404 1.502-2.671 1.297-9.639 1.365-13.021-9.199-9.451-12.887-15.018-16.34-27.585"/><path fill="#ba6b3a" d="M644.464 487.073c.229 4.023.371 9.182.801 13.103.41 4.288 1.919 8.079 2.596 12.149-.425 1.096-.265.796-.905 1.718-8.894.84-28.618-10.284-35.544-15.671-1.733-1.349-6.376-6.685-8.11-8.601 16.243 10.835 25.945 7.764 41.162-2.698"/><path fill="#e5f4f7" d="M608.262 470.685c9.153.785 18.239.543 27.41.352-1.429 2.252-2.304 3.206-4.039 5.153-7.039 5.646-21.505 3.89-23.371-5.505"/><path fill="#a5521e" d="M623.408 441.185c1.497 1.372 4.661 12.929 4.942 15.559.666 6.233-2.524 7.414-7.98 7.582-1.485-.199-1.388-.169-2.676-.939l-.219-.893c1.717-1.445 3.344-.197 6.38-1.52 4.541-4.345-2.216-11.375-.447-19.789"/><path fill="#3b120b" d="M635.447 430.605c4.214-.401 15.792-.831 16.127 5.016l-.721.384-1.458-.518c-7.41-2.766-12.237-.141-16.573-1.605l-.375-.864c1.035-1.74.929-1.282 3-2.413"/><path fill="#332017" d="M600.952 430.134c3.111-.196 8.776-.395 10.437 2.538l-.433 1.453c-1.808 1.727-6.18-1.73-9.03-.762l-.61.032c-3.082.575-7.429 2.865-9.068 2.692-.61-1.571-.609-.805-.01-2.374 2.684-2.283 5.357-2.77 8.714-3.579"/><path fill="#3b120b" d="M601.55 440.876a4.22 4.22 0 1 1 1.687 8.262 4.221 4.221 0 0 1-1.687-8.262"/><path fill="#3b120b" d="M639.513 441.389a4.194 4.194 0 1 1 3.307 7.71 4.194 4.194 0 0 1-3.307-7.71"/><path fill="#ba6b3a" d="M574.307 440.978c.902-.018 3.065-.128 3.744.309 2.999 1.928 2.951 8.511 3.24 11.83l-1.127.138c-1.4-1.069-2.744-6.918-4.237-9.529a122 122 0 0 0-1.62-2.748"/><path fill="#a5521e" d="M666.868 441.25c1.23.577.748.163 1.51 1.27-4.608 5.272-2.248 4.849-4.569 11.073-1.103-.334-.594-.042-1.479-.952.288-3.115.583-5.902 1.656-8.877.703-1.952 1.037-1.699 2.882-2.514"/><path fill="#ba6b3a" d="M616.444 482.417c4.887 2.727 8.402-.182 11.419 1.178l-.134 1.13c-3.906 1.661-10.718 3.696-11.285-2.308"/><path fill="#e5f4f7" d="M711.141 539.914c8.138-30.773 13.691-19.747 36.813-14.285-.605 1.534-1.76 2.401-2.969 3.569l-1.201 1.706c-.536 1.021-.994 2.089-1.724 2.944-.438 1.74-.578 1.757.09 3.476 1.771 1.883 35.067 12.507 39.459 13.532 1.331-.747 1.704-1.92 2.433-3.32 6.923 2.989 11.751 3.695 18.418 6.113-6.002 14.711-12.41 32.268-17.889 47.359-4.795.25-13.307-.416-14.519 5.251l.381 1.615.148.716c-2.519 2.447-5.097.14-7.116 4.657.722 1.788 1.482 2.71 1.075 4.279l-.849.435c-.783 1.953-1.085 2.306-.86 4.309.749 1.207.663 1.259 1.842 1.995l1.506.924c-1.069 2.234-1.079 1.481-.878 3.679 1.628 2.502 3.9 2.825 6.774 3.7l3.751 2.203c4.498 4.3 2.163 7.104.225 12.509l-.302.624c-2.031 4.251-5.113 12.711-6.426 17.215-4.77 16.369-9.311 14.897-23.426 9.95-18.099-5.436-36.182-12.918-54.825-18.394l-3.749-1.281c-9.915-3.186-17.854-5.052-12.641-17.62 2.024-4.879 4.065-10.272 6.049-15.218 1.913-5.385 3.709-10.407 5.884-15.698 1.85-.375 1.951-.397 3.829-.353 3.038-7.316 5.289-14.676 8.291-21.97l-1.139-1.557c.082-1.968.014-2.591-.468-4.5 4.928-12.717 9.075-25.71 14.013-38.564"/><path fill="#1e67a8" d="M711.141 539.914c8.138-30.773 13.691-19.747 36.813-14.285-.605 1.534-1.76 2.401-2.969 3.569l-1.201 1.706c-.536 1.021-.994 2.089-1.724 2.944a197 197 0 0 1-13.514-4.57c-2.064-.49-2.432-.945-4.148-.422-3.663 6.398-7.809 23.231-11.119 30.54-.982 2.167-1.777 5.479-3.082 7.719l-17.966 48.275c-2.003 5.419-4.006 11.823-6.072 17.049a425 425 0 0 1-3.558 10.151c22.992 8.951 52.318 17.91 76.374 25.915 2.298-6.74 10.222-30.763 13.1-35.937l3.751 2.203c4.498 4.3 2.163 7.104.225 12.509l-.302.624c-2.031 4.251-5.113 12.711-6.426 17.215-4.77 16.369-9.311 14.897-23.426 9.95-18.099-5.436-36.182-12.918-54.825-18.394l-3.749-1.281c-9.915-3.186-17.854-5.052-12.641-17.62 2.024-4.879 4.065-10.272 6.049-15.218 1.913-5.385 3.709-10.407 5.884-15.698 1.85-.375 1.951-.397 3.829-.353 3.038-7.316 5.289-14.676 8.291-21.97l-1.139-1.557c.082-1.968.014-2.591-.468-4.5 4.928-12.717 9.075-25.71 14.013-38.564"/><path fill="#083259" d="M680.731 622.556c1.045 1.972.487 6.205.548 8.736-2.343 5.463-3.639 9.822-4.581 15.747 2.687 1.225 8.012 3.608 10.609 4.553 5.24 1.907 12.401 3.897 17.498 5.623 9.065 3.071 49.483 17.973 56.269 17.828 1.691-1.096 14.158-36.95 14.752-40.272 4.498 4.3 2.163 7.104.225 12.509l-.302.624c-2.031 4.251-5.113 12.711-6.426 17.215-4.77 16.369-9.311 14.897-23.426 9.95-18.099-5.436-36.182-12.918-54.825-18.394l-3.749-1.281c-9.915-3.186-17.854-5.052-12.641-17.62 2.024-4.879 4.065-10.272 6.049-15.218"/><path fill="#0d3b68" d="M711.141 539.914c8.138-30.773 13.691-19.747 36.813-14.285-.605 1.534-1.76 2.401-2.969 3.569-7.274-2.799-15.629-5.782-23.299-6.773-3.726 8.086-7.586 19.794-10.709 28.432-3.998 11.057-8.53 22.616-12.242 33.678l-1.139-1.557c.082-1.968.014-2.591-.468-4.5 4.928-12.717 9.075-25.71 14.013-38.564"/><path fill="#154e7c" d="m686.159 632.439-.409-.685c-.466-4.553 20.064-58.07 23.477-64.429l.97-.21-17.966 48.275c-2.003 5.419-4.006 11.823-6.072 17.049"/><path fill="#0d3b68" d="M686.615 606.858c1.85-.375 1.951-.397 3.829-.353-3.045 7.884-6.039 17.375-9.165 24.787-.061-2.531.497-6.764-.548-8.736 1.913-5.385 3.709-10.407 5.884-15.698"/><path fill="#1e67a8" d="M728.546 529.278c1.615-.565 12.99 1.177 15.238 1.626-.536 1.021-.994 2.089-1.724 2.944a197 197 0 0 1-13.514-4.57"/><path fill="#b8c4c6" d="M763.691 617.961c-3.215-3.406-30.78-8.082-32.964-12.615l.345-.971c6.317-1.668 27.37 10.423 32.393 8.872.722 1.788 1.482 2.71 1.075 4.279z"/><path fill="#99cdf1" d="M727.505 546.311c5.14 1.395 10.973 3.377 16.117 5.008l1.095.966c-.172 2.366-4.096 3.604-6.159 4.602.994 3.641-.187 5.541-1.411 9.26-6.215-1.295-9.428-2.218-15.385-4.474 2.307-4.892 3.358-10.124 5.743-15.362"/><path fill="#091e4e" d="m743.622 551.319 1.095.966c-.172 2.366-4.096 3.604-6.159 4.602l-7.834 4.223c-2.044-3.287-3.185-4.266-2.82-8.077l.739-.35c1.58.994 2.085 2.82 2.851 4.595 3.894-1.702 8.282-4.033 12.128-5.959"/><path fill="#99cdf1" d="M718.517 570.122c5.074 1.725 11.302 3.929 16.502 4.855l1.205.684c-.03 2.237-2.761 3.001-4.64 3.876.117 3.546-2.023 7.081-3.58 10.429-3.208-.991-11.419-2.606-13.11-4.44-1.298-3.373.507-6.474 1.806-10.04z"/><path fill="#99cdf1" d="M728.004 589.966c-3.208-.991-11.419-2.606-13.11-4.44-1.298-3.373.507-6.474 1.806-10.04l1.529.983c.702 2.938.916 5.644 3.462 7.25 3.5.522 6.505-2.516 9.893-4.182.117 3.546-2.023 7.081-3.58 10.429"/><path fill="#091e4e" d="m735.019 574.977 1.205.684c-.03 2.237-2.761 3.001-4.64 3.876-3.388 1.666-6.393 4.704-9.893 4.182-2.546-1.606-2.76-4.312-3.462-7.25l1.299.135c1.707 1.08 2.182 2.665 3.096 4.551 3.577-2.185 8.344-3.916 12.395-6.178"/><path fill="#99cdf1" d="M710.091 593.77c4.474 1.528 10.837 3.497 14.956 5.492-1.853 4.745-3.511 9.723-5.187 14.545-5.03-.866-10.521-3.125-15.417-4.861z"/><path fill="#99cdf1" d="M701.472 617.226c5.255 1.989 9.618 3.645 15.037 5.197-1.468 4.772-3.779 10.267-5.627 14.98-4.534-1.418-10.423-3.507-14.665-5.425 1.761-4.42 3.546-10.128 5.255-14.752"/><path fill="#99cdf1" d="M748.043 556.21c3.798.613 36.583 11.426 38.298 13.249l-.192 2.07c-2.583.283-33.942-10.69-37.766-12.119-.757-1.383-.456-1.315-.34-3.2"/><defs><linearGradient id="b" x1="754.143" x2="763.147" y1="593.103" y2="582.04" gradientUnits="userSpaceOnUse"><stop offset="0" stop-color="#a2bdc3"/><stop offset="1" stop-color="#c0c4cc"/></linearGradient></defs><path fill="url(#b)" d="M740.199 579.732c11.39 3.765 26.536 8.238 37.318 12.58.668 1.467.297 1.422-.211 3.447-3.249-1.041-37.302-12.574-37.828-13.47z"/><path fill="#99cdf1" d="M722.483 626.713c10.302 4.343 26.732 8.083 36.117 12.845.645 1.406.36 1.173-.094 3.093-5.994-1.804-31.621-10.354-36.305-12.823-.639-1.311-.284-1.236.282-3.115"/><path fill="#99cdf1" d="M737.505 587.056c4.567 1.286 20.197 6.408 24.34 9.045.605.385.3 1.081.202 2.003-3.774-.06-21.305-5.835-24.868-7.749-.553-1.399-.176-1.478.326-3.299"/><path fill="#b8c4c6" d="M746.012 563.859c4.438 1.163 21.078 6.508 24.383 8.273.614 1.33.246 1.36-.235 3.191-5.603-1.938-19.396-5.564-24.275-9.143-.498-.366-.055-1.409.127-2.321"/><path fill="#99cdf1" d="M719.949 634.573c6.41 2.057 16.096 4.9 21.954 7.519.933 1.333.611 1.002.389 3.13-5.67-1.567-17.608-5.118-22.68-7.279-.586-1.053-.053-1.784.337-3.37"/><path fill="#b8c4c6" d="M728.564 611.28c4.594.732 19.574 5.872 24.098 8.559.529.314.263 1.29.221 2.176-4.065-1.185-23.398-6.226-24.88-8.724z"/><path fill="#ba6b3a" d="M393.446 351.287c15.562 1.033 29.826 6.486 45.874 1.722 2.238-.664 9.458-2.37 11.333-1.405 3.143 4.538 6.72 24.049 8.783 30.399.865 2.661-1.452 13.955 2.134 15.589 2.519-1.947 3.442-8.679 4.117-11.991 8.932 3.705 9.22 11.35 5.894 19.959-2.095 5.422-6.673 8.949-12.643 8.999-2.06 11.962-3.942 15.36-10.908 25.147l-.444 12.093c.352 7.129.926 11.75-1.58 18.653a94 94 0 0 1-5.498-.188c-24.182-1.687-33.982-11.77-48.962-28.907l-.108-.434c-7.179-10.421-9.677-13.855-12.4-26.305-11.725-.275-18.049-15.942-12.37-25.347 1.33-2.202 5.13-2.49 6.162-4.626 1.682 5.316 3.01 9.915 5.443 14.952.607-6.138.606-11.958.978-18.076.232-3.801 2.721-7.327 3.84-10.883 2.194-9.266-.108-15.1 10.355-19.351"/><path fill="#a5521e" d="M391.438 440.923c2.803.672 3.51 2.992 5.61 4.797 9.728 8.363 22.788 11.83 34.938 6.691 6.958-2.943 10.902-7.535 16.044-12.705l-.444 12.093c.352 7.129.926 11.75-1.58 18.653a94 94 0 0 1-5.498-.188c-24.182-1.687-33.982-11.77-48.962-28.907z"/><path fill="#e5f4f7" d="M402.605 423.412c2.144-.037 4.762.15 6.929.295 9.447.631 18.758.211 28.211-.111-1.905 2.532-2.439 3.163-4.794 5.355-11.178 7.667-22.511 5.272-30.346-5.539"/><path fill="#3b120b" d="M398.112 377.61c3.379-.255 9.978-.714 11.709 2.694-.35 1.676-.274 1.579-1.377 2.876-2.169.581-6.983-.024-10.248.223l-.686.057c-3.328 1.026-6.73 2.836-9.623.37.065-4.462 6.773-5.54 10.225-6.22"/><path fill="#3b120b" d="M435.353 377.575c3.369-.126 6.75-.342 9.944.933 2.037.813 8.346 3.084 6.805 6.093-1.513.782-2.232.526-3.932.342-7.567-2.111-11.242-.733-17.928-2.914-.749-.245-.66-.663-.941-1.56 1.702-1.805 3.679-2.202 6.052-2.894"/><path fill="#9b4515" d="m421.555 389.611 1.229.393c1.435 1.806 6.203 17.648 6.004 20.313-.488 6.535-6.898 6.321-12.179 5.757-1.417-.453-2.232-1.019-2.938-2.194 2.18-2.864 5.85.617 10.078-1.824 3.254-3.943-2.449-15.695-2.194-22.445"/><path fill="#3b120b" d="M397.727 390.935a4.4 4.4 0 1 1 3.844 7.917 4.4 4.4 0 0 1-3.844-7.917"/><path fill="#9b4515" d="M467.07 390.806c1.873.36 1.771.022 2.823 1.139-3.019 5.09-3.107 10.598-6.229 15.686-1.93-.559-1.252-.008-2.272-1.482-.148-4.088 3.458-12.044 5.678-15.343"/><path fill="#3b120b" d="M439.464 389.805c5.97 1.822 6.735 5.697 2.009 9.897-6.501-.5-6.022-6.063-2.009-9.897"/><path fill="#9b4515" d="m426.401 437.224.929.259.211.94c-2.375 2.014-9.667 1.6-12.751 1.396l-.844-1.146.186-.668c3.757-.845 7.927.042 12.269-.781"/><path fill="#9b4515" d="M374.347 401.448c-.859-2.679-4.489-6.93-4.3-9.546 3.147 1.266 4.558 4.502 5.385 7.575z"/><path fill="#792c06" d="M375.432 399.477c.827 2.46 1.893 4.399.592 6.866-1.79-.581-1.592-3.268-1.677-4.895z"/><path fill="#332017" d="M382.438 335.844c1.025-4.588 1.768-7.683 5.303-11.177 10.049-9.935 25.953-9.76 38.775-6.643 12.39 3.012 20.595 11.503 33.93 5.573 3.791 1.018 1.868 11.43 1.083 14.151a65 65 0 0 1-.453 1.519c7.087 6.783 7.968 12.935 7.52 22.382-.385 8.105-1.597 15.956-2.909 23.952-.675 3.312-1.598 10.044-4.117 11.991-3.586-1.634-1.269-12.928-2.134-15.589-2.063-6.35-5.64-25.861-8.783-30.399-1.875-.965-9.095.741-11.333 1.405-16.048 4.764-30.312-.689-45.874-1.722-10.463 4.251-8.161 10.085-10.355 19.351-1.119 3.556-3.608 7.082-3.84 10.883-.372 6.118-.371 11.938-.978 18.076-2.433-5.037-3.761-9.636-5.443-14.952-2.34-11.964-7.333-31.437-.1-41.912 2.758-3.994 5.474-5.204 9.708-6.889"/><path fill="#cc8448" d="m784.571 601.008 5.702.616 3.02 1.473c3.434 3.158 5.337 5.546 6.868 10.149-.912 3.362-1.406 4.944-1.653 8.425.589 2.526-3.994 12.233-5.596 14.861-4.253 6.977-9.719 8.406-16.861 10.748 1.938-5.405 4.273-8.209-.225-12.509l-3.751-2.203c-2.874-.875-5.146-1.198-6.774-3.7-.201-2.198-.191-1.445.878-3.679l-1.506-.924c-1.179-.736-1.093-.788-1.842-1.995-.225-2.003.077-2.356.86-4.309l.849-.435c.407-1.569-.353-2.491-1.075-4.279 2.019-4.517 4.597-2.21 7.116-4.657l-.148-.716-.381-1.615c1.212-5.667 9.724-5.001 14.519-5.251"/><path fill="#cc8448" d="m784.571 601.008 5.702.616 3.02 1.473c3.434 3.158 5.337 5.546 6.868 10.149-.912 3.362-1.406 4.944-1.653 8.425-2.175-2.203-.265-3.372-2.418-4.922-3.432-3.973-6.767-8.024-11.472-10.419-4.671.779-9.735.655-14.185 1.544l-.381-1.615c1.212-5.667 9.724-5.001 14.519-5.251"/><path fill="#a5521e" d="M770.433 607.874c4.45-.889 9.514-.765 14.185-1.544 4.705 2.395 8.04 6.446 11.472 10.419l.157 1.671-.474.499c-3.08-4.307-6.458-7.876-10.95-10.667-3.228.278-12.323 1.838-14.242.338z"/><path fill="#a5521e" d="M764.673 624.265c1.739-1.057 7.73-1.386 9.631-1.002 5.784 1.169 10.017 6.118 12.896 10.986q.383.651.751 1.313c-3.329-2.84-5.436-5.37-8.456-8.21-5.401-1.679-8.747-1.144-13.316-2.163z"/><path fill="#a5521e" d="M771.26 615.714c4.16-.456 7.346-.199 11.43.423 2.591 2.02 7.247 6.713 8.874 9.518l-.496.393-1.795-1.412c-2.321-2.385-4.727-4.752-7.083-7.11-3.316-.104-14.682.531-16.733-.673l1.351-.45-.934.134.05.36.461-.563c1.269-.524 3.414-.53 4.875-.62"/><path fill="#cc8448" d="M691.072 656.675c18.643 5.476 36.726 12.958 54.825 18.394-10.692 7.161-23.592 20.476-37.397 12.8-11.256-6.259-14.138-19.727-17.428-31.194"/><path fill="#b6bcc7" d="M758.645 527.236c6.686-9.033 15.729-8.244 16.763 3.296q.158 1.81.264 3.622c4.738.889 5.142.826 8.809 4.142l.427 3.875c-.164.924-.895 4.67-.866 5.365-.729 1.4-1.102 2.573-2.433 3.32-4.392-1.025-37.688-11.649-39.459-13.532-.668-1.719-.528-1.736-.09-3.476.73-.855 1.188-1.923 1.724-2.944l1.201-1.706c1.209-1.168 2.364-2.035 2.969-3.569 3.055-.001 7.667.876 10.691 1.607"/><path fill="#99cdf1" d="M767.36 525.227c1.845.548 2.44 1.038 3.25 2.684-.151 1.938-.818 2.407-2.082 3.902-2.241-.407-3.085-.279-3.823-2.528.473-2.02 1.174-2.467 2.655-4.058"/><path fill="#083259" d="m323.733 730.955 1.38-1.34c.991-3.35-2.038-7.774-3.428-11.572-2.488-6.797-6.443-20.491-4.03-27.472.848-2.046 2.499-2.981 4.348-3.742 10.063-4.142 11.714 9.168 13.705 16.808 1.327 6.634 1.393 9.188 1.079 15.994-.218 2.056-.304 2.995-.246 5.047 1.488 1.706 2.606 2.685 3.287 4.834-.232 1.96-.55 2.509-2.579 3.29l-1.712.676c-2.613.139-3.263.309-5.798 1.025-2.113.06-2.557.18-4.512-.459-1.431-1.519-.987-.885-1.494-3.089"/><path fill="#1e67a8" d="M784.908 542.171c5.138 1.797 18.298 5.676 21.675 8.728 2.015 4.813-13.731 42.557-16.31 50.725l-5.702-.616c5.479-15.091 11.887-32.648 17.889-47.359-6.667-2.418-11.495-3.124-18.418-6.113-.029-.695.702-4.441.866-5.365"/><path fill="#083259" d="M784.481 538.296c30.483 10.598 31.396 4.939 19.418 36.139a1812 1812 0 0 0-10.606 28.662l-3.02-1.473c2.579-8.168 18.325-45.912 16.31-50.725-3.377-3.052-16.537-6.931-21.675-8.728z"/><path fill="#e5f4f7" d="M788.439 265.905c1.299-5.322 2.539-9.503 7.724-12.54a13.64 13.64 0 0 1 11.03-1.184c6.526 2.064 9.009 7.514 9.639 13.855 4.95-.056 15.966-1.201 20.077 1.984.889.689 1.359 2.662 2.552 3.034 7.748.15 15.45.184 23.201.171 6.581-.011 10.628.488 13.306 6.826-2.536 2.241-.587 5.325-1.786 8.756-.708 38.591.615 77.494.003 116.113-.078 4.935-.244 10.497-.034 15.394 1.746 2.483.65 27.681 1.424 33.423-.977 2.39-2.699 4.223-5.115 5.227-4.649 1.93-64.09 1.01-76.235 1.573-18.651-.347-37.805.493-56.459-.274-1.807-.074-3.855-1.084-5.153-2.362a10.25 10.25 0 0 1-2.975-6.033c-.635-4.9-.187-23.561-.185-29.781l-.011-65.88c1.41-17.988-.443-36.227.019-54.239.187-7.288-.817-20.403 3.126-26.374 4.917-3.393 25.476-2.329 32.426-2.411 3.582-1.272 2.189-4.172 6.106-4.831 5.701-.957 11.548-.113 17.32-.447m16.577 4.085c6.658-5.508 3.75-11.518-4.822-10.987-1.488 1.663-3.105 3.992-2.974 6.337a4.54 4.54 0 0 0 1.718 3.34c1.776 1.411 3.926 1.444 6.078 1.31"/><path fill="#be916f" d="M839.461 271.054c7.748.15 15.45.184 23.201.171 6.581-.011 10.628.488 13.306 6.826-2.536 2.241-.587 5.325-1.786 8.756-.708 38.591.615 77.494.003 116.113-.078 4.935-.244 10.497-.034 15.394 1.746 2.483.65 27.681 1.424 33.423-.977 2.39-2.699 4.223-5.115 5.227-4.649 1.93-64.09 1.01-76.235 1.573-18.651-.347-37.805.493-56.459-.274-1.807-.074-3.855-1.084-5.153-2.362a10.25 10.25 0 0 1-2.975-6.033c-.635-4.9-.187-23.561-.185-29.781l-.011-65.88c1.41-17.988-.443-36.227.019-54.239.187-7.288-.817-20.403 3.126-26.374 4.917-3.393 25.476-2.329 32.426-2.411l-.987.557c-.109.646-.086 1.169-.472 1.708.937.088 2.281-.068 2.818.651 1.521 2.036 1.204 4.275.103 6.45-.466.212-1.159.559-1.622.712l1.154.699c-2.318 1.656-12.625 1.237-16.259 1.447-2.528-.005-5.109.014-7.631-.027l-.096 161.687 121.729.013-.059-161.648c-6.186.028-12.786.161-18.935-.002-2.857-.221-4.776.371-5.843-2.438-.703-1.864-.407-5.408-.365-7.552l7.686-.027c-2.478-.341-4.228-.011-6.518-.97z"/><path fill="#000102" d="M739.626 280.834c7.638.106 17.834-.158 25.227.427l1.154.699c-2.318 1.656-12.625 1.237-16.259 1.447-2.528-.005-5.109.014-7.631-.027l-.096 161.687 121.729.013-.059-161.648c-6.186.028-12.786.161-18.935-.002-2.857-.221-4.776.371-5.843-2.438l27.024-.048-.069 166.165c-14.514.565-30.785.244-45.437.246l-80.434.039c-1.029-15.235-.288-37.161-.345-52.887z"/><path fill="#000102" d="M729.442 354.207c1.41-17.988-.443-36.227.019-54.239.187-7.288-.817-20.403 3.126-26.374 4.917-3.393 25.476-2.329 32.426-2.411l-.987.557c-.109.646-.086 1.169-.472 1.708-6.035-.038-25.945-1.246-29.635 2.287-2.76 2.643-2.131 21.632-2.12 26.421l.179 102.565-.095 29.675c-.017 4.852-1.063 17.159 2.32 19.369 4.409 2.88 24.188 1.916 29.175 1.917l39.374.007c20.642.029 41.282.294 61.923.129 11.818-.094 9.627-9.801 9.534-18.358a899 899 0 0 1-.058-19.146c1.746 2.483.65 27.681 1.424 33.423-.977 2.39-2.699 4.223-5.115 5.227-4.649 1.93-64.09 1.01-76.235 1.573-18.651-.347-37.805.493-56.459-.274-1.807-.074-3.855-1.084-5.153-2.362a10.25 10.25 0 0 1-2.975-6.033c-.635-4.9-.187-23.561-.185-29.781z"/><path fill="#000102" d="M839.461 271.054c7.748.15 15.45.184 23.201.171 6.581-.011 10.628.488 13.306 6.826-2.536 2.241-.587 5.325-1.786 8.756l-.252-8.219c-.416-.621-1.573-2.368-2.017-2.8-3.855-3.747-19.749-2.378-25.679-2.375-2.478-.341-4.228-.011-6.518-.97z"/><path fill="#083259" d="M788.439 265.905c1.299-5.322 2.539-9.503 7.724-12.54a13.64 13.64 0 0 1 11.03-1.184c6.526 2.064 9.009 7.514 9.639 13.855 4.95-.056 15.966-1.201 20.077 1.984.889.689 1.359 2.662 2.552 3.034l.255 1.389c2.29.959 4.04.629 6.518.97l-7.686.027c-.042 2.144-.338 5.688.365 7.552 1.067 2.809 2.986 2.217 5.843 2.438-9.681-.251-4.609 5.848-8.166 5.583-9.356-.699-61.69 2.354-67.878-.355-1.473-1.254-1.438-1.779-2.016-3.77l-.178-.635c-1.934-1.368-13.382-.759-16.77-.846 3.634-.21 13.941.209 16.259-1.447l-1.154-.699c.463-.153 1.156-.5 1.622-.712 1.101-2.175 1.418-4.414-.103-6.45-.537-.719-1.881-.563-2.818-.651.386-.539.363-1.062.472-1.708l.987-.557c3.582-1.272 2.189-4.172 6.106-4.831 5.701-.957 11.548-.113 17.32-.447m16.577 4.085c6.658-5.508 3.75-11.518-4.822-10.987-1.488 1.663-3.105 3.992-2.974 6.337a4.54 4.54 0 0 0 1.718 3.34c1.776 1.411 3.926 1.444 6.078 1.31"/><path fill="#e5f4f7" d="M778.948 304.12c1.817-1.279 1.493-1.329 3.62-1.629 1.4 3.351-1.849 6.313-3.955 8.682.308 6.152.164 11.701-.154 17.823a1041 1041 0 0 1-24.745-.068l.04-24.683c8.449-.288 16.814.325 25.194-.125"/><path fill="#99cdf1" d="M753.754 304.245c8.449-.288 16.814.325 25.194-.125l-3.419 3.528c-5.262-.621-13.092-.198-18.614-.264.13 6.568-.446 12.47-.365 18.608q9.525.039 19.05-.069c.116-2.489.82-9.491-.184-11.327.285-.419 2.735-2.935 3.197-3.423.308 6.152.164 11.701-.154 17.823a1041 1041 0 0 1-24.745-.068z"/><path fill="#0b1f42" d="M778.948 304.12c1.817-1.279 1.493-1.329 3.62-1.629 1.4 3.351-1.849 6.313-3.955 8.682-.462.488-2.912 3.004-3.197 3.423l-8.75 9.087c-2.581-1.772-10.229-7.014-7.931-10.661 3.15-.221 5.079 2.541 7.089 4.662 3.579-3.271 6.494-6.424 9.705-10.036z"/><path fill="#e5f4f7" d="m779.157 340.483 1.496-1.277c1.706.136.889-.109 2.433 1.038.582 3.017-2.96 5.631-4.973 7.929.487 5.554.42 11.304.463 16.891-8.025.258-17.068.44-25.047.149q.257-12.097-.049-24.193c8.269-.703 17.099.233 25.677-.537"/><path fill="#99cdf1" d="M753.48 341.02c8.269-.703 17.099.233 25.677-.537-.841.886-2.694 2.956-3.577 3.633-2.73-1.251-14.848-.125-18.905-.121a605 605 0 0 1 .357 17.97l18.428.413c.075-1.699.615-10.211.409-11.474l2.244-2.731c.487 5.554.42 11.304.463 16.891-8.025.258-17.068.44-25.047.149q.257-12.097-.049-24.193"/><path fill="#0b1f42" d="m779.157 340.483 1.496-1.277c1.706.136.889-.109 2.433 1.038.582 3.017-2.96 5.631-4.973 7.929l-2.244 2.731a1298 1298 0 0 0-9.642 9.568l-2.232-1.987c-2.552-2.296-5.857-5.2-6.048-8.933l.975-.423c3.061.828 4.671 2.969 6.759 5.236 3.501-3.237 6.661-6.752 9.899-10.249.883-.677 2.736-2.747 3.577-3.633"/><path fill="#99cdf1" d="m753.723 377.16 25.049.094c-.303 7.678-.518 15.793-.252 23.478-4.699.617-18.573.223-24.629.425-.42-7.741-.122-16.149-.168-23.997"/><path fill="#81a6b9" d="M753.891 401.157c5.775-3.688 15.17-2.089 21.846-1.775.803.038 2.115.876 2.783 1.35-4.699.617-18.573.223-24.629.425"/><path fill="#e5f4f7" d="M756.531 380.156q9.468-.113 18.938-.106l.386 18.555c-5.731.245-12.967-.011-18.808-.072q-.317-9.186-.516-18.377"/><path fill="#99cdf1" d="M789.624 308.587c6.387-.273 60.482-.513 62.489.608.64 1.468.371 2.137.125 3.724-6.728.191-61.176.782-63.106-.824-.305-1.54-.001-2.027.492-3.508"/><path fill="#99cdf1" d="M789.932 381.219c2.334-.156 11.701-.269 13.725-.099 5.61.471 47.055-1.097 48.856 1.047.083 1.786-.024 1.758-.823 3.287-20.039.458-40.62-.199-60.698-.041-1.148.009-1.525-.641-2.057-1.422.172-2.117-.221-1.253.997-2.772"/><path fill="#99cdf1" d="M789.654 345.047c19.096-1.4 40.163.599 59.415-.149 1.614-.063 2.24.185 3.241 1.278.202 2.022.37 1.099-.423 2.89-18.581.495-37.546-.317-56.171.089-1.75.038-5.446.175-6.745-.906-.322-1.692-.143-1.29.683-3.202"/><path fill="#99cdf1" d="M789.298 392.634c11.145-.436 22.594.067 33.77-.159 2.861-.058 9.501-.561 11.321 1.509.168 1.628.162 1.51-.572 2.983l-28.327.166c-3.636.02-14.124.823-16.371-1.264-.45-2.192-.525-1.154.179-3.235"/><path fill="#99cdf1" d="M792.481 320.238c5.612-.114 38.268-.852 41.394.516.768 1.404.605.648.298 2.378-1.219 1.493-.445.973-2.548 1.38-6.823-.071-37.407.882-41.593-.468-1.065-1.523-.794-.708-.909-2.511 1.44-1.287 1.134-.891 3.358-1.295"/><path fill="#99cdf1" d="M789.862 356.669c10.689-.666 22.148.099 32.911-.268 3.106-.106 10.151-.65 11.823 2.141-.227 1.632.113.92-1.219 2.122-11.329.672-23.151-.044-34.526.142-2.434.04-8.241.402-9.813-1.304.018-2.002-.231-1.088.824-2.833"/><path fill="#154e7c" d="M257.725 246.525c3.731-.924 29.46-.703 34.087-.177.11 3.099.253 6.144.162 9.245-1.266.639-1.402.368-1.641 1.403-1.512 6.545.392 16.922-.72 23.264l-.045 8.75.127 14.601c1.769 4.407-1.826 13.091 2.28 15.315.278 6.296-1.332 9.548-.993 15.171 1.873-2.398 3.164-4.287 5.6-6.127.876-6.204.293-19.048.398-25.995-2.133-1.728-2.971-.259-5.086-1.503l-.155-1.433.315-3.84c-.266-1.337.14-3.927.294-5.379 2.672.018 4.655.075 4.809-3.008.242-4.839 8.268-6.563 9.718-3.666 5.503 10.992-.723 38.351 2.679 48.865-.833 2.113-.538 16.297-.536 19.272l-.013 52.722c.01 5.973.5 20.862-.084 25.965-1.516 2.453-2.648 4.472-5.249 5.984-4.441 3.078-63.079.501-73.821 1.511-3.277-.811-15.812-.693-19.656-.718l-50.001-.123c-7.341.001-14.817.309-22.116.012-5.248-.213-8.256-4.146-8.622-9.086 1.629-15.783-1.933-34.677.936-50.55.478-2.643 7.066-1.598 9.502-2.337l3.656-.129c10.886.225 22.772-.29 33.109.081-2.338-.485-2.166-.531-2.976-2.558-5.436-.159-11.067-.107-16.52-.131-.351.075-1.985.119-2.447.141-2.754-.011-7.228.864-8.245-1.707l-1.13.876-1.17-.51c1.013-2.154 1.69-3.909 2.519-6.114l3.043-7.157c-6.417-6.686-4.85-8.178 3.481-9.967l2.417-6.802c-4.127-12.245.872-23.152 4.555-35.172l-.563-3.081-.535-.072.423-.454c-.779-1.279-2.128-1.347-3.868-1.929l-.534-.006c-3.094-.531-10.363-.433-13.801-.479-.126-2.606-.27-4.525-.581-7.128-.243-1.694-.405-.95.301-2.341l87.49-.001 3.654-.044c1.42-1.09 1.002-1.101 1.519-3.389.419-2.493.525-4.973 2.02-6.881 2.481-1.672 4.775-.932 7.797-.523l1.624 6.991c.254 2.289-.153 2.197 1.111 3.451 3.44.989 7.646.479 11.407.404.626-12.151-.543-23.485-.123-35.635-.232-3.37-.404-4.532.198-7.872m-8.769 106.592c3.144 4.307.541 6.568-1.711 10.683.755 2.349 1.831 6.02 2.777 8.148 2.877.254 4.979.445 7.875.41-.902-3.76-.721-11.787-.729-15.851l.087-36.384c.009-4.047.331-14.064-.295-17.688-1.155-.693-3.265-.534-4.729-.558 2.099-.358 2.371.012 4.864-.672l.519-1.103c-.166-2.291-.016-4.919.047-7.241.417-1.401.245-1.246-.011-2.829-3.761.075-7.967.585-11.407-.404-1.264-1.254-.857-1.162-1.111-3.451l-1.624-6.991c-3.022-.409-5.316-1.149-7.797.523-1.495 1.908-1.601 4.388-2.02 6.881-.517 2.288-.099 2.299-1.519 3.389l-3.654.044-87.49.001c-.706 1.391-.544.647-.301 2.341.311 2.603.455 4.522.581 7.128 3.438.046 10.707-.052 13.801.479l.534.006c1.74.582 3.089.65 3.868 1.929l-.423.454.535.072.563 3.081c-3.683 12.02-8.682 22.927-4.555 35.172l-2.417 6.802c-8.331 1.789-9.898 3.281-3.481 9.967l-3.043 7.157c-.829 2.205-1.506 3.96-2.519 6.114l1.17.51 1.13-.876c1.017 2.571 5.491 1.696 8.245 1.707.462-.022 2.096-.066 2.447-.141 5.453.024 11.084-.028 16.52.131l.722-.353c1.254.806 1.261 1.124 3.098.753 2.443-.729 4.768.022 7.902-.854.533.774.644.731.766 1.661l-.195-.005-.059-.972-.31 1.259c-2.624-.372-4.428-1.107-6.769-.42l-.536.509c2.838.811 22.418.587 26.954 1.228q12.256.213 24.514.093c.626-1.573.666-1.3 2.58-2.243-.634-.349-.276-.087-.92-.961l.779-2.838c-.909-.609-1.095-1.311-1.574-2.322-.13-.283-.39-.798-.38-1.068.19-5.346-3.435-5.863-1.874-11.432l-.145-.67c2.375-.718 4.766-.504 6.591-1.787.602.271 1.596.762 2.187.942 1.23-.007 3.298.04 4.443-.082l1.99.395z"/><path fill="#000102" d="M233.691 286.59c.419-2.493.525-4.973 2.02-6.881 2.481-1.672 4.775-.932 7.797-.523l1.624 6.991c.254 2.289-.153 2.197 1.111 3.451 3.44.989 7.646.479 11.407.404.256 1.583.428 1.428.011 2.829-.063 2.322-.213 4.95-.047 7.241l-.519 1.103c-2.493.684-2.765.314-4.864.672a802 802 0 0 1-8.635.311l.325 31.775c.033 4.969.293 14.422-.474 18.927l-1.99-.395c-.45-3.293-1.889-7.097-1.016-10.329.446-1.653.567-2.958.756-4.652-1.296-1.995-2.367-4.02-3.511-6.103.057 5.525.448 16.049-.672 21.166-.591-.18-1.585-.671-2.187-.942-1.825 1.283-4.216 1.069-6.591 1.787-5.014-2.142-6.975-1.33-13.631-4.978-.403 7.289-.188 16.213.167 23.566 4.617-.231 9.573-.118 14.212.037l1.651-5.455c.479 1.011.665 1.713 1.574 2.322l-.779 2.838c.644.874.286.612.92.961-1.914.943-1.954.67-2.58 2.243q-12.258.12-24.514-.093c-4.536-.641-24.116-.417-26.954-1.228l.536-.509c2.341-.687 4.145.048 6.769.42l.31-1.259.059.972.195.005c-.122-.93-.233-.887-.766-1.661-3.134.876-5.459.125-7.902.854-1.837.371-1.844.053-3.098-.753l-.722.353c-5.436-.159-11.067-.107-16.52-.131-.351.075-1.985.119-2.447.141-2.754-.011-7.228.864-8.245-1.707l-1.13.876-1.17-.51c1.013-2.154 1.69-3.909 2.519-6.114l3.043-7.157c-6.417-6.686-4.85-8.178 3.481-9.967l2.417-6.802c-4.127-12.245.872-23.152 4.555-35.172l-.563-3.081-.535-.072.423-.454c-.779-1.279-2.128-1.347-3.868-1.929l-.534-.006c-3.094-.531-10.363-.433-13.801-.479-.126-2.606-.27-4.525-.581-7.128-.243-1.694-.405-.95.301-2.341l87.49-.001 3.654-.044c1.42-1.09 1.002-1.101 1.519-3.389m-19.908 26.163c5.378 3.024 7.297 5.178 9.719 11.074 3.154 2.659 8.459 7.676 11.479 9.873.031-7.028.513-24.67-.229-30.784-1.455-.68-2.906-.365-4.563-.247-2.524.713-17.882 5.1-19.055 6.215.787 1.899 1.267 2.276 2.649 3.869m-28.212 2.397c4.567-.833 6.329-.928 10.191-3.562l.405-.924c-.884-1.155-3.064-1.379-4.517-1.398-3.365.168-8.354.072-11.116 1.959-1.445 3.163 2.849 3.812 5.037 3.925"/><path fill="#1e67a8" d="M233.691 286.59c.419-2.493.525-4.973 2.02-6.881 2.481-1.672 4.775-.932 7.797-.523l1.624 6.991c.254 2.289-.153 2.197 1.111 3.451 3.44.989 7.646.479 11.407.404.256 1.583.428 1.428.011 2.829-.063 2.322-.213 4.95-.047 7.241l-.519 1.103c-2.493.684-2.765.314-4.864.672a802 802 0 0 1-8.635.311l.325 31.775c.033 4.969.293 14.422-.474 18.927l-1.99-.395c-.45-3.293-1.889-7.097-1.016-10.329.446-1.653.567-2.958.756-4.652-1.296-1.995-2.367-4.02-3.511-6.103.057 5.525.448 16.049-.672 21.166-.591-.18-1.585-.671-2.187-.942.396-5.473.182-12.337.154-17.935.031-7.028.513-24.67-.229-30.784-1.455-.68-2.906-.365-4.563-.247l-1.866-.508c-4.339.575-14.244.09-19.145.213-16.038.405-33.628-.782-49.555.059l-.535-.072.423-.454c-.779-1.279-2.128-1.347-3.868-1.929l-.534-.006c-3.094-.531-10.363-.433-13.801-.479-.126-2.606-.27-4.525-.581-7.128-.243-1.694-.405-.95.301-2.341l87.49-.001 3.654-.044c1.42-1.09 1.002-1.101 1.519-3.389"/><path fill="#0b1f42" d="M233.691 286.59c.419-2.493.525-4.973 2.02-6.881 2.481-1.672 4.775-.932 7.797-.523l1.624 6.991c.254 2.289-.153 2.197 1.111 3.451 3.44.989 7.646.479 11.407.404.256 1.583.428 1.428.011 2.829-.063 2.322-.213 4.95-.047 7.241l-.519 1.103c-2.493.684-2.765.314-4.864.672a802 802 0 0 1-8.635.311l.325 31.775c.033 4.969.293 14.422-.474 18.927l-1.99-.395c-.45-3.293-1.889-7.097-1.016-10.329.446-1.653.567-2.958.756-4.652-1.296-1.995-2.367-4.02-3.511-6.103-.578-9.151.118-19.826-.313-29.167-.241-5.211-1.18-9.15-1.463-14.164l-.392.293-.516-.319c.078-1.717.268-2.839.544-4.544l-.429-.031c-.188 1.366-.235 2.396-.807 3.657z"/><path fill="#b6bcc7" d="M233.691 286.59c.419-2.493.525-4.973 2.02-6.881 2.481-1.672 4.775-.932 7.797-.523l1.624 6.991-2.619-.026c.268 5.381-1.485 8.16-1.371 12.48.334 12.633-.577 26.378.055 38.883-1.296-1.995-2.367-4.02-3.511-6.103-.578-9.151.118-19.826-.313-29.167-.241-5.211-1.18-9.15-1.463-14.164l-.392.293-.516-.319c.078-1.717.268-2.839.544-4.544l-.429-.031c-.188 1.366-.235 2.396-.807 3.657z"/><path fill="#000102" d="M233.691 286.59c.419-2.493.525-4.973 2.02-6.881 2.481-1.672 4.775-.932 7.797-.523l1.624 6.991-2.619-.026c-.482-2.74-.674-5.663-4.18-4.966-2.651 2.077-2.228 2.944-2.386 6.229l-.037.666-.392.293-.516-.319c.078-1.717.268-2.839.544-4.544l-.429-.031c-.188 1.366-.235 2.396-.807 3.657z"/><path fill="#000102" d="M241.197 337.514c1.461-4.851-.776-31.569 1.054-35.11l1.345-.216.325 31.775c.033 4.969.293 14.422-.474 18.927l-1.99-.395c-.45-3.293-1.889-7.097-1.016-10.329.446-1.653.567-2.958.756-4.652"/><path fill="#1e67a8" d="M246.587 292.033c2.144.025 9.945-.237 11.074.828-.063 2.322-.213 4.95-.047 7.241-4.191-.504-12.469 1.501-13.941-2.487.271-2.128 1.672-3.736 2.914-5.582"/><path fill="#010716" d="m233.691 286.59.619.546c.572-1.261.619-2.291.807-3.657l.429.031c-.276 1.705-.466 2.827-.544 4.544l.516.319.392-.293c.283 5.014 1.222 8.953 1.463 14.164.431 9.341-.265 20.016.313 29.167.057 5.525.448 16.049-.672 21.166-.591-.18-1.585-.671-2.187-.942.396-5.473.182-12.337.154-17.935.031-7.028.513-24.67-.229-30.784-1.455-.68-2.906-.365-4.563-.247l-1.866-.508c-4.339.575-14.244.09-19.145.213-16.038.405-33.628-.782-49.555.059l-.535-.072.423-.454c-.779-1.279-2.128-1.347-3.868-1.929 10.449-.947 23.427-.292 34.105-.478 4.131-.072 16.947-.105 20.336.463 4.113.09 22.238.832 24.638-.501.896-2.381-.151-4.926-1.006-7.211-3.5-.897-2.844-.036-5.198-2.228l3.654-.044c1.42-1.09 1.002-1.101 1.519-3.389"/><path fill="#091e4e" d="M155.643 299.978c10.449-.947 23.427-.292 34.105-.478 4.131-.072 16.947-.105 20.336.463-11.338.724-20.047-.067-32.109 1.177 2.103 1.735 43.449-.423 50.348 1.021-4.339.575-14.244.09-19.145.213-16.038.405-33.628-.782-49.555.059l-.535-.072.423-.454c-.779-1.279-2.128-1.347-3.868-1.929"/><path fill="#083259" d="m141.028 290.024 87.49-.001c2.354 2.192 1.698 1.331 5.198 2.228-6.502 1.095-14.543-1.639-20.812-1.686-5.622-.042-12.343 1.047-18.12 1.249-9.402.329-18.856-.26-28.223-.147-8.669.104-17.061.997-25.834.698-.243-1.694-.405-.95.301-2.341"/><path fill="#e5f4f7" d="M159.623 302.433c15.927-.841 33.517.346 49.555-.059 4.901-.123 14.806.362 19.145-.213l1.866.508c-2.524.713-17.882 5.1-19.055 6.215.787 1.899 1.267 2.276 2.649 3.869-2.232-.627-3.608-1.231-5.564-.21-1.422 2.943 1.386 8.564 2.236 13.043-2.144 1.218-5.238 2.544-7.536 3.609-.845-3.401-2.313-12.11-5.241-13.608-3.317.58-5.413 6.547-5.904 9.419-.273 1.593-1.885 8.844-1.524 10.036 1.399 5.06 8.027 10.016 8.671 15.191.845 6.784.024 15.244-.32 22.141l-10.604-.065c-1.446-4.58-4.094-10.707-5.962-15.334 1.855-1.899 4.481-4.382 3.997-7.164-1.797-1.594-3.945-.991-6.732-2.279-1.338-1.944-2.473-6.219-3.233-8.634 4.15-10.649-.195-23.191-4.469-33.542l-11.412.158zm25.948 12.717c4.567-.833 6.329-.928 10.191-3.562l.405-.924c-.884-1.155-3.064-1.379-4.517-1.398-3.365.168-8.354.072-11.116 1.959-1.445 3.163 2.849 3.812 5.037 3.925"/><path fill="#edc153" d="M164.418 345.981c3.564.484 3.619-.008 5.059 3.486l-1.943.377c-.185 10.719 4.829 13.906 6.871 21.86l-.722.353c-5.436-.159-11.067-.107-16.52-.131-.351.075-1.985.119-2.447.141-2.754-.011-7.228.864-8.245-1.707 2.403-3.784 4.284-9.121 5.531-13.414-1.272-2.475-1.808-2.181-2.852-5.265l.421-.719c4.035-.145 4.146.603 5.84-2.885l.827-1.277c2.396.665 3.867.948 6.361.342.532-.11 1.049-.004 1.584.054z"/><path fill="#e5f4f7" d="M157.163 371.926c2.004-4.995 4.761-9.941 6.577-15.051.7-1.97-.39-4.844.275-6.745 1.673-.619 1.784-.483 3.519-.286-.185 10.719 4.829 13.906 6.871 21.86l-.722.353c-5.436-.159-11.067-.107-16.52-.131"/><path fill="#010716" d="M164.418 345.981c3.564.484 3.619-.008 5.059 3.486l-1.943.377c-1.735-.197-1.846-.333-3.519.286-.665 1.901.425 4.775-.275 6.745-1.816 5.11-4.573 10.056-6.577 15.051-.351.075-1.985.119-2.447.141 1.954-5.688 7.971-15.175 7.258-20.327-.887-1.516-4.709-2.841-6.563-3.663l.827-1.277c2.396.665 3.867.948 6.361.342.532-.11 1.049-.004 1.584.054z"/><path fill="#e5f4f7" d="M223.502 323.827c3.154 2.659 8.459 7.676 11.479 9.873.028 5.598.242 12.462-.154 17.935-1.825 1.283-4.216 1.069-6.591 1.787-5.014-2.142-6.975-1.33-13.631-4.978 2.401-10.535 9.684-9.727 8.897-24.617"/><path fill="#b6bcc7" d="M164.418 345.981c-13.592-6.296-7.032-25.926-3.283-36.611.208-.594.772-1.152 1.233-1.556l1.473-.074c3.792 3.844-4.2 17.641 1.614 23.778 3.287 1.029 4.556 1.244 7.252 3.403l2.822 10.694c-1.925 1.2-4.239 2.553-6.052 3.852-1.44-3.494-1.495-3.002-5.059-3.486"/><path fill="#edc153" d="M169.115 352.583c8.143-6.266 5.517-1.875 14.37-1.821l-.42.475-.641.751c-5.287 6.124.266 12.777 2.981 19.615-3.134.876-5.459.125-7.902.854-1.133-4.553-6.424-13.394-8.388-19.874"/><path fill="#b6bcc7" d="m156.238 346.8.959-2.861.86-.117c1.708 1.572 2.411 2.428 4.542 3.32-2.494.606-3.965.323-6.361-.342"/><defs><linearGradient id="c" x1="222.798" x2="195.835" y1="358.175" y2="332.366" gradientUnits="userSpaceOnUse"><stop offset="0" stop-color="#bec0c2"/><stop offset="1" stop-color="#b0b9cd"/></linearGradient></defs><path fill="url(#c)" d="M209.457 313.704c2.563.992 6.423 3.288 8.402 5.4 10.189 10.869-4.488 20.212-5.914 29.458-.928 6.016-.015 17.285.204 23.645l-11.512-.044c.544-6.815 1.648-17.947-.344-24.389-1.211-3.916-5.882-9.473-8.163-13.339 4.701-1.45 9.469-2.48 14.141-4.063 9.138-3.095 5.681-10.103 3.186-16.668"/><path fill="#091e4e" d="M209.745 334.031c.28-.039 1.42-.047 1.742-.054.894.915.85.835 1.055 2.099-1.774 2.641-6.536 3.258-9.912 4.128-1.672.34-.934.507-2.321-.111-.533-2.07-.731-1.504.049-2.953 2.426-1.513 6.474-2.345 9.387-3.109"/><path fill="#b6bcc7" d="M167.069 306.726c.838.209 1.553.453 2.38.716 2.826 3.319 7.925 23.454 5.426 27.384l-.658-.734c-1.785-1.846-5.589-4.4-7.828-5.98 5.544-6.755 2.473-7.531.707-15.542-.195-.882-.065-4.707-.027-5.844"/><path fill="#b6bcc7" d="M196.142 319.17c3.057 1.232 5.239 7.901 4.249 10.634l-1.441.559c-1.608.367-2.546.708-4.192.486-3.315-2.76-.481-8.709 1.384-11.679"/><path fill="#fbbc2a" d="M257.725 246.525c3.731-.924 29.46-.703 34.087-.177.11 3.099.253 6.144.162 9.245-1.266.639-1.402.368-1.641 1.403-1.512 6.545.392 16.922-.72 23.264l-.045 8.75.127 14.601c1.769 4.407-1.826 13.091 2.28 15.315.278 6.296-1.332 9.548-.993 15.171l-.405 4.437.187 2.998c.062 1.362.03 3.387.512 4.604 2.216 2.794 1.254 13.034 1.142 17.107-.206 2.616-.102 6.261-.856 8.425-.888.409-.77.422-1.712.612-1.671-.249-4.156-.22-5.9-.255l.853.981-.297 1.452q-10.063.2-20.124-.008c-.428-.266-1.69-.785-2.216-1.019l.26-1.262c-1.768-.118-1.07.22-2.27-.783-.677-2.683-.394-6.714-.558-9.894l-.055.606c-.272 3.231.14 6.906-.447 9.608l-1.199.652c-.902-3.76-.721-11.787-.729-15.851l.087-36.384c.009-4.047.331-14.064-.295-17.688-1.155-.693-3.265-.534-4.729-.558 2.099-.358 2.371.012 4.864-.672l.519-1.103c-.166-2.291-.016-4.919.047-7.241.417-1.401.245-1.246-.011-2.829.626-12.151-.543-23.485-.123-35.635-.232-3.37-.404-4.532.198-7.872"/><path fill="#000102" d="M268.504 290.222c-5.831-5.282-7.694-12.202-1.551-18.273a11.32 11.32 0 0 1 8.189-3.299c4.253.101 6.945 1.999 9.677 4.993 2.101-.872 2.448-.848 4.759-1.107l.035 7.724-.045 8.75c-2.289-.891-2.376-1.03-4.239-2.712-4.623 5.611-10.115 7.589-16.825 3.924"/><path fill="#edc153" d="m289.578 272.536.035 7.724-.045 8.75c-2.289-.891-2.376-1.03-4.239-2.712 2.071-4.289 1.734-8.549-.51-12.655 2.101-.872 2.448-.848 4.759-1.107"/><path fill="#b6d29c" d="M266.171 277.552c4.469-.21 13.469-1.411 16.782 1.087.832 1.425.5 2.572.345 4.265-4.336-.086-14.863 1.071-17.63-1.526-.535-1.479-.025-2.307.503-3.826"/><path fill="#b8c4c6" d="M271.431 271.03c3.317-.152 8.189.445 9.741 3.805-1.214.989-1.028.649-3.047.658l-11.802.011c1.941-2.136 2.556-2.956 5.108-4.474"/><path fill="#b8c4c6" d="M266.419 285.144c3.398.231 13.357-.287 15.276 1.079l-.99 1.483c-5.611 3.314-10.012 1.789-14.286-2.562"/><path fill="#152b32" d="M289.695 303.611c1.769 4.407-1.826 13.091 2.28 15.315.278 6.296-1.332 9.548-.993 15.171l-.405 4.437.187 2.998c.062 1.362.03 3.387.512 4.604 2.216 2.794 1.254 13.034 1.142 17.107-.206 2.616-.102 6.261-.856 8.425-.888.409-.77.422-1.712.612-.273-6.386-.19-12.741-.164-19.132-3.819.021-7.41.593-10.341-1.677-1.455-2.736-1.156-26.353-.268-30.067 2.435-2.032 7.256-1.603 10.531-1.651.212-5.124.085-10.958.087-16.142"/><path fill="#b6d29c" d="M288.193 343.033c-.136.364-.494.956-.696 1.32-.932.162-2.508.513-3.279.085-3.495-1.938-1.933-11.634-.844-14.383 1.815-.41 3.171-.415 4.485.868.062 3.268-.004 9.042.334 12.11"/><path fill="#172920" d="m287.859 330.923 1.662-.544c1.818 1.492.637 5.482 1.056 8.155l.187 2.998-.644 1.907c-1.272.235-.63.258-1.927-.406-.338-3.068-.272-8.842-.334-12.11"/><path fill="#154e7c" d="M257.725 246.525c3.731-.924 29.46-.703 34.087-.177.11 3.099.253 6.144.162 9.245-1.266.639-1.402.368-1.641 1.403-1.512 6.545.392 16.922-.72 23.264l-.035-7.724-.026-16.995c-6.606.004-21.966.421-28.067-.338l-1.215.565c-.862 2.407-.428 3.915-.654 6.352-.476-3.894 1.163-5.087-2.089-7.723-.232-3.37-.404-4.532.198-7.872"/><path fill="#091e4e" d="M257.725 246.525c.899 2.334 1.179 4.028 1.474 6.482.155 1.286 1.905 1.335 2.286 2.196l-1.215.565c-.862 2.407-.428 3.915-.654 6.352-.476-3.894 1.163-5.087-2.089-7.723-.232-3.37-.404-4.532.198-7.872"/><path fill="#000102" d="M257.527 254.397c3.252 2.636 1.613 3.829 2.089 7.723.1 9.778-.132 19.741.031 29.447.269 11.516.149 23.108.1 34.632-.049 11.697.267 23.614-.149 35.293l-.055.606c-.272 3.231.14 6.906-.447 9.608l-1.199.652c-.902-3.76-.721-11.787-.729-15.851l.087-36.384c.009-4.047.331-14.064-.295-17.688-1.155-.693-3.265-.534-4.729-.558 2.099-.358 2.371.012 4.864-.672l.519-1.103c-.166-2.291-.016-4.919.047-7.241.417-1.401.245-1.246-.011-2.829.626-12.151-.543-23.485-.123-35.635"/><path fill="#172920" d="M262.426 372.169c7.185-.303 14.334-.193 21.524-.144l.853.981-.297 1.452q-10.063.2-20.124-.008c-.428-.266-1.69-.785-2.216-1.019z"/><path fill="#083259" d="M292.348 289.82c2.672.018 4.655.075 4.809-3.008.242-4.839 8.268-6.563 9.718-3.666 5.503 10.992-.723 38.351 2.679 48.865-.833 2.113-.538 16.297-.536 19.272l-.013 52.722c.01 5.973.5 20.862-.084 25.965-1.516 2.453-2.648 4.472-5.249 5.984.2-2.134 4.512-4.756 4.557-6.648.277-11.816.277-23.642.231-35.465l-.208-40.061c-.005-8.077.332-17.261-.131-25.204-3.052 3.85.946 36.811-2.471 43.283-2.047.6-13.549 1.437-16.647 1.81 3.042.681 13.842.243 17.494.331-.243 12.173 1.116 24.625.046 37.014-.492 5.686.168 11.624-.524 17.555-.556-5.734.001-16.577.126-22.77a595 595 0 0 0-.148-30.868c-6.84-.531-14.488-.258-21.491-.473l.297-1.452-.853-.981c1.744.035 4.229.006 5.9.255.942-.19.824-.203 1.712-.612.754-2.164.65-5.809.856-8.425.112-4.073 1.074-14.313-1.142-17.107-.482-1.217-.45-3.242-.512-4.604l-.187-2.998.405-4.437c1.873-2.398 3.164-4.287 5.6-6.127.876-6.204.293-19.048.398-25.995-2.133-1.728-2.971-.259-5.086-1.503l-.155-1.433.315-3.84c-.266-1.337.14-3.927.294-5.379"/><path fill="#99cdf1" d="M290.982 334.097c1.873-2.398 3.164-4.287 5.6-6.127.699 6.269.163 17.621.252 24.263.063 4.702.316 14.879-.177 19.045-1.193.976-.98.648-2.936.697-2.184-1.942-1.213-5.852-1.303-8.732.112-4.073 1.074-14.313-1.142-17.107-.482-1.217-.45-3.242-.512-4.604l-.187-2.998z"/><path fill="#e5f4f7" d="M290.982 334.097c1.873-2.398 3.164-4.287 5.6-6.127-.321 5.458-.238 10.997-.235 16.469-1.501.449-3.721 1.026-5.071 1.697-.482-1.217-.45-3.242-.512-4.604l-.187-2.998z"/><path fill="#1e67a8" d="M292.054 295.199c.842-2.432.224-1.818 2.107-2.77 4.151.239 5.762 6.611-2.422 6.61z"/><path fill="#1e67a8" d="M300.686 284.722c1.564.202 4.808.982 4.98 3.007 1.237 15.859.701 32.53.21 48.453-.164 5.335 1.071 32.592-.516 35.386-1.535.313-3.876.754-5.232-.029-.776-7.915-.014-22.651-.074-31.434l-.102-35.115c-.021-4.268-.936-17.422.734-20.268"/><path fill="#fbbc2a" d="M229.77 374.956c7.159.003 14.69.119 21.806-.217q.203 9.752.08 19.505l-8.017-.044c1.07.832 3.031.69 4.403.765l.039.603c-2.544 1.114-11.021.645-14.591.988l-31.875.022c-2.508-.083-9.991.178-11.608-1.393 1.113-.964 2.564-.897 4.11-1.074l-8.163-.088a597 597 0 0 1 .104-19.068l19.198-.092q12.256.213 24.514.093"/><path fill="#000102" d="M215.539 388.863c2.891 1.928 3.572 2.033 6.623.344 1.065 1.557 2.31 3.285 3.269 4.884l18.208.109c1.07.832 3.031.69 4.403.765l.039.603c-2.544 1.114-11.021.645-14.591.988l-31.875.022c-2.508-.083-9.991.178-11.608-1.393 1.113-.964 2.564-.897 4.11-1.074l17.543-.042c1.016-1.641 2.538-3.086 3.879-5.206"/><path fill="#edc153" d="M215.539 388.863c2.891 1.928 3.572 2.033 6.623.344 1.065 1.557 2.31 3.285 3.269 4.884l-13.771-.022c1.016-1.641 2.538-3.086 3.879-5.206"/><path fill="#152b32" d="M215.539 388.863c-5.63-11.232 12.217-10.544 6.623.344-3.051 1.689-3.732 1.584-6.623-.344"/><path fill="#1e67a8" d="M234.827 351.635c.602.271 1.596.762 2.187.942 1.23-.007 3.298.04 4.443-.082l1.99.395 5.509.227.248 2.092c-1.215 3.63-2.687 5.546-3.964 8.712.703 3.324 1.045 5.654 2.922 8.588-4.159-.017-11.959-.268-15.812.204-.634-.349-.276-.087-.92-.961l.779-2.838c-.909-.609-1.095-1.311-1.574-2.322-.13-.283-.39-.798-.38-1.068.19-5.346-3.435-5.863-1.874-11.432l-.145-.67c2.375-.718 4.766-.504 6.591-1.787"/><path fill="#0b1f42" d="M234.827 351.635c.602.271 1.596.762 2.187.942 1.23-.007 3.298.04 4.443-.082l1.99.395 5.509.227.248 2.092c-6.344.383-14.134.218-19.937.728l-.886-1.845-.145-.67c2.375-.718 4.766-.504 6.591-1.787"/><path fill="#091e4e" d="M230.635 366.592c-.13-.283-.39-.798-.38-1.068.19-5.346-3.435-5.863-1.874-11.432l.886 1.845c2.816 3.747 5.63 8.24 2.942 12.977-.909-.609-1.095-1.311-1.574-2.322"/><path fill="#083259" d="M185.405 371.603c.533.774.644.731.766 1.661l-.195-.005-.059-.972-.31 1.259c-2.624-.372-4.428-1.107-6.769-.42l-.536.509c2.838.811 22.418.587 26.954 1.228l-19.198.092a597 597 0 0 0-.104 19.068l8.163.088c-1.546.177-2.997.11-4.11 1.074 1.617 1.571 9.1 1.31 11.608 1.393a69.2 69.2 0 0 1-15.981.112c.089 11.742 1.414 30.381-1.093 41.495-2.214-9.235-1.442-21.535-1.343-31.287q.214-15.865.21-31.731c-2.307-.273-4.439-.404-6.749-.552-2.338-.485-2.166-.531-2.976-2.558l.722-.353c1.254.806 1.261 1.124 3.098.753 2.443-.729 4.768.022 7.902-.854"/><path fill="#010716" d="M248.956 353.117c3.144 4.307.541 6.568-1.711 10.683.755 2.349 1.831 6.02 2.777 8.148 2.877.254 4.979.445 7.875.41l1.199-.652c.587-2.702.175-6.377.447-9.608l.055-.606c.164 3.18-.119 7.211.558 9.894 1.2 1.003.502.665 2.27.783l-.26 1.262c.526.234 1.788.753 2.216 1.019-2.608-.148-8.281-.72-10.5-.007-.125 16.69.897 33.273.2 50.086-.059-5.203.678-32.929-1.337-35.414-.951 3.122-.063 29.913-.38 35.405-.337-9.026-.123-19.098-.12-28.2-6.086.598-12.654.926-18.755.236 3.57-.343 12.047.126 14.591-.988l-.039-.603c-1.372-.075-3.333.067-4.403-.765l8.017.044q.123-9.753-.08-19.505c-7.116.336-14.647.22-21.806.217.626-1.573.666-1.3 2.58-2.243 3.853-.472 11.653-.221 15.812-.204-1.877-2.934-2.219-5.264-2.922-8.588 1.277-3.166 2.749-5.082 3.964-8.712z"/><path fill="#e5f4f7" d="M802.142 809.521c-1.493-40.656.234-83.963.488-124.723.057-9.131 28.354-6.845 34.711-6.638 8.756.286 30.334-1.564 37.521 1.063 5.64 3.525 6.261 7.563 6.167 13.865 3.193-.923 4.848-1.396 8.236-1.5 12.44-.384 26.49 10.253 25.7 23.582.305 13.142-6.436 25.881-20.718 27.329-4.628 1.139-9.225.221-13.742-.769.59 20.764.397 43.344-.066 64.248-.074 3.326-1.498 7.224-4.865 8.562-3.725 2.031-16.979 1.371-21.846 1.295-14.438-.226-29.26.744-43.656-.245-3.524-.242-6.107-3.471-7.93-6.069"/><path fill="#152b32" d="M874.862 679.223c5.64 3.525 6.261 7.563 6.167 13.865 3.193-.923 4.848-1.396 8.236-1.5 12.44-.384 26.49 10.253 25.7 23.582.305 13.142-6.436 25.881-20.718 27.329-4.628 1.139-9.225.221-13.742-.769l-2.925-1.676c-2.878-1.486-5.473-3.776-7.951-5.886.045 6.008.245 12.188.108 18.187-.072 3.159-.964 5.296-3.978 6.62-.952-1.587-1.223-1.756-3.108-1.985l-3.382-.426.917-.009c7.994-.123 6.866-3.131 6.386-9.784-1.029-2.359-.561-3.365-.875-5.848-.965-7.657-1.201-11.779-4.941-18.507-7.502.338-17.802-.027-25.521-.06 2.358-.439 14.485-.475 17.898-.642-10.358-.69-25.687.08-36.403-.03-.795-.009-.78-.439-1.13-1.218l-.143.177.686.856-.301-1.143c3.676-.63 7.277.053 11.423-.662l-11.338-.119a69 69 0 0 1-.033-3.345c.05-2.639.34-4.035 2.229-5.876 2.011-.92 4.318-.596 6.376.103.462-.562.679-2.576.774-3.319l-.88-1.098.21-2.756c.968-1.157.891-1.321 2.301-1.681 1.486 1.158 1.653 2.974 2.307 5.065 1.968.495 23.047.299 24.258-.457.31-1.665.311-3.093 1.507-4.157 1.94-.129 1.088-.355 2.677.558.4 1.838.359 2.311 1.683 3.675 2.071 1.173 4.232.801 6.711.73 3.753-6.855 4.863-8.513 11.508-12.723.079-5.333.589-7.43-2.336-11.719l2.016.546-.309-.178.349-.37c-1.361-1.298-1.687-1.624-2.413-3.35"/><path fill="#fbbc2a" d="M894.048 739.419a22.517 22.517 0 1 1-8.227-44.276 22.517 22.517 0 0 1 8.227 44.276"/><path fill="#000102" d="M888.322 699.192c.915.194 1.395.354 2.285.632 1.594 2.602.941 12.173.93 15.904 2.705 3.016 5.688 5.576 8.464 8.469 1.103 1.149.803 1.101.657 2.51-3.742.87-10.257-6.383-12.613-9.135-.483-5.23.007-13.006.277-18.38"/><path fill="#edc153" d="M824.499 710.457c.071 2.317-.408 3.439 2.025 4.579 1.826-.637 2.396-2.914 3.13-4.688 2.693-.713 20.171-.511 23.211-.004 1.456 1.62.379 6.039 4.792 3.646l.149-.403c1.649-4.35 2.655-3.668 6.825-3.426-.179 3.107-.319 6.379-.625 9.462a1030 1030 0 0 1-36.741.071l-11.338-.119a69 69 0 0 1-.033-3.345c.05-2.639.34-4.035 2.229-5.876 2.011-.92 4.318-.596 6.376.103"/><path fill="#000102" d="M912.378 719.094c.686 1.07.687 1.78.973 3.074l.296.184c.575-2.548.211-3.711 1.318-7.182.305 13.142-6.436 25.881-20.718 27.329-1.464-.433-2.203-.618-3.767-.452-4.354.461-1.173-.379-5.341-1.039.957-.749 6.664-.712 8.378-.78l.531-.809a22.52 22.52 0 0 0 18.33-20.325"/><path fill="#edc153" d="M860.756 722.416c1.666.07 2.742-.25 3.756 1.096 3.235 4.292 2.286 17.948 2.06 23.259-1.029-2.359-.561-3.365-.875-5.848-.965-7.657-1.201-11.779-4.941-18.507"/><path fill="#fbbc2a" d="M835.235 722.356c7.719.033 18.019.398 25.521.06 3.74 6.728 3.976 10.85 4.941 18.507.314 2.483-.154 3.489.875 5.848.48 6.653 1.608 9.661-6.386 9.784l-.917.009a1102 1102 0 0 0-26.965-.064c-3.597.04-7.577.731-11.109.251-1.233-.168-2.566-.594-3.469-1.493-3.436-3.422-1.851-26.758-1.793-32.762z"/><path fill="#172920" d="M850.946 729.285c1.82.266 2.098.781 2.329 2.389-1.495 4.19-11.468 13.786-15.068 17.421-2.024-1.609-3.982-3.639-5.844-5.46-1.389-1.464-2.749-2.661-2.689-4.79l.791-.465c3.866.499 4.737 1.966 7.515 4.78 4.207-3.994 8.638-9.492 12.966-13.875"/><path fill="#083259" d="M802.142 809.521c-1.493-40.656.234-83.963.488-124.723.057-9.131 28.354-6.845 34.711-6.638 8.756.286 30.334-1.564 37.521 1.063.726 1.726 1.052 2.052 2.413 3.35l-.349.37.309.178-2.016-.546c-4.378-2.261-10.109-1.54-15.153-1.434-.455 3.135-.633 6.975-4.752 7.114-9.436.317-19.277.621-28.676-.149-2.774-.227-3.705-4.573-4.187-6.71-13.31-.654-17.899-1.747-17.849 13.531.078 23.677.013 47.383-.044 71.062l-.027 26.19c.002 4.355-.189 9.06.17 13.375.4 4.811 3.554 6.854 8.107 7.132 6.855.418 13.706.239 20.575.238l39.54.005c2.273-1.808 2.864-2.343 4.726-4.561-.073 2.627-.665 3.895-2.075 6.172-3.725 2.031-16.979 1.371-21.846 1.295-14.438-.226-29.26.744-43.656-.245-3.524-.242-6.107-3.471-7.93-6.069"/><defs><linearGradient id="d" x1="866.891" x2="807.326" y1="750.33" y2="727.879" gradientUnits="userSpaceOnUse"><stop offset="0"/><stop offset="1" stop-color="#203836"/></linearGradient></defs><path fill="url(#d)" d="m824.393 706.04.88 1.098c-.095.743-.312 2.757-.774 3.319-2.058-.699-4.365-1.023-6.376-.103-1.889 1.841-2.179 3.237-2.229 5.876a69 69 0 0 0 .033 3.345l11.338.119c-4.146.715-7.747.032-11.423.662l.301 1.143-.686-.856.143-.177c.35.779.335 1.209 1.13 1.218 10.716.11 26.045-.66 36.403.03-3.413.167-15.54.203-17.898.642l-19.302.14c-.058 6.004-1.643 29.34 1.793 32.762.903.899 2.236 1.325 3.469 1.493 3.532.48 7.512-.211 11.109-.251a1102 1102 0 0 1 26.965.064l3.382.426c1.885.229 2.156.398 3.108 1.985-5.98 1.067-15.81-.023-22.197.275-7.39.345-15.304.143-22.717.043-1.067.04-6.589-1.221-7.067-2.391-2.389-5.841-.877-17.239-1.07-23.36.088-6.796-.661-13.652-.052-20.425.63-7.004 5.867-6.352 11.037-6.382z"/><path fill="#083259" d="m877.58 740.054 2.925 1.676c.59 20.764.397 43.344-.066 64.248-.074 3.326-1.498 7.224-4.865 8.562 1.41-2.277 2.002-3.545 2.075-6.172.4-21.938.255-46.408-.069-68.314"/><path fill="#e5f4f7" d="M163.334 662.888c1.391-1.597 4.551-4.707 6.602-4.469 7.152.827 17.929 12.936 22.904 17.621l1.948.68c1.755-1.975 1.204-5.784 1.159-8.609q8-.115 15.999-.144c.03 3.971-.171 21.57.561 24.391 4.114 5.099 14.863 13.273 19.685 18.58.25.276.289 1.852.237 2.334-4.261 5.051-6.134 8.819-12.19 3.448a278 278 0 0 1-3.9-3.544l-.043.753c-.43 8.116 1.349 34.189-.808 39.58-1.259 1.108-.541.772-2.254.985-.863 1.11-.755 1.119-.984 2.538-2.495 2.508-5.288 5.466-8.014 7.643l-3.382-.867c-2.631.744-15.2.821-17.956.306-8.095.778-18.766-.2-27.608.019-4.81.257-25.503.748-28.669-.582-.959-1.473-.686-2.922-.66-4.75l.009-26.731c-.006-5.22.178-12.842-.54-17.813-1.629.732-1.589.781-2.829 1.947-5.344 6.996-10.788 2.208-13.217-4.079.356-2.678 3.604-4.734 5.724-6.383 2.785-2.741 4.283-4.075 7.38-6.446 1.834-.424 3.727-.738 5.582-1.079l3.011-2.86c.479-1.35 1.049-2.038 1.9-3.178-.974-.08-.492.066-1.352-.81 9.379-9.413 21.57-19.552 31.705-28.481"/><path fill="#1e67a8" d="M163.334 662.888c1.391-1.597 4.551-4.707 6.602-4.469 7.152.827 17.929 12.936 22.904 17.621l1.948.68c1.755-1.975 1.204-5.784 1.159-8.609q8-.115 15.999-.144c.03 3.971-.171 21.57.561 24.391 4.114 5.099 14.863 13.273 19.685 18.58.25.276.289 1.852.237 2.334l-3.129.281c-1.285.752-3.37 2.837-4.563 3.934a609 609 0 0 0-33.077-29.793c-4.286-4.397-16.361-14.997-21.165-18.752-5.965 5.94-49.536 44.051-50.479 46.684l2.585.578c-5.344 6.996-10.788 2.208-13.217-4.079.356-2.678 3.604-4.734 5.724-6.383 2.785-2.741 4.283-4.075 7.38-6.446 1.834-.424 3.727-.738 5.582-1.079l3.011-2.86c.479-1.35 1.049-2.038 1.9-3.178-.974-.08-.492.066-1.352-.81 9.379-9.413 21.57-19.552 31.705-28.481"/><path fill="#083259" d="M195.947 668.111q8-.115 15.999-.144c.03 3.971-.171 21.57.561 24.391 4.114 5.099 14.863 13.273 19.685 18.58.25.276.289 1.852.237 2.334l-3.129.281-.004-1.101c-2.133-2.919-16.473-14.976-19.903-17.715-1.096-5.831-.504-17.709-.338-24.165-3.491-.048-7.181-.345-10.681-.569.089 4.634-.113 9.519-.229 14.17l-9.034-8.016 3.729-.117 1.948.68c1.755-1.975 1.204-5.784 1.159-8.609"/><path fill="#083259" d="M163.334 662.888c-.206 2.112-1.133 2.371-1.993 4.055 1.687-.989 2.835-1.822 4.729-2.253-9.789 8.718-24.951 23.233-34.989 30.667.479-1.35 1.049-2.038 1.9-3.178-.974-.08-.492.066-1.352-.81 9.379-9.413 21.57-19.552 31.705-28.481"/><path fill="#091e4e" d="M163.334 662.888c1.391-1.597 4.551-4.707 6.602-4.469 7.152.827 17.929 12.936 22.904 17.621l-3.729.117c-6.638-5.028-11.8-9.702-17.795-15.447-1.8 1.449-3.308 2.699-5.246 3.98-1.894.431-3.042 1.264-4.729 2.253.86-1.684 1.787-1.943 1.993-4.055"/><path fill="#0b1f42" d="M122.601 716.204c-5.344 6.996-10.788 2.208-13.217-4.079.356-2.678 3.604-4.734 5.724-6.383-.485 1.673-1.085 4.205-1.943 5.633l-.825.97c.734 2.459 3.483 4.584 6.039 4.376l1.637-1.095z"/><path fill="#083259" d="M122.488 699.296c1.834-.424 3.727-.738 5.582-1.079-3.822 3.641-10.695 10.467-14.905 13.158.858-1.428 1.458-3.96 1.943-5.633 2.785-2.741 4.283-4.075 7.38-6.446"/><path fill="#0d3b68" d="m154.71 761.529 2.307-.156c3.421-4.177-.577-27.679 1.52-33.61 1.011-2.86 22.091-1.714 24.989-1.472.037 4.104-.414 33.337.744 35.097l1.072.343c-1.639.762-1.554.868-2.444 2.383-8.095.778-18.766-.2-27.608.019z"/><path fill="#083259" d="M170.495 668.942c4.804 3.755 16.879 14.355 21.165 18.752l-.24.869c1.954 1.769 5.964 5.035 7.093 7.122l-.504.25c-3.446-1.793-4.637-5.954-8.974-6.71-5.317-3.85-12.945-11.115-17.856-15.694-14.141 11.686-28.289 26.149-42.383 37.233l-.131 4.786c-1.19-.387-2.092-.802-3.235-1.293-1.629.732-1.589.781-2.829 1.947l-2.585-.578c.943-2.633 44.514-40.744 50.479-46.684"/><path fill="#0b1f42" d="M189.035 689.225c4.337.756 5.528 4.917 8.974 6.71l.504-.25c-1.129-2.087-5.139-5.353-7.093-7.122l.24-.869a609 609 0 0 1 33.077 29.793c1.193-1.097 3.278-3.182 4.563-3.934l3.129-.281c-4.261 5.051-6.134 8.819-12.19 3.448a278 278 0 0 1-3.9-3.544l-.043.753c-.43 8.116 1.349 34.189-.808 39.58-1.259 1.108-.541.772-2.254.985-.649-3.918-.449-11.906-.435-16.165l.118-26.878c-3.774-4.698-18.451-16.868-23.882-22.226"/><path fill="#010716" d="M125.43 714.257c1.143.491 2.045.906 3.235 1.293-.044 14.039.293 30.43-.232 44.241-.745-.041-1.727-.633-2.472-.99l.009-26.731c-.006-5.22.178-12.842-.54-17.813"/><path fill="#010716" d="M125.961 758.801c.745.357 1.727.949 2.472.99l.406 1.333c3.112.926 21.472.329 25.871.405l.58 2.604c-4.81.257-25.503.748-28.669-.582-.959-1.473-.686-2.922-.66-4.75"/><path fill="#010716" d="M185.342 761.731c3.253-.187 12.36-1.04 14.945.396l.567 1.681c-2.631.744-15.2.821-17.956.306.89-1.515.805-1.621 2.444-2.383"/><path fill="#1e67a8" d="M216.716 760.198c9.603 3.695 3.797-8.305 13.959-8.754 10.437-1.103 6.525 9.082 12.903 10.29 3.761.713 5.43-6.169 11.297-.433 9.92 9.697-8.214 12.716 9.763 18.055.352 3.833 1.221 7.63-.286 11.004-2.361 2.395-6.441 1.567-7.96 5.947-1.209 3.489 2.338 4.298 2.491 7.514-.91 3.66-5.494 10.198-9.486 8.096-1.75-.922-4.63-2.601-6.624-1.711-6.527 4.23-4.592 12.036-15.811 7.89-3.299-1.219-2.182-5.62-7.693-8.931-2.763 1.98-3.782 2.626-7.203 3.618-3.051-2.396-5.945-5.047-8.25-8.187.466-1.595 1.224-4.639 2.019-5.947-6.324.085-14.52-.586-21.136-.681-24.02 1.015-50.751-.372-74.974-.043-12.215.166-12.777-22.908-.163-23.605 11.937-.66 24.348-.499 36.378-.356 17.54.28 35.083.131 52.615-.447 2.039-1.797 3.446-2.893 5.028-5.15-.107-1.377.284-2.359.653-3.692 2.726-2.177 5.519-5.135 8.014-7.643 1.451.976 3.152 2.046 4.466 3.166m7.346 34.642c5.141 3.159 7.661 4.07 13.126 1.411 10.322-7.591 8.094-18.081-3.181-23.157-7.409-.247-9.416 1.56-13.804 7.234-1.634 6.955-.62 9.35 3.859 14.512"/><path fill="#e5f4f7" d="m198.555 773.517 6.898.355-.473.608c1.129-.093 1.806-.082 2.924.092 2.433 4.439-6.199 5.291-7.361 6.409-.476 3.184.092 6.581.526 9.788 2.241-.055 4.332-.37 6.29.553l1.219 1.439-1.922.911-.443 1.551c-3.107 1.211-60.697.192-68.995.453 3.792.786 11.285.484 15.348.542 9.507.137 19.359-.284 28.849-.045 2.032.858 2.442.987 4.637.98l.136.104-.612.242c-.719.293-.472.124-.877.469-24.02 1.015-50.751-.372-74.974-.043-12.215.166-12.777-22.908-.163-23.605 11.937-.66 24.348-.499 36.378-.356 17.54.28 35.083.131 52.615-.447"/><defs><linearGradient id="e" x1="153.089" x2="155.153" y1="800.033" y2="770.358" gradientUnits="userSpaceOnUse"><stop offset="0" stop-color="#00002a"/><stop offset="1" stop-color="#1d2c3e"/></linearGradient></defs><path fill="url(#e)" d="m198.555 773.517 6.898.355-.473.608c1.129-.093 1.806-.082 2.924.092 2.433 4.439-6.199 5.291-7.361 6.409-.476 3.184.092 6.581.526 9.788 2.241-.055 4.332-.37 6.29.553l1.219 1.439-1.922.911c-9.412-2.103-9.72-2.448-8.302-13.39.203-1.561 2.2-2.028 3.613-2.675-1.738-1.138-84.972-.271-92.41.065-3.592.163-12.63 10.308-.491 17.733 9.277.699 18.858.041 28.152.271 3.792.786 11.285.484 15.348.542 9.507.137 19.359-.284 28.849-.045 2.032.858 2.442.987 4.637.98l.136.104-.612.242c-.719.293-.472.124-.877.469-24.02 1.015-50.751-.372-74.974-.043-12.215.166-12.777-22.908-.163-23.605 11.937-.66 24.348-.499 36.378-.356 17.54.28 35.083.131 52.615-.447"/><path fill="#fbbc2a" d="M158.97 780.246c4.678-.089 15.884-1.47 19.335 1.895 1.15 1.121 1.84 2.804 1.84 4.403-.001 1.672-.59 3.008-1.804 4.152-3.27 3.083-41.507 1.725-48.716 1.693-4.059.017-18.64.685-20.442-1.641-10.38-13.398 17.003-10.525 19.364-10.514q15.21.135 30.423.012"/><path fill="#091e4e" d="M216.716 760.198c9.603 3.695 3.797-8.305 13.959-8.754 10.437-1.103 6.525 9.082 12.903 10.29 3.761.713 5.43-6.169 11.297-.433 9.92 9.697-8.214 12.716 9.763 18.055.352 3.833 1.221 7.63-.286 11.004-2.361 2.395-6.441 1.567-7.96 5.947-1.209 3.489 2.338 4.298 2.491 7.514-.91 3.66-5.494 10.198-9.486 8.096-1.75-.922-4.63-2.601-6.624-1.711-6.527 4.23-4.592 12.036-15.811 7.89-3.299-1.219-2.182-5.62-7.693-8.931-2.763 1.98-3.782 2.626-7.203 3.618-3.051-2.396-5.945-5.047-8.25-8.187.466-1.595 1.224-4.639 2.019-5.947-6.324.085-14.52-.586-21.136-.681.405-.345.158-.176.877-.469l.612-.242-.136-.104c-2.195.007-2.605-.122-4.637-.98-9.49-.239-19.342.182-28.849.045-4.063-.058-11.556.244-15.348-.542 8.298-.261 65.888.758 68.995-.453l.443-1.551 1.922-.911c2.262 6.112 1.881 6.272-1.654 11.452 2.093 2.276 3.731 3.497 6.152 5.408l5.56-3.511c2.426 1.215 5.692 2.541 8.232 3.658l.317 6.559c3.134.412 5.485.439 8.64.5.244-2.408.659-5.139.973-7.566 3.723-1.678 5.233-2.262 9.157-3.349l4.456 4.197c3.071-2.483 4.059-3.503 6.299-6.579-5.988-6.019-4.888-7.409.529-12.955 1.366-.305 3.598-.422 5.074-.544l-.286-8.591c-6.988-1.777-7.766-2.89-9.694-9.606 1.236-2.069 2.57-3.75 4.016-5.667-2.021-1.926-3.927-3.979-5.849-6.005-2.082 2.369-2.784 3.022-5.176 5.005-2.73-1.222-5.588-2.375-8.093-4.029-1.925-1.272-.424-5.35-2.648-6.128-1.969-.69-6.928-1.14-8.131.859.064 5.475-.983 7.953-7.072 8.088-3.256.072-3.9-1.124-6.026-3.399 1.061-.061 2.29-.237 3.362-.36"/><path fill="#000102" d="M181.415 796.173c6.663-.043 18.165-.453 24.443.083.438 1.465.351.701-.023 2.393-6.324.085-14.52-.586-21.136-.681.405-.345.158-.176.877-.469l.612-.242-.136-.104c-2.195.007-2.605-.122-4.637-.98"/><path fill="#0b1f42" d="M212.25 757.032c1.451.976 3.152 2.046 4.466 3.166-1.072.123-2.301.299-3.362.36-2.949 2.303-4.054 3.376-6.632 6.11 1.374 1.925 2.841 3.913 4.163 5.863-2.738 6.936-2.472 7.2-9.766 8.683.208 3.368.508 6.205-.05 9.555-.434-3.207-1.002-6.604-.526-9.788 1.162-1.118 9.794-1.97 7.361-6.409-1.118-.174-1.795-.185-2.924-.092l.473-.608-6.898-.355c2.039-1.797 3.446-2.893 5.028-5.15-.107-1.377.284-2.359.653-3.692 2.726-2.177 5.519-5.135 8.014-7.643"/><path fill="#d6d9ec" d="M203.583 768.367c1.511 1.463 2.62 2.262 3.347 4.191l-.348.915-1.129.399-6.898-.355c2.039-1.797 3.446-2.893 5.028-5.15"/><path fill="#091e4e" d="M231.58 770.343c7.701-.08 14.215 5.674 15.087 13.326a15.027 15.027 0 0 1-27.844 9.385c2.12.886 3.022 1.333 5.239 1.786 5.141 3.159 7.661 4.07 13.126 1.411 10.322-7.591 8.094-18.081-3.181-23.157-.253-.731-.02-.351-.957-.936-1.226.26-.8.299-1.974.107z"/><path fill="#0b1f42" d="M218.823 793.054c2.12.886 3.022 1.333 5.239 1.786 5.141 3.159 7.661 4.07 13.126 1.411-1.917 2.107-1.819 2.434-5.074 2.573q-1.137.045-2.274.065c1.633.097 3.333.797 5.123 1.157a15.03 15.03 0 0 1-16.14-6.992"/><path fill="#0b1f42" d="M217.081 782.045a15.03 15.03 0 0 1 14.499-11.702l-.504 1.922c1.174.192.748.153 1.974-.107.937.585.704.205.957.936-7.409-.247-9.416 1.56-13.804 7.234-1.686.412-1.78.65-3.122 1.717"/><path fill="#091e4e" d="M217.081 782.045c1.342-1.067 1.436-1.305 3.122-1.717-1.634 6.955-.62 9.35 3.859 14.512-2.217-.453-3.119-.9-5.239-1.786a15.03 15.03 0 0 1-1.742-11.009"/><path fill="#1e67a8" d="m136.957 285.309.734-.838c.884.441 1.62.746 2.534 1.122.676 2.08.808 2.292.803 4.431-.706 1.391-.544.647-.301 2.341.311 2.603.455 4.522.581 7.128 3.438.046 10.707-.052 13.801.479l.534.006c1.74.582 3.089.65 3.868 1.929l-.423.454c-3.07.012-15.379-.119-17.448.372-.406 1.016-.342.579-.382 1.267l-.113 2.463c-.1 7.193.428 23.791-.128 30.212.024 4.925-.074 10.336.351 15.204 4.355 4.617 2.269 8.144 5.322 12.733-.829 2.205-1.506 3.96-2.519 6.114l1.17.51 1.13-.876c1.017 2.571 5.491 1.696 8.245 1.707.462-.022 2.096-.066 2.447-.141 5.453.024 11.084-.028 16.52.131.81 2.027.638 2.073 2.976 2.558-10.337-.371-22.223.144-33.109-.081l-3.656.129c-2.436.739-9.024-.306-9.502 2.337-2.869 15.873.693 34.767-.936 50.55-.844-4.065-.433-31.58-.436-37.32l-.046-67.351c.007-12.1.288-24.776-.002-36.787l2.72-.642c2.21-.251 3.04-.26 5.265-.141"/><path fill="#083259" d="M137.926 348.046c1.128-3.346 1.685-7.249 3.091-11.371.024 4.925-.074 10.336.351 15.204 4.355 4.617 2.269 8.144 5.322 12.733-.829 2.205-1.506 3.96-2.519 6.114l1.17.51 1.13-.876c1.017 2.571 5.491 1.696 8.245 1.707.462-.022 2.096-.066 2.447-.141 5.453.024 11.084-.028 16.52.131.81 2.027.638 2.073 2.976 2.558-10.337-.371-22.223.144-33.109-.081l-3.656.129c-2.685-.11-7.703.379-9.603-.65l-.114-.769c3.032-1.747 5.546.181 8.346-1.167a557 557 0 0 1-.597-24.031"/><path fill="#e5f4f7" d="M141.368 351.879c4.355 4.617 2.269 8.144 5.322 12.733-.829 2.205-1.506 3.96-2.519 6.114l-1.83 2.237c-2.494-2.767-1.185-16.674-.973-21.084"/><path fill="#0d3b68" d="m128.972 286.092 2.72-.642c-1.349 27.099.035 58.951-.274 86.641l7.105-.014c-2.8 1.348-5.314-.58-8.346 1.167l.114.769c1.9 1.029 6.918.54 9.603.65-2.436.739-9.024-.306-9.502 2.337-2.869 15.873.693 34.767-.936 50.55-.844-4.065-.433-31.58-.436-37.32l-.046-67.351c.007-12.1.288-24.776-.002-36.787"/><path fill="#0d3b68" d="m136.957 285.309.734-.838c.884.441 1.62.746 2.534 1.122.676 2.08.808 2.292.803 4.431-.706 1.391-.544.647-.301 2.341.311 2.603.455 4.522.581 7.128 3.438.046 10.707-.052 13.801.479l.534.006c1.74.582 3.089.65 3.868 1.929l-.423.454c-3.07.012-15.379-.119-17.448.372-.406 1.016-.342.579-.382 1.267l-.113 2.463c-1.228.815-1.61 1.298-2.971 1.527-.533-6.246.858-17.68-1.217-22.681"/><path fill="#000102" d="m155.109 299.972.534.006c1.74.582 3.089.65 3.868 1.929l-.423.454c-3.07.012-15.379-.119-17.448.372-.406 1.016-.342.579-.382 1.267-.77-1.135-.531-1.91-.221-3.067 1.921-1.465 10.883-.88 14.072-.961"/><path fill="#0d3b68" d="M138.174 307.99c1.361-.229 1.743-.712 2.971-1.527-.1 7.193.428 23.791-.128 30.212-1.406 4.122-1.963 8.025-3.091 11.371q.069-11.644.285-23.289c.099-4.867.499-12.163-.037-16.767"/><path fill="#000102" fill-opacity=".984" d="M875.968 278.051c.556 41.209.046 83.253.056 124.539l.068 31.21c.009 3.744.24 14.715-.517 17.937-.774-5.742.322-30.94-1.424-33.423-.21-4.897-.044-10.459.034-15.394.612-38.619-.711-77.522-.003-116.113 1.199-3.431-.75-6.515 1.786-8.756"/><path fill="#000102" d="M289.613 280.26c1.112-6.342-.792-16.719.72-23.264.239-1.035.375-.764 1.641-1.403.352 10.175-.634 24.902.374 34.227-.154 1.452-.56 4.042-.294 5.379l-.315 3.84.155 1.433c2.115 1.244 2.953-.225 5.086 1.503-1.755.462-2.368.499-4.189.449-.601 5.319-.251 10.923-.816 16.502-4.106-2.224-.511-10.908-2.28-15.315l-.127-14.601z"/><path fill="#083259" d="M128.972 286.092c2.504-5.622 8.042-5.705 11.253-.499-.914-.376-1.65-.681-2.534-1.122l-.734.838c-2.225-.119-3.055-.11-5.265.141z"/><path fill="#091e4e" d="M131.629 691.369c.86.876.378.73 1.352.81-.851 1.14-1.421 1.828-1.9 3.178l-3.011 2.86c-1.855.341-3.748.655-5.582 1.079 3.177-3.029 5.531-5.375 9.141-7.927"/></svg>