<svg xmlns="http://www.w3.org/2000/svg" width="260" height="200" viewBox="0 0 260 200">
	<title>Air conditioning offer illustration</title>
	<path fill="#DACDFE" d="M47.3 44.1h150.1c13 0 23.6 10.6 23.6 23.6v52.1c0 13-10.6 23.6-23.6 23.6H47.3c-13 0-23.6-10.6-23.6-23.6V67.7c0-13 10.6-23.6 23.6-23.6Z"/>
	<path fill="#FBF9FE" d="M51.2 55.4h142.3c8.4 0 15.2 6.8 15.2 15.2v33.1c0 8.4-6.8 15.2-15.2 15.2H51.2c-8.4 0-15.2-6.8-15.2-15.2V70.6c0-8.4 6.8-15.2 15.2-15.2Z"/>
	<path fill="#6D3DD2" d="M52.2 123.7h139.4c4.7 0 8.5 3.8 8.5 8.5s-3.8 8.5-8.5 8.5H52.2c-4.7 0-8.5-3.8-8.5-8.5s3.8-8.5 8.5-8.5Z"/>
	<path fill="#845FE4" d="M56.4 67.9h79.4c3.1 0 5.7 2.5 5.7 5.7 0 3.1-2.5 5.7-5.7 5.7H56.4c-3.1 0-5.7-2.5-5.7-5.7 0-3.1 2.5-5.7 5.7-5.7Z"/>
	<path fill="#845FE4" d="M56.4 88.6h113.2c3.1 0 5.7 2.5 5.7 5.7 0 3.1-2.5 5.7-5.7 5.7H56.4c-3.1 0-5.7-2.5-5.7-5.7 0-3.1 2.5-5.7 5.7-5.7Z"/>
	<path fill="#2A1D63" d="M164.5 70.1c9.4-5.8 21.7-2.9 27.5 6.5 5.8 9.4 2.9 21.7-6.5 27.5-9.4 5.8-21.7 2.9-27.5-6.5-5.8-9.4-2.9-21.7 6.5-27.5Z"/>
	<path fill="#FEB78A" d="M172.9 80.5c3.7-2.3 8.6-1.1 10.9 2.6 2.3 3.7 1.1 8.6-2.6 10.9-3.7 2.3-8.6 1.1-10.9-2.6-2.3-3.8-1.1-8.7 2.6-10.9Z"/>
	<path fill="#DACDFE" d="M54.6 154.5c20.9-8.2 43.3-8.2 64.1 0 5.3 2.1 5.2 9.7-.1 11.7-20.5 7.8-42.6 7.8-63.1 0-5.4-2-5.9-9.7-.9-11.7Z"/>
	<path fill="#845FE4" d="M103.2 157.7c16.1-8.9 35.4-9.4 51.9-1.2 4.8 2.4 4.8 9.3-.1 11.5-16.2 7.3-34.8 7.8-51.3 1.4-5.5-2.2-5.7-8.8-.5-11.7Z"/>
	<path fill="#6D3DD2" d="M152.7 155.6c16.4-9.8 36.9-10.2 53.8-1.1 4.8 2.6 4.5 9.7-.5 11.9-17.2 7.3-36.8 7.1-53.8-.6-4.4-2-4.3-7.7.5-10.2Z"/>
	<path fill="#FBF9FE" d="M65.7 158.8c14.7-3.7 30-3.7 44.6 0 2.4.6 2.4 4.1 0 4.7-14.6 3.8-30 3.8-44.6 0-2.4-.6-2.4-4.1 0-4.7Z"/>
	<path fill="#FBF9FE" d="M124.8 160.1c11.4-2.4 23.2-2.4 34.6 0 2.3.5 2.3 3.8 0 4.3-11.4 2.4-23.2 2.4-34.6 0-2.3-.5-2.3-3.8 0-4.3Z"/>
	<path fill="#FEB78A" d="M219.3 33.5c2.8-4 8.8-4 11.6 0 6.5 9.2 13.9 21.2 13.9 30.6 0 10.8-8.8 19.6-19.6 19.6s-19.6-8.8-19.6-19.6c-.1-9.4 7.3-21.4 13.7-30.6Z"/>
	<path fill="#FA946C" d="M225 49.9c2.8 4.3 6.1 10 6.1 14.2 0 3.3-2.7 6.1-6.1 6.1-3.3 0-6.1-2.7-6.1-6.1 0-4.2 3.3-9.9 6.1-14.2Z"/>
</svg>
