<svg xmlns="http://www.w3.org/2000/svg" width="260" height="200" viewBox="0 0 260 200">
	<title>Cleaning offer illustration</title>
	<path fill="#2A1D63" d="M170.6 46.4c6.9-3.1 16.5-.9 21.6 4.8 5.4 6.1 5.1 15.7-.6 21.3-5.6 5.4-15.1 5.3-20.4-.2-4.6-4.8-5.1-13.2-1.5-18.7l-30.4-15.2 4.5-8.9 26.8 16.9Z"/>
	<path fill="#6D3DD2" d="M78.4 69.4c7.4-5.3 18.9-5.5 26.8-.9l38.7 22.7c7.4 4.3 10.2 13.7 6.4 21.4l-29.8 60.1c-4.1 8.2-14.4 11.7-22.8 7.7l-43.1-20.5c-8.7-4.1-12.3-14.6-8-23.2l24.9-50.2c1.7-3.4 3.8-13.3 6.9-17.1Z"/>
	<path fill="#845FE4" d="M84.6 77.4c4.5-3.2 11.8-3.4 16.8-.5l34.2 20c3.8 2.2 5.3 7.1 3.3 11.1l-25.9 52.3c-2.1 4.2-7.4 6-11.7 3.9l-36.8-17.5c-4.5-2.1-6.4-7.5-4.1-12l21.3-43c1.6-3.1 1.4-11.5 2.9-14.3Z"/>
	<path fill="#DACDFE" d="M86.1 61.2c2.6-5.4 9.1-7.6 14.5-5l26.7 13c5.4 2.6 7.6 9.1 5 14.5l-4.1 8.3-46.2-22.5 4.1-8.3Z"/>
	<path fill="#FBF9FE" d="M95.5 63.2c1.3-2.6 4.4-3.7 7-2.4l18.2 8.8c2.6 1.3 3.7 4.4 2.4 7l-1.3 2.7-27.6-13.4 1.3-2.7Z"/>
	<path fill="#FEB78A" d="M151.4 112.8c19.6 2.7 39.8 11.4 54.5 24.5 4.3 3.8 7.7 8.5 9.9 13.8 1 2.4-.3 5.1-2.8 5.9-22.8 7.7-48 6.8-70.2-2.4l-25.5-10.6 16.7-33.7 17.4 2.5Z"/>
	<path fill="#FA946C" d="M134 110.3c6.8 9.1 11.5 19.7 13.7 30.8 1.1 5.4-3.8 10-9.1 8.5l-21.3-5.6 16.7-33.7Z"/>
	<path fill="#2A1D63" d="M66.9 92.9c5.4-10.9 18.6-15.3 29.4-9.8l25.1 12.6-8.2 16.4-45-22.6-1.3 3.4Z"/>
	<path fill="#DACDFE" d="M189.7 28.7c3.9-2.8 9.4-2 12.3 1.9 2.8 3.9 2 9.4-1.9 12.3-3.9 2.8-9.4 2-12.3-1.9-2.8-3.9-2-9.4 1.9-12.3Z"/>
	<path fill="#DACDFE" d="M213.8 65.2c4.8-1.1 9.6 1.9 10.7 6.7 1.1 4.8-1.9 9.6-6.7 10.7-4.8 1.1-9.6-1.9-10.7-6.7-1.1-4.8 1.9-9.6 6.7-10.7Z"/>
	<path fill="#FBF9FE" d="M197.9 87.4c3.4-1.7 7.5-.3 9.2 3.1 1.7 3.4.3 7.5-3.1 9.2-3.4 1.7-7.5.3-9.2-3.1-1.7-3.4-.3-7.5 3.1-9.2Z"/>
	<path fill="#FBF9FE" d="M33.8 152.9c15 7.3 31.7 12.1 48.5 14.1 13.3 1.6 26.9 1.4 40.1-.5 4-.6 7.6 2.3 8.1 6.3.5 3.9-2.2 7.4-6 8-31.8 5-65.1-.7-93.2-16.2-3.5-1.9-4.7-6.2-2.8-9.7 1-2 3.2-3 5.3-2Z"/>
</svg>
