<svg xmlns="http://www.w3.org/2000/svg" width="260" height="200" viewBox="0 0 260 200">
	<title>Plumbing offer illustration</title>
	<path fill="#DACDFE" d="M59.3 124.4c21.6-17.8 54-14.7 71.8 6.9 7 8.5 11 18.6 11.8 28.8.3 4-3.1 7.2-7.1 6.8l-87.3-8.1c-4-.4-6.8-4.2-5.8-8.1 2.4-10 8.1-19.2 16.6-26.3Z"/>
	<path fill="#6D3DD2" d="M53.8 67.9h68.6c13.9 0 25.2 11.3 25.2 25.2v14.8h-31.8V96c0-4.7-3.8-8.5-8.5-8.5H53.8c-5.4 0-9.8-4.4-9.8-9.8s4.4-9.8 9.8-9.8Z"/>
	<path fill="#845FE4" d="M118.4 91.4h40.8c8.4 0 15.2 6.8 15.2 15.2v20.2c0 5.4 4.4 9.8 9.8 9.8h18.4c5.4 0 9.8 4.4 9.8 9.8s-4.4 9.8-9.8 9.8h-32.7c-13.9 0-25.2-11.3-25.2-25.2v-18.4h-26.3V91.4Z"/>
	<path fill="#2A1D63" d="M132.6 55.7c5.7-10 17.4-15.8 29.1-13.8 15.1 2.6 25.2 16.9 22.6 31.9-.7 4.1-2.4 8-4.8 11.3l-16.6-2.9c4.3-2.2 7.5-6.2 8.4-11.4 1.3-7.6-3.8-14.8-11.4-16.1-6.8-1.2-13.3 2.8-15.4 9.1l-11.9-8.1Z"/>
	<path fill="#FEB78A" d="M158.9 78.7 81.2 156.4c-5.2 5.2-13.5 5.2-18.7 0-5.2-5.2-5.2-13.5 0-18.7l77.7-77.7 18.7 18.7Z"/>
	<path fill="#FA946C" d="M140.2 60 158.9 78.7l-10.8 10.8-18.7-18.7L140.2 60Z"/>
	<path fill="#2A1D63" d="M87.4 149.9c1.7 1.7 1.7 4.4 0 6.1l-14.8 14.8c-6.9 6.9-18 6.9-24.8 0-6.9-6.9-6.9-18 0-24.8l14.8-14.8c1.7-1.7 4.4-1.7 6.1 0l18.7 18.7Z"/>
	<path fill="#FBF9FE" d="M63 149.6c2.4-2.4 6.2-2.4 8.5 0 2.4 2.4 2.4 6.2 0 8.5-2.4 2.4-6.2 2.4-8.5 0-2.3-2.4-2.3-6.2 0-8.5Z"/>
	<path fill="#DACDFE" d="M218.5 50.9c7.6 10.6 18.4 25.9 18.4 37.9 0 14.2-11.5 25.7-25.7 25.7s-25.7-11.5-25.7-25.7c0-12 10.8-27.3 18.4-37.9 3.5-4.9 11.1-4.9 14.6 0Z"/>
	<path fill="#6D3DD2" d="M211.2 70.7c3.7 5.4 8.5 13.1 8.5 18.7 0 4.7-3.8 8.5-8.5 8.5s-8.5-3.8-8.5-8.5c0-5.6 4.8-13.3 8.5-18.7Z"/>
	<path fill="#FBF9FE" d="M57.2 83.6h48.1c3.1 0 5.7 2.5 5.7 5.7 0 3.1-2.5 5.7-5.7 5.7H57.2c-3.1 0-5.7-2.5-5.7-5.7 0-3.1 2.5-5.7 5.7-5.7Z"/>
	<path fill="#FBF9FE" d="M174.3 126.4h28.1c3.1 0 5.7 2.5 5.7 5.7 0 3.1-2.5 5.7-5.7 5.7h-28.1c-3.1 0-5.7-2.5-5.7-5.7 0-3.1 2.5-5.7 5.7-5.7Z"/>
</svg>
